<?xml version="1.0" encoding="UTF-8"?>
<!DOCTYPE svg PUBLIC "-//W3C//DTD SVG 1.1//EN" "http://www.w3.org/Graphics/SVG/1.1/DTD/svg11.dtd">
<!-- Creator: CorelDRAW 2018 (64-Bit Evaluation Version) -->
<svg xmlns="http://www.w3.org/2000/svg" xml:space="preserve" width="594px" height="594px" version="1.1" style="shape-rendering:geometricPrecision; text-rendering:geometricPrecision; image-rendering:optimizeQuality; fill-rule:evenodd; clip-rule:evenodd"
viewBox="0 0 165.88 165.88"
 xmlns:xlink="http://www.w3.org/1999/xlink">
 <defs>
  <style type="text/css">
   <![CDATA[
    .fil3 {fill:#00BF5C;fill-rule:nonzero}
    .fil2 {fill:#00DE63;fill-rule:nonzero}
    .fil4 {fill:#079E4C;fill-rule:nonzero}
    .fil1 {fill:#D4AD00;fill-rule:nonzero}
    .fil0 {fill:#FCCD01;fill-rule:nonzero}
   ]]>
  </style>
 </defs>
 <g id="Layer_x0020_1">
  <metadata id="CorelCorpID_0Corel-Layer"/>
  <g id="_2079455668832">
   <path class="fil0" d="M165.88 82.94c0,45.81 -37.13,82.94 -82.94,82.94 -45.81,0 -82.94,-37.13 -82.94,-82.94 0,-45.81 37.13,-82.94 82.94,-82.94 45.81,0 82.94,37.13 82.94,82.94z"/>
   <path class="fil1" d="M54.63 136.24l29.62 29.62c44.76,-0.7 80.91,-36.85 81.61,-81.61l-54.61 -54.61 -56.62 106.6z"/>
   <polygon class="fil2" points="111.25,29.64 98.24,19.44 67.64,19.44 54.63,29.64 44.43,44.69 44.43,121.19 54.63,136.24 67.64,146.44 98.24,146.44 111.25,136.24 121.45,121.19 121.45,44.69 "/>
   <polygon class="fil2" points="67.64,19.44 54.63,29.64 44.43,44.69 67.64,44.69 "/>
   <polygon class="fil3" points="121.45,44.69 111.25,29.64 98.24,19.44 98.24,44.69 "/>
   <polygon class="fil2" points="44.43,121.19 54.63,136.24 67.64,146.44 67.64,121.19 "/>
   <polygon class="fil3" points="98.24,146.44 111.25,136.24 121.45,121.19 98.24,121.19 "/>
   <polygon class="fil3" points="44.43,121.19 67.64,121.19 67.64,44.69 44.43,44.69 "/>
   <polygon class="fil4" points="98.24,121.19 121.45,121.19 121.45,44.69 98.24,44.69 "/>
   <polygon class="fil3" points="67.64,44.69 98.24,44.69 98.24,19.44 67.64,19.44 "/>
   <polygon class="fil4" points="82.81,44.69 98.24,44.69 98.24,19.44 82.81,19.44 "/>
   <polygon class="fil3" points="67.64,146.44 98.24,146.44 98.24,121.19 67.64,121.19 "/>
   <polygon class="fil4" points="82.81,146.44 98.24,146.44 98.24,121.19 82.81,121.19 "/>
   <polygon class="fil2" points="67.64,121.19 98.24,121.19 98.24,44.69 67.64,44.69 "/>
   <polygon class="fil3" points="82.81,121.19 98.24,121.19 98.24,44.69 82.81,44.69 "/>
  </g>
 </g>
</svg>
