<?xml version="1.0" encoding="UTF-8"?>
<!DOCTYPE svg PUBLIC "-//W3C//DTD SVG 1.1//EN" "http://www.w3.org/Graphics/SVG/1.1/DTD/svg11.dtd">
<!-- Creator: CorelDRAW 2018 (64-Bit Evaluation Version) -->
<svg xmlns="http://www.w3.org/2000/svg" xml:space="preserve" width="2185px" height="567px" version="1.1" style="shape-rendering:geometricPrecision; text-rendering:geometricPrecision; image-rendering:optimizeQuality; fill-rule:evenodd; clip-rule:evenodd"
viewBox="0 0 1370.25 355.26"
 xmlns:xlink="http://www.w3.org/1999/xlink">
 <defs>
  <style type="text/css">
   <![CDATA[
    .fil23 {fill:none}
    .fil21 {fill:black}
    .fil1 {fill:purple}
    .fil2 {fill:white}
    .fil6 {fill:#F3F4F6;fill-rule:nonzero}
    .fil11 {fill:black;fill-rule:nonzero}
    .fil10 {fill:#008C2F;fill-rule:nonzero}
    .fil9 {fill:#009933;fill-rule:nonzero}
    .fil8 {fill:#00EBEB;fill-rule:nonzero}
    .fil7 {fill:aqua;fill-rule:nonzero}
    .fil13 {fill:#212121;fill-rule:nonzero}
    .fil12 {fill:#212121;fill-rule:nonzero}
    .fil20 {fill:#630063;fill-rule:nonzero}
    .fil17 {fill:purple;fill-rule:nonzero}
    .fil18 {fill:#870087;fill-rule:nonzero}
    .fil19 {fill:#870087;fill-rule:nonzero}
    .fil0 {fill:#9C28B1;fill-rule:nonzero}
    .fil4 {fill:#D60000;fill-rule:nonzero}
    .fil5 {fill:#D60000;fill-rule:nonzero}
    .fil16 {fill:#E35B00;fill-rule:nonzero}
    .fil15 {fill:#E35B00;fill-rule:nonzero}
    .fil3 {fill:red;fill-rule:nonzero}
    .fil14 {fill:#FF6600;fill-rule:nonzero}
    .fil22 {fill:white;fill-rule:nonzero}
   ]]>
  </style>
   <clipPath id="id0">
    <path d="M0 0l1370.25 0 0 355.26 -1370.25 0 0 -355.26z"/>
   </clipPath>
      <clipPath id="id1">
       <path d="M58.92 76.08l308.26 0 0 279.18 -308.26 0 0 -279.18z"/>
      </clipPath>
      <clipPath id="id2">
       <path d="M0 0l1370.25 0 0 355.26 -1370.25 0 0 -355.26z"/>
      </clipPath>
 </defs>
 <g id="Layer_x0020_1">
  <metadata id="CorelCorpID_0Corel-Layer"/>
  <g>
  </g>
  <g style="clip-path:url(#id0)">
   <g>
    <path class="fil0" d="M400.47 248.34c0,0 0,0 0,0 0,0 0,0 0,0l18.21 0c29.79,0 53.86,-24.22 53.86,-54.16 0,-29.63 -24.07,-53.86 -53.86,-53.86l-18.21 0c0,0 0,0 0,0 0,0 0,0 0,0 -4.78,0 -8.48,3.7 -8.48,8.48l0 91.06c0,4.63 3.7,8.48 8.48,8.48zm8.65 -90.89l9.56 0c20.38,0 36.73,16.51 36.73,36.73 0,20.52 -16.35,36.88 -36.73,37.03l-9.56 0 0 -73.76zm89.04 13.89c-4.63,0 -8.33,3.55 -8.33,8.48l0 60.19c0,4.63 3.7,8.33 8.33,8.33 4.79,0 8.33,-3.7 8.33,-8.33l0 -60.19c0,-4.93 -3.54,-8.48 -8.33,-8.48zm8.33 -22.69c0,-4.63 -3.54,-8.33 -8.33,-8.33 -4.63,0 -8.33,3.7 -8.33,8.33l0 3.24c0,4.63 3.7,8.49 8.33,8.49 4.79,0 8.33,-3.86 8.33,-8.49l0 -3.24zm12.35 89.05l0 0c6.17,4.93 15.43,10.49 27.47,10.64l0 0c7.56,0 14.51,-2.31 20.06,-6.17l0 0c5.56,-4.01 9.72,-10.34 9.72,-17.9l0 0c0,-3.55 -1.08,-7.1 -2.93,-10.19l0 0c-2.62,-4.32 -6.79,-7.25 -10.95,-9.1l0 0c-4.48,-2.16 -9.26,-3.55 -14.36,-4.48l-0.15 0 -0.16 -0.15 0 0c-5.24,-0.93 -9.25,-2.32 -11.26,-3.7l0 0c-1.08,-0.62 -1.54,-1.24 -1.7,-1.55l0 0c-0.31,-0.46 -0.31,-0.62 -0.31,-1.23l0 0c0,-0.77 0.47,-2.16 2.47,-3.55l0 0c2.01,-1.54 5.4,-2.78 9.26,-2.78l0 0c4.94,0 9.26,2.47 14.2,5.71l0 0c3.86,2.62 8.95,1.54 11.42,-2.16l0 0c2.31,-3.86 1.23,-8.95 -2.47,-11.42l0 0 0 0c-4.94,-3.4 -12.5,-8.49 -23.15,-8.49l0 0c-7.1,0 -13.58,2.01 -18.98,5.71l0 0c-5.09,3.86 -9.11,9.88 -9.11,16.98l0 0c0,3.55 0.93,6.94 2.63,9.72l0 0c2.78,4.17 6.48,6.94 10.65,8.95l0 0c4.01,1.85 8.64,3.09 13.42,4.01l0.16 0 0 0 0 0 0 0c5.55,1.08 10.18,2.78 12.34,4.32l0 0c1.24,0.78 1.86,1.39 2.01,1.86l0 0c0.31,0.46 0.46,0.77 0.46,1.54l0 0c0,1.23 -0.61,2.78 -2.78,4.63l0 0c-2.46,1.54 -6.32,2.93 -10.49,2.93l0 0c-6.02,0.16 -12.96,-3.39 -16.98,-6.79l0 0c-3.39,-2.93 -8.79,-2.47 -11.57,1.24l0 0c-2.78,3.39 -2.31,8.64 1.08,11.42zm100.77 10.64c0,0 0,0 0,0 9.26,0 17.91,-3.39 24.54,-8.18 3.55,-3.08 4.17,-8.02 1.7,-11.41 -3.09,-3.71 -8.18,-4.33 -11.57,-1.7 -4.02,2.93 -9.11,4.94 -14.67,4.94 -12.5,0 -22.84,-10.19 -22.84,-22.07 0,-11.89 10.34,-22.23 22.84,-22.23 5.71,0 10.65,2.01 14.67,4.94 3.54,2.78 8.48,2.16 11.57,-1.54 2.47,-3.4 1.85,-8.64 -1.7,-11.42 -6.63,-5.09 -15.28,-8.49 -24.54,-8.49 -21.29,0.16 -39.19,17.29 -39.19,38.74 0,21.14 17.9,38.42 39.19,38.42zm74.08 0.47c0,0 0,0 0,0 10.19,0 19.45,-4.48 25.77,-11.73 6.95,-6.79 10.8,-16.36 10.8,-27.16l0 0c0,-10.5 -3.85,-19.6 -10.8,-27.01 -6.32,-7.25 -15.58,-11.73 -25.77,-11.73 -10.65,0 -19.6,4.48 -26.54,11.73 -6.64,7.41 -10.65,16.51 -10.65,27.01 0,10.8 4.01,20.37 10.65,27.16 6.94,7.25 15.89,11.73 26.54,11.73zm-14.81 -54.94c3.85,-3.4 8.95,-5.87 14.81,-5.87 5.4,0 10.34,2.47 14.2,5.87 3.86,4.16 6.02,9.72 6.02,16.05l0 0c0,6.63 -2.16,12.03 -6.02,16.36 -3.86,3.7 -8.8,5.71 -14.2,5.71 -5.86,0 -10.96,-2.01 -14.81,-5.71 -3.56,-4.33 -5.56,-9.73 -5.56,-16.36 0,-6.33 2,-11.89 5.56,-16.05zm126.7 22.37l0 -36.88c0,-4.32 -4.02,-8.18 -8.34,-8.18 -4.63,0 -8.02,3.86 -8.02,8.18l0 0 0 36.88c-0.16,8.8 -7.26,15.75 -16.21,15.75 -8.79,0 -15.74,-6.95 -15.74,-15.75l0 -36.88c0,-4.32 -3.55,-8.18 -8.18,-8.18 -4.47,0 -8.18,3.86 -8.18,8.18l0 36.88c0,17.6 14.51,32.1 32.1,32.1 17.75,0 32.57,-14.5 32.57,-32.1zm48.3 -45.06c-6.02,0 -11.73,1.85 -16.36,4.79 -1.39,-2.94 -4.32,-4.79 -7.56,-4.79 -4.63,0 -8.18,3.71 -8.18,8.18l0 23.92c0,0 0,0 0,0l0 36.88c0,4.48 3.55,8.18 8.18,8.18 4.01,0 7.41,-2.93 8.18,-6.63 0.31,-0.62 0.31,-1.08 0.31,-1.55l0 0 0 -36.88c0,-8.64 6.79,-15.59 15.43,-15.59 8.79,0 16.05,6.95 16.05,15.59l0 36.88c0,4.48 3.86,8.18 8.18,8.18 4.47,0 8.02,-3.7 8.02,-8.18l0 -36.88c0,-17.44 -14.35,-32.1 -32.25,-32.1zm77.01 0l-3.86 0 0 -22.38c0,-4.78 -3.71,-8.48 -8.49,-8.48 -4.78,0 -8.64,3.7 -8.64,8.48l0 0 0 22.38 -4.48 0c-4.78,0 -8.49,3.71 -8.49,8.49 0,4.63 3.71,8.49 8.49,8.49l4.48 0 0 43.05c0,9.42 7.71,17.13 17.13,17.13 4.78,0 8.49,-3.7 8.49,-8.48 0,-4.79 -3.71,-8.65 -8.49,-8.65 0,0 0,0 0,0l0 -43.05 3.86 0c4.63,0 8.64,-3.86 8.64,-8.49 0,-4.78 -4.01,-8.49 -8.64,-8.49l0 0zm110.03 -30.86c0,0 0,0 0,0 0,0 0,0 0,0 -0.16,0 -0.16,0 -0.16,0 -2.77,0 -5.24,1.23 -6.94,3.55l-30.71 42.59 -30.71 -42.59c-1.54,-2.32 -4.32,-3.55 -6.79,-3.55 -0.31,0 -0.31,0 -0.46,0 -4.63,0 -8.49,3.86 -8.49,8.48l0 91.06c0,4.63 3.86,8.48 8.49,8.48 4.78,0 8.64,-3.85 8.64,-8.48l0 -64.97 22.07 30.86c1.69,2.32 4.32,3.55 7.09,3.55 0,0 0.16,0 0.16,0 0,0 0.15,0 0.15,0 2.78,0 5.25,-1.23 6.95,-3.55l22.22 -30.86 0 64.97c0,4.63 3.7,8.48 8.49,8.48 4.63,0 8.64,-3.85 8.64,-8.48l0 -91.06c0,-4.62 -4.01,-8.33 -8.64,-8.48zm41.2 31.02c-4.63,0 -8.33,3.55 -8.33,8.48l0 60.19c0,4.63 3.7,8.33 8.33,8.33 4.79,0 8.34,-3.7 8.34,-8.33l0 -60.19c0,-4.93 -3.55,-8.48 -8.34,-8.48zm8.34 -22.69c0,-4.63 -3.55,-8.33 -8.34,-8.33 -4.63,0 -8.33,3.7 -8.33,8.33l0 3.24c0,4.63 3.7,8.49 8.33,8.49 4.79,0 8.34,-3.86 8.34,-8.49l0 -3.24zm69.13 25.16c-3.86,-2.63 -8.79,-1.86 -11.73,1.69l-15.43 20.68 -15.43 -20.68c-2.78,-3.55 -7.56,-4.32 -11.27,-1.69 -3.55,2.46 -4.32,7.71 -1.69,10.95l18.52 25.31 -18.52 25.46c-2.63,3.4 -1.86,8.8 1.69,11.12 1.39,1.08 3.24,1.69 4.94,1.69 2.47,0 4.63,-1.38 6.33,-3.39l15.43 -21.14 15.43 21.14c2.01,2.01 4.33,3.39 6.79,3.39 1.7,0 3.4,-0.61 4.94,-1.69 3.24,-2.32 4.17,-7.72 1.55,-11.12l-18.37 -25.46 18.37 -25.31c2.62,-3.24 1.69,-8.49 -1.55,-10.95zm99.39 -30.56c-3.86,-2.93 -8.95,-2.16 -11.88,1.85l-25.93 35.5 -26.08 -35.5c-2.63,-4.01 -8.03,-4.78 -11.73,-1.85 -3.86,2.62 -4.63,7.87 -2.01,11.73l29.32 39.81 -29.32 40.13c-2.62,3.7 -1.85,9.1 2.01,11.73 1.39,1.08 3.09,1.69 4.94,1.69 2.62,0 5.09,-1.38 6.79,-3.55l26.08 -35.64 25.93 35.64c1.69,2.17 4.16,3.55 6.94,3.55 1.7,0 3.39,-0.61 4.94,-1.69 3.86,-2.63 4.47,-8.03 1.85,-11.73l-29.32 -40.13 29.32 -39.81c2.62,-3.86 2.01,-9.11 -1.85,-11.73z"/>
    <g id="_1837608586208">
     <g>
     </g>
     <g style="clip-path:url(#id1)">
      <image x="58.92" y="76.08" width="308.26" height="291.08" xlink:href="LogoFixPanjang_Images\LogoFixPanjang_ImgID1.png"/>
     </g>
     <g style="clip-path:url(#id2)">
     </g>
     <path class="fil1" d="M115.82 93.84l188.29 0c8.15,0 14.2,6.69 14.82,14.81l15.16 199.15c0.62,8.12 -0.57,13.45 -8.71,13.45l-226.42 0c-8.14,0 -9.71,-6.5 -9.25,-14.64l11.29 -197.96c0.47,-8.13 6.67,-14.81 14.82,-14.81z"/>
     <circle class="fil2" cx="157.32" cy="116.15" r="10.5"/>
     <circle class="fil2" cx="266.29" cy="116.15" r="10.5"/>
     <g>
      <path class="fil3" d="M291.93 142.18c-2.25,0.24 -4.27,-1.38 -4.51,-3.63 -0.24,-2.24 1.38,-4.26 3.63,-4.5 2.25,-0.24 4.26,1.38 4.5,3.63 0.24,2.24 -1.38,4.26 -3.62,4.5zm22.24 -0.85l-13.32 -12.25c-1.36,-1.25 -3.19,-1.86 -5.03,-1.66l-5.42 0.58 -5.43 0.59c-1.83,0.2 -3.5,1.18 -4.56,2.69l-10.4 14.81c-0.9,1.27 -1.3,2.83 -1.13,4.38l7.48 69.4c0.38,3.53 3.54,6.08 7.06,5.7l34.57 -3.73c3.53,-0.38 6.08,-3.54 5.7,-7.06l-7.48 -69.41c-0.17,-1.55 -0.89,-2.98 -2.04,-4.04z"/>
      <path class="fil4" d="M316.21 145.37c-0.17,-1.55 -0.89,-2.98 -2.04,-4.04l-7.27 -6.69 -37.28 22.67 1.95 18.13 44.94 -27.32 -0.3 -2.75z"/>
      <polygon class="fil5" points="317.41,156.52 272.48,183.84 273.7,195.26 318.64,167.94 "/>
      <path class="fil6" d="M289.04 131.12l-2.02 0.22 -0.05 -0.5 2.01 -0.22 0.06 0.5zm4.03 -0.43l-2.02 0.22 -0.05 -0.51 2.01 -0.22 0.06 0.51zm3.96 -0.31c-0.29,-0.05 -0.59,-0.05 -0.89,-0.02l-1.06 0.11 -0.05 -0.5 1.05 -0.12c0.35,-0.03 0.69,-0.02 1.03,0.03l-0.08 0.5zm-13.68 2.01l-0.33 -0.38c0.54,-0.48 1.2,-0.81 1.92,-0.94l0.09 0.5c-0.62,0.11 -1.2,0.4 -1.68,0.82zm16.87 0.12l-1.37 -1.26 -0.12 -0.1 0.33 -0.39 0.14 0.12 1.36 1.25 -0.34 0.38zm-19.23 3.09l-0.42 -0.29 1.17 -1.66 0.41 0.29 -1.16 1.66zm22.21 -0.35l-1.49 -1.37 0.34 -0.37 1.49 1.37 -0.34 0.37zm-24.54 3.66l-0.42 -0.29 1.17 -1.65 0.41 0.29 -1.16 1.65zm27.52 -0.91l-1.49 -1.38 0.34 -0.37 1.5 1.37 -0.35 0.38zm-29.85 4.23l-0.41 -0.29 1.16 -1.66 0.41 0.29 -1.16 1.66zm32.83 -1.49l-1.49 -1.37 0.35 -0.38 1.49 1.38 -0.35 0.37zm-35.16 4.81l-0.41 -0.29 1.16 -1.66 0.42 0.29 -1.17 1.66zm38.15 -2.07l-1.49 -1.37 0.34 -0.37 1.49 1.37 -0.34 0.37zm-40.24 5.41l-0.49 -0.13c0.12,-0.45 0.32,-0.88 0.59,-1.26l0.41 -0.58 0.42 0.29 -0.41 0.58c-0.24,0.34 -0.41,0.71 -0.52,1.1zm42.01 -1.92l-0.51 0.05 -0.14 -1.34c-0.02,-0.21 -0.06,-0.42 -0.13,-0.62l0.49 -0.14c0.07,0.23 0.12,0.47 0.14,0.71l0.15 1.34zm-41.81 5.86l-0.51 0.05 -0.21 -2.01 0.5 -0.06 0.22 2.02zm42.24 -1.83l-0.5 0.05 -0.22 -2.01 0.5 -0.06 0.22 2.02zm-41.81 5.86l-0.5 0.05 -0.22 -2.01 0.5 -0.06 0.22 2.02zm42.25 -1.83l-0.51 0.05 -0.21 -2.02 0.5 -0.05 0.22 2.02zm-41.82 5.86l-0.5 0.05 -0.22 -2.01 0.51 -0.06 0.21 2.02zm42.25 -1.84l-0.5 0.06 -0.22 -2.02 0.5 -0.05 0.22 2.01zm-41.81 5.87l-0.5 0.05 -0.22 -2.01 0.5 -0.06 0.22 2.02zm42.24 -1.84l-0.5 0.06 -0.22 -2.02 0.51 -0.05 0.21 2.01zm-41.81 5.87l-0.5 0.05 -0.22 -2.01 0.5 -0.06 0.22 2.02zm42.25 -1.84l-0.51 0.06 -0.21 -2.02 0.5 -0.05 0.22 2.01zm-41.81 5.86l-0.51 0.06 -0.21 -2.02 0.5 -0.05 0.22 2.01zm42.24 -1.83l-0.5 0.06 -0.22 -2.02 0.51 -0.05 0.21 2.01zm-41.81 5.86l-0.5 0.06 -0.22 -2.02 0.5 -0.05 0.22 2.01zm42.25 -1.83l-0.51 0.06 -0.21 -2.02 0.5 -0.05 0.22 2.01zm-41.82 5.86l-0.5 0.06 -0.22 -2.02 0.51 -0.05 0.21 2.01zm42.25 -1.83l-0.5 0.06 -0.22 -2.02 0.5 -0.05 0.22 2.01zm-41.81 5.86l-0.5 0.06 -0.22 -2.02 0.5 -0.05 0.22 2.01zm42.24 -1.83l-0.5 0.06 -0.22 -2.02 0.51 -0.05 0.21 2.01zm-41.81 5.86l-0.5 0.06 -0.22 -2.02 0.51 -0.05 0.21 2.01zm42.25 -1.83l-0.51 0.06 -0.21 -2.02 0.5 -0.05 0.22 2.01zm-41.81 5.86l-0.51 0.06 -0.21 -2.02 0.5 -0.05 0.22 2.01zm42.24 -1.83l-0.5 0.06 -0.22 -2.02 0.51 -0.05 0.21 2.01zm-41.81 5.86l-0.5 0.06 -0.22 -2.02 0.5 -0.05 0.22 2.01zm42.25 -1.83l-0.51 0.05 -0.21 -2.01 0.5 -0.05 0.22 2.01zm-41.81 5.86l-0.51 0.06 -0.22 -2.02 0.51 -0.05 0.22 2.01zm42.24 -1.83l-0.5 0.05 -0.22 -2.01 0.5 -0.05 0.22 2.01zm-41.81 5.86l-0.5 0.06 -0.22 -2.02 0.5 -0.05 0.22 2.01zm42.25 -1.83l-0.51 0.05 -0.22 -2.01 0.51 -0.06 0.22 2.02zm-41.82 5.86l-0.5 0.05 -0.22 -2.01 0.51 -0.05 0.21 2.01zm42.25 -1.83l-0.5 0.05 -0.22 -2.01 0.5 -0.06 0.22 2.02zm-41.81 5.86l-0.51 0.05 -0.21 -2.01 0.5 -0.05 0.22 2.01zm42.24 -1.83l-0.5 0.05 -0.22 -2.01 0.51 -0.06 0.21 2.02zm-41.81 5.86l-0.5 0.05 -0.22 -2.01 0.5 -0.06 0.22 2.02zm42.22 -1.8l-0.5 -0.01c0,-0.13 -0.01,-0.26 -0.02,-0.4l-0.17 -1.58 0.5 -0.06 0.17 1.59c0.02,0.15 0.02,0.31 0.02,0.46zm-41.84 5.88c-0.35,-0.52 -0.57,-1.14 -0.64,-1.77l-0.02 -0.24 0.5 -0.06 0.02 0.25c0.07,0.56 0.25,1.08 0.56,1.54l-0.42 0.28zm39.68 -2.38l-0.24 -0.45c0.57,-0.29 1.04,-0.73 1.38,-1.27l0.43 0.27c-0.39,0.62 -0.93,1.12 -1.57,1.45zm-34.29 3.95l-1.66 0.18c-0.72,0.08 -1.45,-0.04 -2.11,-0.35l0.22 -0.46c0.57,0.27 1.21,0.38 1.84,0.31l1.66 -0.18 0.05 0.5zm4.03 -0.43l-2.01 0.22 -0.06 -0.51 2.02 -0.22 0.05 0.51zm4.03 -0.44l-2.01 0.22 -0.06 -0.5 2.02 -0.22 0.05 0.5zm4.03 -0.43l-2.01 0.22 -0.06 -0.51 2.02 -0.21 0.05 0.5zm4.03 -0.43l-2.01 0.21 -0.06 -0.5 2.02 -0.22 0.05 0.51zm4.03 -0.44l-2.01 0.22 -0.06 -0.5 2.02 -0.22 0.05 0.5zm4.03 -0.43l-2.01 0.22 -0.06 -0.51 2.02 -0.22 0.05 0.51zm4.03 -0.44l-2.02 0.22 -0.05 -0.5 2.01 -0.22 0.06 0.5zm4.03 -0.43l-2.02 0.22 -0.05 -0.51 2.01 -0.21 0.06 0.5z"/>
     </g>
     <g>
      <path class="fil7" d="M292.13 141.97c-2.19,0.57 -4.42,-0.74 -4.99,-2.93 -0.57,-2.18 0.75,-4.41 2.93,-4.98 2.19,-0.57 4.42,0.74 4.99,2.93 0.57,2.18 -0.74,4.42 -2.93,4.98zm21.88 -4.09l-14.97 -10.18c-1.53,-1.04 -3.43,-1.37 -5.22,-0.9l-5.28 1.37 -5.28 1.37c-1.79,0.47 -3.29,1.68 -4.12,3.34l-8.12 16.17c-0.7,1.39 -0.87,2.99 -0.47,4.49l17.56 67.57c0.89,3.43 4.39,5.49 7.82,4.59l33.66 -8.75c3.43,-0.89 5.48,-4.39 4.59,-7.82l-17.56 -67.56c-0.39,-1.51 -1.32,-2.82 -2.61,-3.69z"/>
      <path class="fil8" d="M316.62 141.57c-0.39,-1.51 -1.32,-2.82 -2.61,-3.69l-8.17 -5.56 -33.56 27.88 4.59 17.66 40.44 -33.61 -0.69 -2.68z"/>
      <polygon class="fil8" points="319.44,152.42 278.99,186.03 281.88,197.15 322.33,163.54 "/>
      <path class="fil6" d="M287.65 131.46l-1.96 0.51 -0.13 -0.49 1.96 -0.51 0.13 0.49zm3.92 -1.02l-1.96 0.51 -0.12 -0.49 1.96 -0.51 0.12 0.49zm3.88 -0.89c-0.3,0 -0.59,0.03 -0.88,0.11l-1.03 0.27 -0.13 -0.49 1.03 -0.27c0.33,-0.09 0.67,-0.13 1.01,-0.13l0 0.51zm-13.23 3.99l-0.39 -0.32c0.46,-0.56 1.07,-0.98 1.76,-1.22l0.16 0.48c-0.6,0.21 -1.13,0.57 -1.53,1.06zm16.69 -2.35l-1.53 -1.04 -0.13 -0.09 0.26 -0.43 0.16 0.1 1.53 1.04 -0.29 0.42zm-18.56 5.87l-0.46 -0.22 0.91 -1.81 0.45 0.22 -0.9 1.81zm21.92 -3.59l-1.68 -1.14 0.29 -0.42 1.67 1.14 -0.28 0.42zm-23.74 7.22l-0.46 -0.23 0.91 -1.81 0.46 0.22 -0.91 1.82zm27.09 -4.95l-1.68 -1.14 0.29 -0.41 1.67 1.13 -0.28 0.42zm-28.91 8.57l-0.45 -0.23 0.91 -1.81 0.45 0.23 -0.91 1.81zm32.26 -6.29l-1.68 -1.14 0.29 -0.42 1.68 1.14 -0.29 0.42zm-34.08 9.91l-0.45 -0.23 0.91 -1.81 0.45 0.23 -0.91 1.81zm37.43 -7.63l-1.67 -1.14 0.28 -0.42 1.68 1.14 -0.29 0.42zm-39 11.25l-0.51 -0.06c0.06,-0.47 0.19,-0.92 0.4,-1.34l0.32 -0.64 0.45 0.23 -0.32 0.64c-0.18,0.37 -0.3,0.76 -0.34,1.17zm41.26 -8.07l-0.49 0.13 -0.33 -1.3c-0.06,-0.2 -0.13,-0.4 -0.22,-0.6l0.46 -0.21c0.1,0.22 0.19,0.45 0.25,0.68l0.33 1.3zm-40.5 11.93l-0.49 0.13 -0.51 -1.97 0.49 -0.12 0.51 1.96zm41.53 -8l-0.5 0.12 -0.51 -1.96 0.49 -0.12 0.52 1.96zm-40.51 11.92l-0.49 0.13 -0.51 -1.96 0.49 -0.13 0.51 1.96zm41.53 -8l-0.5 0.13 -0.51 -1.96 0.49 -0.13 0.52 1.96zm-40.51 11.92l-0.49 0.13 -0.51 -1.96 0.49 -0.13 0.51 1.96zm41.52 -8l-0.49 0.13 -0.51 -1.96 0.49 -0.13 0.51 1.96zm-40.5 11.92l-0.49 0.13 -0.51 -1.96 0.49 -0.13 0.51 1.96zm41.52 -8l-0.49 0.13 -0.51 -1.96 0.49 -0.13 0.51 1.96zm-40.5 11.93l-0.49 0.13 -0.51 -1.97 0.49 -0.12 0.51 1.96zm41.52 -8l-0.49 0.12 -0.51 -1.96 0.49 -0.12 0.51 1.96zm-40.5 11.92l-0.49 0.13 -0.51 -1.96 0.49 -0.13 0.51 1.96zm41.52 -8l-0.49 0.13 -0.51 -1.96 0.49 -0.13 0.51 1.96zm-40.5 11.92l-0.49 0.13 -0.51 -1.96 0.49 -0.13 0.51 1.96zm41.52 -8l-0.49 0.13 -0.51 -1.96 0.49 -0.13 0.51 1.96zm-40.5 11.93l-0.49 0.12 -0.51 -1.96 0.49 -0.13 0.51 1.97zm41.52 -8.01l-0.49 0.13 -0.51 -1.96 0.49 -0.13 0.51 1.96zm-40.5 11.93l-0.49 0.13 -0.51 -1.97 0.49 -0.12 0.51 1.96zm41.52 -8l-0.49 0.12 -0.51 -1.96 0.49 -0.12 0.51 1.96zm-40.5 11.92l-0.49 0.13 -0.51 -1.96 0.49 -0.13 0.51 1.96zm41.52 -8l-0.49 0.13 -0.51 -1.96 0.49 -0.13 0.51 1.96zm-40.5 11.92l-0.49 0.13 -0.51 -1.96 0.49 -0.13 0.51 1.96zm41.52 -8l-0.49 0.13 -0.51 -1.96 0.49 -0.13 0.51 1.96zm-40.5 11.93l-0.49 0.12 -0.51 -1.96 0.49 -0.13 0.51 1.97zm41.52 -8.01l-0.49 0.13 -0.51 -1.96 0.49 -0.13 0.51 1.96zm-40.5 11.93l-0.49 0.12 -0.51 -1.96 0.49 -0.12 0.51 1.96zm41.52 -8l-0.49 0.12 -0.51 -1.96 0.49 -0.13 0.51 1.97zm-40.5 11.92l-0.49 0.13 -0.51 -1.96 0.49 -0.13 0.51 1.96zm41.52 -8l-0.49 0.13 -0.51 -1.97 0.49 -0.12 0.51 1.96zm-40.5 11.92l-0.49 0.13 -0.51 -1.96 0.49 -0.13 0.51 1.96zm41.52 -8l-0.49 0.13 -0.51 -1.96 0.49 -0.13 0.51 1.96zm-40.5 11.92l-0.49 0.13 -0.51 -1.96 0.49 -0.13 0.51 1.96zm41.52 -8l-0.49 0.13 -0.51 -1.96 0.49 -0.13 0.51 1.96zm-40.5 11.93l-0.49 0.12 -0.51 -1.96 0.49 -0.12 0.51 1.96zm41.5 -7.97l-0.5 0.07c-0.02,-0.13 -0.04,-0.26 -0.08,-0.4l-0.4 -1.54 0.49 -0.13 0.4 1.55c0.04,0.15 0.07,0.3 0.09,0.45zm-40.53 11.95c-0.42,-0.47 -0.73,-1.04 -0.89,-1.66l-0.06 -0.23 0.49 -0.13 0.06 0.24c0.14,0.54 0.4,1.03 0.78,1.44l-0.38 0.34zm38.9 -8.17l-0.3 -0.41c0.52,-0.37 0.92,-0.87 1.18,-1.45l0.46 0.2c-0.29,0.67 -0.75,1.24 -1.34,1.66zm-33.33 8.93l-1.62 0.42c-0.71,0.19 -1.44,0.17 -2.14,-0.04l0.15 -0.48c0.6,0.18 1.25,0.19 1.86,0.03l1.62 -0.42 0.13 0.49zm3.92 -1.02l-1.96 0.51 -0.13 -0.49 1.96 -0.51 0.13 0.49zm3.92 -1.02l-1.96 0.51 -0.13 -0.49 1.96 -0.51 0.13 0.49zm3.92 -1.02l-1.96 0.51 -0.13 -0.49 1.97 -0.51 0.12 0.49zm3.93 -1.02l-1.97 0.51 -0.12 -0.49 1.96 -0.51 0.13 0.49zm3.92 -1.02l-1.96 0.52 -0.13 -0.5 1.96 -0.51 0.13 0.49zm3.92 -1.01l-1.96 0.5 -0.13 -0.49 1.96 -0.5 0.13 0.49zm3.92 -1.02l-1.96 0.51 -0.13 -0.49 1.97 -0.52 0.12 0.5zm3.93 -1.02l-1.97 0.51 -0.12 -0.49 1.96 -0.51 0.13 0.49z"/>
     </g>
     <path class="fil9" d="M292.77 142.37c-2.05,0.93 -4.48,0.02 -5.41,-2.04 -0.93,-2.06 -0.01,-4.48 2.04,-5.41 2.06,-0.93 4.48,-0.02 5.42,2.04 0.93,2.06 0.01,4.48 -2.05,5.41zm20.88 -7.74l-16.48 -7.49c-1.68,-0.77 -3.61,-0.77 -5.3,-0.01l-4.97 2.25 -4.97 2.25c-1.69,0.76 -2.96,2.21 -3.5,3.98l-5.26 17.31c-0.45,1.49 -0.35,3.1 0.29,4.51l28.76 63.61c1.45,3.23 5.26,4.67 8.48,3.21l31.69 -14.32c3.23,-1.46 4.66,-5.26 3.2,-8.49l-28.75 -63.61c-0.64,-1.42 -1.78,-2.56 -3.19,-3.2z"/>
     <path class="fil10" d="M316.84 137.09c-0.64,-1.42 -1.78,-2.56 -3.19,-3.2l-9 -4.09 -28.35 33.16 7.51 16.62 34.17 -39.97 -1.14 -2.52z"/>
     <polygon class="fil10" points="321.46,147.31 287.29,187.28 292.02,197.75 326.19,157.77 "/>
     <path class="fil6" d="M286.58 132.03l-1.85 0.83 -0.21 -0.46 1.85 -0.84 0.21 0.47zm3.69 -1.67l-1.84 0.83 -0.21 -0.46 1.84 -0.84 0.21 0.47zm3.67 -1.54c-0.29,0.05 -0.58,0.14 -0.85,0.26l-0.97 0.44 -0.21 -0.46 0.97 -0.44c0.31,-0.14 0.64,-0.24 0.98,-0.3l0.08 0.5zm-12.37 6.18l-0.43 -0.25c0.36,-0.63 0.89,-1.15 1.52,-1.5l0.25 0.45c-0.56,0.3 -1.02,0.75 -1.34,1.3zm16.06 -5.15l-1.68 -0.76 -0.15 -0.07 0.19 -0.47 0.17 0.08 1.68 0.76 -0.21 0.46zm-17.3 8.94l-0.49 -0.15 0.59 -1.94 0.49 0.15 -0.59 1.94zm20.99 -7.26l-1.84 -0.84 0.21 -0.46 1.84 0.84 -0.21 0.46zm-22.17 11.14l-0.48 -0.15 0.58 -1.94 0.49 0.15 -0.59 1.94zm25.86 -9.46l-1.84 -0.84 0.21 -0.46 1.84 0.84 -0.21 0.46zm-27.04 13.33l-0.48 -0.14 0.59 -1.94 0.48 0.15 -0.59 1.93zm30.73 -11.65l-1.84 -0.84 0.21 -0.46 1.84 0.83 -0.21 0.47zm-31.91 15.53l-0.48 -0.14 0.59 -1.94 0.48 0.14 -0.59 1.94zm35.6 -13.86l-1.84 -0.84 0.21 -0.46 1.84 0.84 -0.21 0.46zm-36.54 17.69l-0.5 0.03c-0.03,-0.47 0.02,-0.93 0.16,-1.38l0.21 -0.69 0.48 0.15 -0.2 0.68c-0.12,0.4 -0.17,0.8 -0.15,1.21zm39.31 -14.93l-0.46 0.21 -0.55 -1.23c-0.09,-0.19 -0.2,-0.38 -0.32,-0.55l0.42 -0.29c0.14,0.2 0.26,0.41 0.36,0.63l0.55 1.23zm-37.9 18.61l-0.46 0.21 -0.83 -1.85 0.46 -0.21 0.83 1.85zm39.57 -14.92l-0.46 0.21 -0.84 -1.85 0.46 -0.2 0.84 1.84zm-37.9 18.61l-0.46 0.21 -0.83 -1.85 0.46 -0.2 0.83 1.84zm39.57 -14.92l-0.46 0.21 -0.84 -1.84 0.46 -0.21 0.84 1.84zm-37.9 18.62l-0.46 0.2 -0.83 -1.84 0.46 -0.21 0.83 1.85zm39.57 -14.92l-0.46 0.21 -0.84 -1.85 0.46 -0.21 0.84 1.85zm-37.9 18.61l-0.46 0.21 -0.84 -1.85 0.47 -0.21 0.83 1.85zm39.57 -14.92l-0.46 0.21 -0.84 -1.85 0.46 -0.21 0.84 1.85zm-37.9 18.61l-0.46 0.21 -0.84 -1.85 0.47 -0.2 0.83 1.84zm39.57 -14.92l-0.46 0.21 -0.84 -1.84 0.46 -0.21 0.84 1.84zm-37.9 18.61l-0.46 0.21 -0.84 -1.84 0.47 -0.21 0.83 1.84zm39.57 -14.91l-0.47 0.21 -0.83 -1.85 0.46 -0.21 0.84 1.85zm-37.9 18.61l-0.46 0.21 -0.84 -1.85 0.46 -0.21 0.84 1.85zm39.57 -14.92l-0.47 0.21 -0.83 -1.85 0.46 -0.21 0.84 1.85zm-37.9 18.61l-0.46 0.21 -0.84 -1.85 0.46 -0.21 0.84 1.85zm39.57 -14.92l-0.47 0.21 -0.83 -1.84 0.46 -0.21 0.84 1.84zm-37.9 18.61l-0.46 0.21 -0.84 -1.84 0.46 -0.21 0.84 1.84zm39.56 -14.91l-0.46 0.2 -0.83 -1.84 0.46 -0.21 0.83 1.85zm-37.89 18.61l-0.46 0.21 -0.84 -1.85 0.46 -0.21 0.84 1.85zm39.56 -14.92l-0.46 0.21 -0.83 -1.85 0.46 -0.21 0.83 1.85zm-37.89 18.61l-0.47 0.21 -0.83 -1.85 0.46 -0.21 0.84 1.85zm39.56 -14.92l-0.46 0.21 -0.83 -1.85 0.46 -0.2 0.83 1.84zm-37.89 18.61l-0.47 0.21 -0.83 -1.84 0.46 -0.21 0.84 1.84zm39.56 -14.92l-0.46 0.21 -0.83 -1.84 0.46 -0.21 0.83 1.84zm-37.89 18.62l-0.47 0.2 -0.83 -1.84 0.46 -0.21 0.84 1.85zm39.56 -14.92l-0.46 0.21 -0.83 -1.85 0.46 -0.21 0.83 1.85zm-37.9 18.61l-0.46 0.21 -0.83 -1.85 0.46 -0.21 0.83 1.85zm39.57 -14.92l-0.46 0.21 -0.84 -1.85 0.47 -0.21 0.83 1.85zm-37.9 18.61l-0.46 0.21 -0.83 -1.85 0.46 -0.2 0.83 1.84zm39.57 -14.92l-0.46 0.21 -0.84 -1.84 0.47 -0.21 0.83 1.84zm-37.9 18.61l-0.46 0.21 -0.83 -1.84 0.46 -0.21 0.83 1.84zm39.57 -14.91l-0.46 0.21 -0.84 -1.85 0.46 -0.21 0.84 1.85zm-37.9 18.61l-0.46 0.21 -0.83 -1.85 0.46 -0.21 0.83 1.85zm39.56 -14.88l-0.49 0.15c-0.04,-0.13 -0.08,-0.25 -0.14,-0.38l-0.66 -1.45 0.46 -0.21 0.66 1.46c0.06,0.14 0.12,0.28 0.17,0.43zm-37.92 18.64c-0.5,-0.39 -0.9,-0.9 -1.16,-1.48l-0.1 -0.23 0.46 -0.21 0.1 0.23c0.23,0.51 0.57,0.95 1.01,1.29l-0.31 0.4zm36.95 -14.64l-0.36 -0.36c0.44,-0.45 0.76,-1.01 0.91,-1.63l0.49 0.12c-0.17,0.71 -0.53,1.36 -1.04,1.87zm-31.34 14.45l-1.52 0.69c-0.67,0.3 -1.4,0.41 -2.12,0.32l0.06 -0.5c0.63,0.07 1.27,-0.02 1.85,-0.28l1.52 -0.69 0.21 0.46zm3.69 -1.67l-1.84 0.83 -0.21 -0.46 1.84 -0.83 0.21 0.46zm3.69 -1.67l-1.84 0.83 -0.21 -0.46 1.85 -0.83 0.2 0.46zm3.7 -1.67l-1.85 0.83 -0.21 -0.46 1.85 -0.83 0.21 0.46zm3.69 -1.67l-1.85 0.84 -0.2 -0.47 1.84 -0.83 0.21 0.46zm3.69 -1.67l-1.84 0.84 -0.21 -0.46 1.85 -0.84 0.2 0.46zm3.7 -1.67l-1.85 0.84 -0.21 -0.46 1.85 -0.84 0.21 0.46zm3.69 -1.67l-1.85 0.84 -0.2 -0.46 1.84 -0.84 0.21 0.46zm3.69 -1.67l-1.84 0.84 -0.21 -0.46 1.84 -0.84 0.21 0.46z"/>
     <g>
      <path class="fil11" d="M294.21 141.99c-1.87,1.27 -4.41,0.78 -5.68,-1.09 -1.27,-1.87 -0.78,-4.41 1.09,-5.68 1.87,-1.27 4.41,-0.78 5.68,1.09 1.27,1.87 0.78,4.41 -1.09,5.68zm19.25 -11.19l-17.52 -4.57c-1.78,-0.47 -3.69,-0.14 -5.22,0.9l-4.51 3.06 -4.52 3.06c-1.53,1.04 -2.54,2.69 -2.76,4.52l-2.23 17.96c-0.2,1.55 0.18,3.11 1.05,4.4l39.19 57.77c1.99,2.93 5.98,3.7 8.91,1.71l28.78 -19.52c2.93,-1.99 3.7,-5.98 1.71,-8.91l-39.19 -57.78c-0.88,-1.28 -2.19,-2.21 -3.69,-2.6z"/>
      <path class="fil12" d="M317.15 133.4c-0.88,-1.28 -2.19,-2.21 -3.69,-2.6l-9.57 -2.5 -22.27 37.52 10.24 15.1 26.84 -45.22 -1.55 -2.3z"/>
      <polygon class="fil13" points="323.44,142.69 296.6,187.91 303.04,197.41 329.89,152.19 "/>
      <path class="fil6" d="M286.47 133.58l-1.68 1.14 -0.28 -0.42 1.68 -1.14 0.28 0.42zm3.35 -2.27l-1.67 1.14 -0.29 -0.42 1.68 -1.14 0.28 0.42zm3.36 -2.14c-0.28,0.1 -0.55,0.23 -0.8,0.4l-0.88 0.6 -0.28 -0.42 0.88 -0.6c0.28,-0.19 0.59,-0.34 0.91,-0.46l0.17 0.48zm-11.13 8.2l-0.48 -0.18c0.25,-0.68 0.68,-1.28 1.25,-1.73l0.32 0.4c-0.5,0.39 -0.88,0.91 -1.09,1.51zm14.94 -7.81l-1.79 -0.47 -0.16 -0.04 0.11 -0.49 0.18 0.04 1.79 0.47 -0.13 0.49zm-15.52 11.75l-0.51 -0.06 0.25 -2.01 0.5 0.06 -0.24 2.01zm19.44 -10.73l-1.96 -0.51 0.13 -0.49 1.96 0.51 -0.13 0.49zm-19.94 14.76l-0.51 -0.07 0.25 -2.01 0.51 0.06 -0.25 2.02zm23.86 -13.74l-1.96 -0.51 0.13 -0.49 1.96 0.51 -0.13 0.49zm-24.36 17.76l-0.51 -0.07 0.25 -2.01 0.51 0.07 -0.25 2.01zm28.29 -16.73l-1.97 -0.52 0.13 -0.49 1.96 0.51 -0.12 0.5zm-28.79 20.75l-0.51 -0.06 0.25 -2.01 0.51 0.06 -0.25 2.01zm32.71 -19.73l-1.96 -0.51 0.12 -0.49 1.97 0.51 -0.13 0.49zm-32.99 23.66l-0.49 0.12c-0.11,-0.46 -0.13,-0.93 -0.07,-1.4l0.08 -0.7 0.51 0.06 -0.09 0.71c-0.05,0.41 -0.03,0.81 0.06,1.21zm36.19 -21.42l-0.42 0.29 -0.76 -1.12c-0.12,-0.17 -0.25,-0.34 -0.4,-0.49l0.36 -0.35c0.17,0.17 0.33,0.36 0.46,0.56l0.76 1.11zm-34.17 24.81l-0.42 0.28 -1.14 -1.68 0.42 -0.28 1.14 1.68zm36.44 -21.46l-0.42 0.29 -1.14 -1.68 0.42 -0.28 1.14 1.67zm-34.16 24.81l-0.42 0.28 -1.14 -1.67 0.42 -0.29 1.14 1.68zm36.44 -21.45l-0.42 0.28 -1.14 -1.67 0.42 -0.29 1.14 1.68zm-34.17 24.8l-0.42 0.29 -1.14 -1.68 0.42 -0.28 1.14 1.67zm36.44 -21.45l-0.42 0.29 -1.14 -1.68 0.42 -0.28 1.14 1.67zm-34.16 24.81l-0.42 0.28 -1.14 -1.67 0.42 -0.29 1.14 1.68zm36.44 -21.45l-0.42 0.28 -1.14 -1.68 0.42 -0.28 1.14 1.68zm-34.17 24.8l-0.42 0.29 -1.14 -1.68 0.42 -0.28 1.14 1.67zm36.44 -21.45l-0.42 0.28 -1.14 -1.67 0.42 -0.29 1.14 1.68zm-34.16 24.81l-0.42 0.28 -1.14 -1.68 0.42 -0.28 1.14 1.68zm36.44 -21.46l-0.42 0.29 -1.14 -1.68 0.42 -0.28 1.14 1.67zm-34.17 24.81l-0.42 0.28 -1.14 -1.67 0.42 -0.29 1.14 1.68zm36.44 -21.45l-0.42 0.28 -1.13 -1.67 0.41 -0.29 1.14 1.68zm-34.16 24.8l-0.42 0.29 -1.14 -1.68 0.42 -0.28 1.14 1.67zm36.44 -21.45l-0.42 0.29 -1.14 -1.68 0.42 -0.28 1.14 1.67zm-34.17 24.81l-0.42 0.28 -1.14 -1.67 0.42 -0.29 1.14 1.68zm36.44 -21.45l-0.42 0.28 -1.13 -1.68 0.41 -0.28 1.14 1.68zm-34.16 24.8l-0.42 0.29 -1.14 -1.68 0.42 -0.29 1.14 1.68zm36.44 -21.45l-0.42 0.29 -1.14 -1.68 0.42 -0.29 1.14 1.68zm-34.17 24.81l-0.42 0.28 -1.14 -1.68 0.42 -0.28 1.14 1.68zm36.44 -21.46l-0.42 0.29 -1.13 -1.68 0.41 -0.28 1.14 1.67zm-34.16 24.81l-0.42 0.28 -1.14 -1.67 0.42 -0.29 1.14 1.68zm36.44 -21.45l-0.42 0.28 -1.14 -1.67 0.42 -0.29 1.14 1.68zm-34.17 24.8l-0.42 0.29 -1.13 -1.68 0.41 -0.28 1.14 1.67zm36.44 -21.45l-0.42 0.29 -1.13 -1.68 0.41 -0.28 1.14 1.67zm-34.16 24.81l-0.42 0.28 -1.14 -1.67 0.42 -0.29 1.14 1.68zm36.44 -21.45l-0.42 0.28 -1.14 -1.68 0.42 -0.28 1.14 1.68zm-34.17 24.8l-0.42 0.29 -1.13 -1.68 0.41 -0.29 1.14 1.68zm36.44 -21.45l-0.42 0.28 -1.13 -1.67 0.42 -0.29 1.13 1.68zm-34.16 24.81l-0.42 0.28 -1.14 -1.68 0.42 -0.28 1.14 1.68zm36.44 -21.46l-0.42 0.29 -1.14 -1.68 0.42 -0.28 1.14 1.67zm-34.17 24.81l-0.42 0.28 -1.13 -1.67 0.41 -0.29 1.14 1.68zm36.44 -21.41l-0.45 0.23c-0.06,-0.12 -0.13,-0.23 -0.21,-0.35l-0.89 -1.31 0.41 -0.29 0.9 1.32c0.09,0.13 0.17,0.26 0.24,0.4zm-34.18 24.84c-0.56,-0.3 -1.04,-0.74 -1.4,-1.27l-0.14 -0.2 0.42 -0.28 0.14 0.2c0.31,0.47 0.72,0.84 1.22,1.1l-0.24 0.45zm33.91 -20.73l-0.42 -0.29c0.36,-0.52 0.58,-1.13 0.62,-1.76l0.5 0.03c-0.04,0.72 -0.29,1.42 -0.7,2.02zm-28.42 19.58l-1.38 0.94c-0.6,0.41 -1.3,0.64 -2.03,0.68l-0.02 -0.51c0.63,-0.03 1.24,-0.23 1.76,-0.59l1.39 -0.94 0.28 0.42zm3.36 -2.27l-1.68 1.13 -0.29 -0.42 1.68 -1.13 0.29 0.42zm3.35 -2.28l-1.68 1.14 -0.28 -0.42 1.68 -1.14 0.28 0.42zm3.35 -2.27l-1.67 1.13 -0.29 -0.42 1.68 -1.13 0.28 0.42zm3.36 -2.28l-1.68 1.14 -0.28 -0.42 1.67 -1.14 0.29 0.42zm3.35 -2.27l-1.68 1.13 -0.28 -0.42 1.68 -1.13 0.28 0.42zm3.36 -2.28l-1.68 1.14 -0.29 -0.42 1.68 -1.14 0.29 0.42zm3.35 -2.27l-1.68 1.13 -0.28 -0.42 1.68 -1.13 0.28 0.42zm3.35 -2.28l-1.67 1.14 -0.29 -0.42 1.68 -1.14 0.28 0.42z"/>
     </g>
     <path class="fil14" d="M294.33 141.53c-1.64,1.54 -4.23,1.46 -5.78,-0.18 -1.54,-1.65 -1.46,-4.24 0.18,-5.78 1.65,-1.55 4.24,-1.47 5.79,0.18 1.54,1.64 1.46,4.23 -0.19,5.78zm17.25 -14.08l-18.02 -1.76c-1.84,-0.18 -3.66,0.44 -5.01,1.71l-3.98 3.73 -3.98 3.74c-1.34,1.26 -2.08,3.05 -2.02,4.9l0.63 18.08c0.05,1.56 0.67,3.04 1.73,4.18l47.79 50.88c2.43,2.59 6.49,2.71 9.07,0.29l25.35 -23.8c2.58,-2.43 2.71,-6.49 0.28,-9.07l-47.79 -50.89c-1.06,-1.13 -2.5,-1.84 -4.05,-1.99z"/>
     <path class="fil15" d="M315.63 129.44c-1.06,-1.13 -2.5,-1.84 -4.05,-1.99l-9.84 -0.96 -16.1 40.55 12.49 13.3 19.4 -48.88 -1.9 -2.02z"/>
     <polygon class="fil16" points="323.31,137.62 303.91,186.5 311.77,194.87 331.17,145.99 "/>
     <path class="fil6" d="M285.36 134.44l-1.47 1.39 -0.35 -0.37 1.48 -1.39 0.34 0.37zm2.96 -2.77l-1.48 1.38 -0.35 -0.36 1.48 -1.39 0.35 0.37zm2.98 -2.64c-0.27,0.14 -0.51,0.32 -0.73,0.52l-0.77 0.73 -0.35 -0.37 0.77 -0.73c0.26,-0.23 0.54,-0.43 0.84,-0.6l0.24 0.45zm-9.71 9.84l-0.5 -0.09c0.14,-0.72 0.48,-1.38 0.97,-1.91l0.37 0.34c-0.43,0.47 -0.72,1.04 -0.84,1.66zm13.53 -10.06l-1.84 -0.18 -0.16 -0.01 0.02 -0.51 0.19 0.02 1.84 0.18 -0.05 0.5zm-13.48 14.05l-0.51 0.02 -0.07 -2.02 0.51 -0.02 0.07 2.02zm17.51 -13.66l-2.01 -0.19 0.05 -0.51 2.01 0.2 -0.05 0.5zm-17.37 17.71l-0.51 0.02 -0.07 -2.02 0.51 -0.02 0.07 2.02zm21.41 -17.31l-2.02 -0.2 0.05 -0.5 2.02 0.19 -0.05 0.51zm-21.27 21.36l-0.51 0.02 -0.07 -2.02 0.51 -0.02 0.07 2.02zm25.3 -20.97l-2.01 -0.2 0.04 -0.5 2.02 0.2 -0.05 0.5zm-25.16 25.03l-0.51 0.01 -0.07 -2.02 0.51 -0.02 0.07 2.03zm29.2 -24.64l-2.02 -0.19 0.05 -0.51 2.02 0.2 -0.05 0.5zm-28.85 28.56l-0.47 0.19c-0.18,-0.43 -0.28,-0.89 -0.3,-1.36l-0.02 -0.71 0.5 -0.02 0.03 0.71c0.01,0.41 0.1,0.81 0.26,1.19zm32.36 -26.85l-0.37 0.35 -0.92 -0.98c-0.15,-0.15 -0.31,-0.29 -0.48,-0.42l0.3 -0.41c0.2,0.15 0.38,0.31 0.55,0.49l0.92 0.97zm-29.84 29.88l-0.37 0.34 -1.39 -1.47 0.37 -0.35 1.39 1.48zm32.61 -26.92l-0.37 0.35 -1.38 -1.48 0.36 -0.35 1.39 1.48zm-29.84 29.87l-0.37 0.35 -1.38 -1.48 0.37 -0.35 1.38 1.48zm32.62 -26.92l-0.37 0.35 -1.39 -1.48 0.37 -0.34 1.39 1.47zm-29.84 29.87l-0.37 0.35 -1.39 -1.48 0.37 -0.34 1.39 1.47zm32.61 -26.91l-0.37 0.34 -1.39 -1.47 0.37 -0.35 1.39 1.48zm-29.84 29.87l-0.37 0.35 -1.38 -1.48 0.37 -0.35 1.38 1.48zm32.61 -26.92l-0.36 0.35 -1.39 -1.48 0.37 -0.35 1.38 1.48zm-29.83 29.87l-0.37 0.35 -1.39 -1.48 0.37 -0.34 1.39 1.47zm32.61 -26.91l-0.37 0.34 -1.39 -1.47 0.37 -0.35 1.39 1.48zm-29.84 29.87l-0.37 0.34 -1.38 -1.47 0.36 -0.35 1.39 1.48zm32.61 -26.92l-0.37 0.35 -1.38 -1.48 0.37 -0.35 1.38 1.48zm-29.83 29.87l-0.37 0.35 -1.39 -1.48 0.37 -0.35 1.39 1.48zm32.61 -26.91l-0.37 0.34 -1.39 -1.48 0.37 -0.34 1.39 1.48zm-29.84 29.87l-0.37 0.34 -1.39 -1.47 0.37 -0.35 1.39 1.48zm32.61 -26.92l-0.37 0.35 -1.38 -1.48 0.37 -0.35 1.38 1.48zm-29.83 29.87l-0.37 0.35 -1.39 -1.48 0.37 -0.35 1.39 1.48zm32.61 -26.92l-0.37 0.35 -1.39 -1.48 0.37 -0.34 1.39 1.47zm-29.84 29.88l-0.37 0.34 -1.39 -1.48 0.37 -0.34 1.39 1.48zm32.61 -26.92l-0.37 0.35 -1.38 -1.48 0.36 -0.35 1.39 1.48zm-29.84 29.87l-0.37 0.35 -1.38 -1.48 0.37 -0.35 1.38 1.48zm32.62 -26.92l-0.37 0.35 -1.39 -1.48 0.37 -0.34 1.39 1.47zm-29.84 29.87l-0.37 0.35 -1.39 -1.48 0.37 -0.34 1.39 1.47zm32.61 -26.91l-0.37 0.34 -1.39 -1.47 0.37 -0.35 1.39 1.48zm-29.84 29.87l-0.37 0.34 -1.38 -1.47 0.37 -0.35 1.38 1.48zm32.61 -26.92l-0.36 0.35 -1.39 -1.48 0.37 -0.35 1.38 1.48zm-29.83 29.87l-0.37 0.35 -1.39 -1.48 0.37 -0.35 1.39 1.48zm32.61 -26.91l-0.37 0.34 -1.39 -1.47 0.37 -0.35 1.39 1.48zm-29.84 29.87l-0.37 0.34 -1.39 -1.47 0.37 -0.35 1.39 1.48zm32.61 -26.92l-0.37 0.35 -1.38 -1.48 0.37 -0.35 1.38 1.48zm-29.83 29.87l-0.37 0.35 -1.39 -1.48 0.37 -0.35 1.39 1.48zm32.61 -26.92l-0.37 0.35 -1.39 -1.48 0.37 -0.34 1.39 1.47zm-29.84 29.88l-0.37 0.34 -1.39 -1.47 0.37 -0.35 1.39 1.48zm32.61 -26.88l-0.41 0.3c-0.07,-0.11 -0.16,-0.21 -0.25,-0.31l-1.09 -1.16 0.36 -0.35 1.1 1.16c0.1,0.12 0.2,0.23 0.29,0.36zm-29.84 29.9c-0.6,-0.2 -1.15,-0.56 -1.58,-1.02l-0.17 -0.18 0.37 -0.35 0.16 0.18c0.39,0.41 0.85,0.71 1.38,0.9l-0.16 0.47zm30.22 -25.8l-0.46 -0.22c0.28,-0.57 0.4,-1.21 0.34,-1.84l0.5 -0.04c0.07,0.72 -0.06,1.45 -0.38,2.1zm-24.98 23.81l-1.22 1.14c-0.53,0.5 -1.18,0.84 -1.89,0.99l-0.11 -0.49c0.62,-0.13 1.19,-0.43 1.66,-0.86l1.21 -1.15 0.35 0.37zm2.96 -2.77l-1.48 1.38 -0.35 -0.37 1.48 -1.38 0.35 0.37zm2.95 -2.78l-1.48 1.39 -0.34 -0.37 1.47 -1.39 0.35 0.37zm2.96 -2.77l-1.48 1.38 -0.35 -0.37 1.48 -1.38 0.35 0.37zm2.95 -2.78l-1.48 1.39 -0.35 -0.37 1.48 -1.39 0.35 0.37zm2.95 -2.77l-1.47 1.38 -0.35 -0.36 1.48 -1.39 0.34 0.37zm2.96 -2.78l-1.48 1.39 -0.35 -0.37 1.48 -1.39 0.35 0.37zm2.95 -2.77l-1.48 1.39 -0.34 -0.37 1.48 -1.39 0.34 0.37zm2.96 -2.78l-1.48 1.39 -0.35 -0.37 1.48 -1.38 0.35 0.36z"/>
     <g>
      <path class="fil17" d="M294.84 140.9c-1.39,1.74 -3.94,2.03 -5.69,0.64 -1.74,-1.39 -2.03,-3.94 -0.64,-5.68 1.4,-1.75 3.94,-2.04 5.69,-0.64 1.74,1.39 2.03,3.93 0.64,5.68zm14.88 -16.23l-17.88 0.84c-1.83,0.08 -3.53,0.95 -4.67,2.38l-3.36 4.22 -3.36 4.22c-1.14,1.43 -1.61,3.28 -1.28,5.08l3.17 17.61c0.27,1.52 1.08,2.88 2.29,3.84l53.98 43.03c2.74,2.18 6.73,1.73 8.91,-1.01l21.44 -26.89c2.18,-2.74 1.73,-6.73 -1.01,-8.91l-53.98 -43.03c-1.2,-0.96 -2.72,-1.45 -4.25,-1.38z"/>
      <path class="fil18" d="M313.97 126.05c-1.2,-0.96 -2.72,-1.45 -4.25,-1.38l-9.77 0.46 -10 41.97 14.1 11.24 12.06 -50.58 -2.14 -1.71z"/>
      <polygon class="fil19" points="322.64,132.96 310.58,183.55 319.46,190.63 331.52,140.04 "/>
      <path class="fil6" d="M285.06 135.24l-1.25 1.56 -0.4 -0.31 1.25 -1.57 0.4 0.32zm2.49 -3.14l-1.25 1.57 -0.39 -0.31 1.25 -1.57 0.39 0.31zm2.54 -3c-0.23,0.17 -0.45,0.38 -0.63,0.61l-0.66 0.82 -0.39 -0.31 0.66 -0.82c0.21,-0.27 0.45,-0.5 0.73,-0.7l0.29 0.4zm-8.1 11.01l-0.5 -0.03c0.04,-0.71 0.27,-1.41 0.67,-2l0.42 0.28c-0.35,0.52 -0.56,1.12 -0.59,1.75zm11.82 -11.77l-1.83 0.09 -0.16 0.01 -0.05 -0.5 0.18 -0.01 1.83 -0.09 0.03 0.5zm-11.21 15.66l-0.49 0.09 -0.36 -1.97 0.5 -0.09 0.35 1.97zm15.21 -15.85l-2 0.1 -0.03 -0.5 2.01 -0.1 0.02 0.5zm-14.5 19.8l-0.49 0.09 -0.36 -1.97 0.5 -0.09 0.35 1.97zm18.5 -19.98l-2 0.09 -0.02 -0.5 2 -0.09 0.02 0.5zm-17.79 23.92l-0.49 0.09 -0.35 -1.97 0.49 -0.09 0.35 1.97zm21.8 -24.11l-2.01 0.09 -0.02 -0.5 2 -0.09 0.03 0.5zm-21.09 28.06l-0.49 0.09 -0.35 -1.98 0.49 -0.08 0.35 1.97zm25.09 -28.25l-2 0.1 -0.03 -0.5 2.01 -0.1 0.02 0.5zm-24.19 32.04l-0.43 0.26c-0.23,-0.4 -0.4,-0.84 -0.48,-1.3l-0.12 -0.69 0.49 -0.09 0.12 0.69c0.08,0.4 0.22,0.78 0.42,1.13zm27.87 -30.86l-0.31 0.39 -1.04 -0.83c-0.17,-0.13 -0.34,-0.24 -0.53,-0.34l0.24 -0.44c0.21,0.11 0.41,0.24 0.6,0.39l1.04 0.83zm-24.97 33.46l-0.31 0.39 -1.57 -1.24 0.31 -0.4 1.57 1.25zm28.1 -30.96l-0.31 0.39 -1.57 -1.25 0.32 -0.39 1.56 1.25zm-24.96 33.46l-0.32 0.39 -1.56 -1.25 0.31 -0.39 1.57 1.25zm28.1 -30.96l-0.32 0.39 -1.56 -1.25 0.31 -0.39 1.57 1.25zm-24.97 33.46l-0.31 0.39 -1.57 -1.25 0.31 -0.39 1.57 1.25zm28.1 -30.97l-0.31 0.4 -1.57 -1.25 0.31 -0.39 1.57 1.24zm-24.97 33.47l-0.31 0.39 -1.57 -1.25 0.32 -0.39 1.56 1.25zm28.1 -30.97l-0.31 0.39 -1.57 -1.24 0.32 -0.4 1.56 1.25zm-24.96 33.46l-0.31 0.4 -1.57 -1.25 0.31 -0.39 1.57 1.24zm28.1 -30.96l-0.31 0.39 -1.57 -1.25 0.31 -0.39 1.57 1.25zm-24.97 33.46l-0.31 0.39 -1.57 -1.24 0.31 -0.4 1.57 1.25zm28.1 -30.96l-0.31 0.39 -1.57 -1.25 0.31 -0.39 1.57 1.25zm-24.97 33.46l-0.31 0.39 -1.56 -1.25 0.31 -0.39 1.56 1.25zm28.11 -30.96l-0.32 0.39 -1.56 -1.25 0.31 -0.39 1.57 1.25zm-24.97 33.46l-0.31 0.39 -1.57 -1.25 0.31 -0.39 1.57 1.25zm28.1 -30.97l-0.31 0.4 -1.57 -1.25 0.31 -0.39 1.57 1.24zm-24.97 33.47l-0.31 0.39 -1.57 -1.25 0.32 -0.39 1.56 1.25zm28.1 -30.97l-0.31 0.39 -1.57 -1.24 0.32 -0.4 1.56 1.25zm-24.96 33.46l-0.32 0.4 -1.56 -1.25 0.31 -0.39 1.57 1.24zm28.1 -30.96l-0.32 0.39 -1.56 -1.25 0.31 -0.39 1.57 1.25zm-24.97 33.46l-0.31 0.39 -1.57 -1.24 0.31 -0.4 1.57 1.25zm28.1 -30.96l-0.31 0.39 -1.57 -1.25 0.31 -0.39 1.57 1.25zm-24.97 33.46l-0.31 0.39 -1.56 -1.25 0.31 -0.39 1.56 1.25zm28.1 -30.96l-0.31 0.39 -1.56 -1.25 0.31 -0.39 1.56 1.25zm-24.96 33.46l-0.31 0.39 -1.57 -1.25 0.31 -0.39 1.57 1.25zm28.1 -30.97l-0.31 0.4 -1.57 -1.25 0.31 -0.39 1.57 1.24zm-24.97 33.47l-0.31 0.39 -1.57 -1.25 0.31 -0.39 1.57 1.25zm28.1 -30.97l-0.31 0.39 -1.57 -1.24 0.32 -0.4 1.56 1.25zm-24.96 33.46l-0.32 0.4 -1.56 -1.25 0.31 -0.39 1.57 1.24zm28.1 -30.96l-0.32 0.39 -1.56 -1.25 0.31 -0.39 1.57 1.25zm-24.97 33.46l-0.31 0.39 -1.57 -1.24 0.31 -0.4 1.57 1.25zm28.1 -30.96l-0.31 0.39 -1.57 -1.25 0.31 -0.39 1.57 1.25zm-24.97 33.46l-0.31 0.39 -1.57 -1.25 0.32 -0.39 1.56 1.25zm28.11 -30.93l-0.36 0.36c-0.09,-0.1 -0.19,-0.18 -0.29,-0.27l-1.24 -0.98 0.32 -0.39 1.23 0.98c0.12,0.1 0.23,0.2 0.34,0.3zm-24.97 33.5c-0.61,-0.12 -1.2,-0.39 -1.69,-0.78l-0.19 -0.15 0.31 -0.39 0.19 0.15c0.44,0.35 0.93,0.58 1.48,0.68l-0.1 0.49zm25.92 -29.54l-0.48 -0.15c0.19,-0.59 0.22,-1.23 0.07,-1.84l0.49 -0.12c0.16,0.7 0.14,1.43 -0.08,2.11zm-21.07 26.85l-1.03 1.29c-0.45,0.56 -1.04,0.99 -1.71,1.23l-0.18 -0.47c0.59,-0.21 1.11,-0.58 1.5,-1.07l1.03 -1.3 0.39 0.32zm2.5 -3.14l-1.25 1.57 -0.39 -0.31 1.25 -1.57 0.39 0.31zm2.5 -3.13l-1.25 1.57 -0.39 -0.32 1.25 -1.56 0.39 0.31zm2.5 -3.13l-1.25 1.56 -0.4 -0.31 1.25 -1.57 0.4 0.32zm2.49 -3.14l-1.25 1.57 -0.39 -0.31 1.25 -1.57 0.39 0.31zm2.5 -3.13l-1.25 1.56 -0.39 -0.31 1.25 -1.56 0.39 0.31zm2.5 -3.14l-1.25 1.57 -0.39 -0.31 1.25 -1.57 0.39 0.31zm2.5 -3.13l-1.25 1.57 -0.39 -0.32 1.25 -1.56 0.39 0.31zm2.5 -3.13l-1.25 1.56 -0.4 -0.31 1.25 -1.57 0.4 0.32z"/>
     </g>
     <path class="fil20" d="M260.31 119.29c-1.1,-5.13 1.81,-10.26 6.61,-11.68 4.91,-1.45 10.14,1.15 13.16,4.37 6.48,6.93 10.13,16.16 12.05,22.69 0.08,0.27 -0.07,0.55 -0.34,0.63 -0.27,0.08 -0.55,-0.07 -0.63,-0.34 -2.67,-9.08 -6.87,-16.99 -11.82,-22.29 -2.8,-2.99 -7.64,-5.42 -12.13,-4.09 -4.3,1.28 -6.9,5.89 -5.91,10.5 1.22,5.7 6.55,9.33 10.46,11.57 3.14,1.79 3.7,2.14 6.9,3.59l-0.33 0.97c-3.15,-1.44 -3.98,-1.91 -7.07,-3.68 -4.08,-2.33 -9.65,-6.14 -10.95,-12.24z"/>
     <path class="fil21" d="M152.16 118.28c3.51,3.65 6.84,2.75 9.94,0.02 0.77,-36.13 -2.02,-80.93 47.43,-85.7 57.04,-0.48 53.11,47.39 52.73,86.9 3.11,2.12 6.89,2.6 9.77,-0.23 -0.99,-30.72 5.08,-64.09 -24.81,-87.04 -10.8,-9.62 -42.94,-14.26 -59.47,-5.99 -41.41,22.14 -35.69,52.01 -35.59,92.04z"/>
     <path class="fil22" d="M117.66 296.65c0,0 0,0 0,0 0,0 0,0 0,0l4.28 0c6.98,0 12.63,-5.68 12.63,-12.71 0,-6.95 -5.65,-12.64 -12.63,-12.64l-4.28 0c0,0 0,0 0,0 0,0 0,0 0,0 -1.12,0 -1.99,0.87 -1.99,2l0 21.36c0,1.09 0.87,1.99 1.99,1.99zm2.03 -21.33l2.25 0c4.78,0 8.61,3.88 8.61,8.62 0,4.82 -3.83,8.66 -8.61,8.69l-2.25 0 0 -17.31zm19.81 3.26c-1.09,0 -1.96,0.84 -1.96,1.99l0 14.13c0,1.08 0.87,1.95 1.96,1.95 1.12,0 1.95,-0.87 1.95,-1.95l0 -14.13c0,-1.15 -0.83,-1.99 -1.95,-1.99zm1.95 -5.32c0,-1.09 -0.83,-1.96 -1.95,-1.96 -1.09,0 -1.96,0.87 -1.96,1.96l0 0.76c0,1.09 0.87,1.99 1.96,1.99 1.12,0 1.95,-0.9 1.95,-1.99l0 -0.76zm1.81 20.89l0 0c1.45,1.16 3.62,2.46 6.45,2.5l0 0c1.77,0 3.4,-0.54 4.7,-1.45l0 0c1.31,-0.94 2.29,-2.42 2.29,-4.2l0 0c0,-0.83 -0.26,-1.66 -0.69,-2.39l0 0c-0.62,-1.01 -1.6,-1.7 -2.57,-2.13l0 0c-1.05,-0.51 -2.18,-0.84 -3.37,-1.05l-0.04 0 -0.03 -0.04 0 0c-1.23,-0.22 -2.18,-0.54 -2.65,-0.87l0 0c-0.25,-0.14 -0.36,-0.29 -0.39,-0.36l0 0c-0.08,-0.11 -0.08,-0.15 -0.08,-0.29l0 0c0,-0.18 0.11,-0.51 0.58,-0.83l0 0c0.47,-0.37 1.27,-0.66 2.17,-0.66l0 0c1.16,0 2.18,0.58 3.34,1.34l0 0c0.9,0.62 2.1,0.37 2.68,-0.5l0 0c0.54,-0.91 0.28,-2.1 -0.58,-2.68l0 0 0 0c-1.16,-0.8 -2.94,-1.99 -5.44,-1.99l0 0c-1.66,0 -3.18,0.47 -4.45,1.34l0 0c-1.19,0.9 -2.14,2.31 -2.14,3.98l0 0c0,0.83 0.22,1.63 0.62,2.28l0 0c0.65,0.98 1.52,1.63 2.5,2.1l0 0c0.94,0.43 2.03,0.72 3.15,0.94l0.04 0 0 0 0 0 0 0c1.3,0.26 2.38,0.65 2.89,1.02l0 0c0.29,0.18 0.44,0.32 0.47,0.43l0 0c0.07,0.11 0.11,0.18 0.11,0.36l0 0c0,0.29 -0.14,0.65 -0.65,1.09l0 0c-0.58,0.36 -1.48,0.69 -2.46,0.69l0 0c-1.42,0.03 -3.04,-0.8 -3.99,-1.6l0 0c-0.79,-0.68 -2.06,-0.58 -2.71,0.29l0 0c-0.65,0.8 -0.54,2.03 0.25,2.68zm22.56 2.5c0,0 0,0 0,0 2.17,0 4.2,-0.8 5.76,-1.92 0.83,-0.72 0.97,-1.88 0.4,-2.68 -0.73,-0.87 -1.92,-1.01 -2.72,-0.4 -0.94,0.69 -2.14,1.16 -3.44,1.16 -2.93,0 -5.36,-2.39 -5.36,-5.18 0,-2.78 2.43,-5.21 5.36,-5.21 1.34,0 2.5,0.47 3.44,1.16 0.83,0.65 1.99,0.51 2.72,-0.36 0.57,-0.8 0.43,-2.03 -0.4,-2.68 -1.56,-1.2 -3.59,-1.99 -5.76,-1.99 -5,0.03 -9.2,4.05 -9.2,9.08 0,4.97 4.2,9.02 9.2,9.02zm16.29 0.11c0,0 0,0 0,0 2.39,0 4.57,-1.05 6.05,-2.75 1.63,-1.6 2.53,-3.84 2.53,-6.38l0 0c0,-2.46 -0.9,-4.59 -2.53,-6.33 -1.48,-1.7 -3.66,-2.75 -6.05,-2.75 -2.5,0 -4.6,1.05 -6.22,2.75 -1.56,1.74 -2.5,3.87 -2.5,6.33 0,2.54 0.94,4.78 2.5,6.38 1.62,1.7 3.72,2.75 6.22,2.75zm-3.47 -12.89c0.9,-0.8 2.1,-1.38 3.47,-1.38 1.27,0 2.43,0.58 3.33,1.38 0.91,0.98 1.42,2.28 1.42,3.76l0 0c0,1.56 -0.51,2.83 -1.42,3.84 -0.9,0.87 -2.06,1.34 -3.33,1.34 -1.37,0 -2.57,-0.47 -3.47,-1.34 -0.84,-1.01 -1.31,-2.28 -1.31,-3.84 0,-1.48 0.47,-2.78 1.31,-3.76zm28.64 5.25l0 -8.65c0,-1.02 -0.94,-1.92 -1.96,-1.92 -1.08,0 -1.88,0.9 -1.88,1.92l0 0 0 8.65c-0.04,2.06 -1.7,3.69 -3.8,3.69 -2.07,0 -3.7,-1.63 -3.7,-3.69l0 -8.65c0,-1.02 -0.83,-1.92 -1.91,-1.92 -1.05,0 -1.92,0.9 -1.92,1.92l0 8.65c0,4.13 3.4,7.53 7.53,7.53 4.16,0 7.64,-3.4 7.64,-7.53zm10.24 -10.57c-1.41,0 -2.75,0.43 -3.83,1.12 -0.33,-0.69 -1.02,-1.12 -1.78,-1.12 -1.08,0 -1.92,0.87 -1.92,1.92l0 5.61c0,0 0,0 0,0l0 8.65c0,1.05 0.84,1.92 1.92,1.92 0.94,0 1.74,-0.69 1.92,-1.56 0.07,-0.14 0.07,-0.25 0.07,-0.36l0 0 0 -8.65c0,-2.03 1.6,-3.66 3.62,-3.66 2.07,0 3.77,1.63 3.77,3.66l0 8.65c0,1.05 0.91,1.92 1.92,1.92 1.05,0 1.88,-0.87 1.88,-1.92l0 -8.65c0,-4.09 -3.37,-7.53 -7.57,-7.53zm16.99 0l-0.91 0 0 -5.25c0,-1.13 -0.87,-2 -1.99,-2 -1.12,0 -2.03,0.87 -2.03,2l0 0 0 5.25 -1.05 0c-1.12,0 -1.99,0.87 -1.99,1.99 0,1.08 0.87,1.99 1.99,1.99l1.05 0 0 10.1c0,2.21 1.81,4.02 4.02,4.02 1.12,0 1.99,-0.87 1.99,-1.99 0,-1.12 -0.87,-2.03 -1.99,-2.03 0,0 0,0 0,0l0 -10.1 0.91 0c1.08,0 2.02,-0.91 2.02,-1.99 0,-1.12 -0.94,-1.99 -2.02,-1.99l0 0zm24.73 -7.25c0,0 0,0 0,0 0,0 0,0 0,0 -0.04,0 -0.04,0 -0.04,0 -0.65,0 -1.23,0.29 -1.63,0.84l-7.2 9.99 -7.21 -9.99c-0.36,-0.55 -1.01,-0.84 -1.59,-0.84 -0.07,0 -0.07,0 -0.11,0 -1.09,0 -1.99,0.91 -1.99,2l0 21.36c0,1.09 0.9,1.99 1.99,1.99 1.12,0 2.03,-0.9 2.03,-1.99l0 -15.24 5.17 7.24c0.4,0.54 1.02,0.83 1.67,0.83 0,0 0.04,0 0.04,0 0,0 0.03,0 0.03,0 0.65,0 1.23,-0.29 1.63,-0.83l5.22 -7.24 0 15.24c0,1.09 0.86,1.99 1.99,1.99 1.08,0 2.02,-0.9 2.02,-1.99l0 -21.36c0,-1.09 -0.94,-1.96 -2.02,-2zm8.58 7.28c-1.09,0 -1.96,0.84 -1.96,1.99l0 14.13c0,1.08 0.87,1.95 1.96,1.95 1.12,0 1.95,-0.87 1.95,-1.95l0 -14.13c0,-1.15 -0.83,-1.99 -1.95,-1.99zm1.95 -5.32c0,-1.09 -0.83,-1.96 -1.95,-1.96 -1.09,0 -1.96,0.87 -1.96,1.96l0 0.76c0,1.09 0.87,1.99 1.96,1.99 1.12,0 1.95,-0.9 1.95,-1.99l0 -0.76zm15.14 5.9c-0.91,-0.61 -2.07,-0.43 -2.75,0.4l-3.62 4.85 -3.62 -4.85c-0.66,-0.83 -1.78,-1.01 -2.65,-0.4 -0.83,0.58 -1.01,1.81 -0.4,2.57l4.35 5.94 -4.35 5.98c-0.61,0.79 -0.43,2.06 0.4,2.6 0.33,0.26 0.76,0.4 1.16,0.4 0.58,0 1.09,-0.33 1.49,-0.8l3.62 -4.96 3.62 4.96c0.47,0.47 1.01,0.8 1.59,0.8 0.4,0 0.8,-0.14 1.16,-0.4 0.76,-0.54 0.98,-1.81 0.36,-2.6l-4.31 -5.98 4.31 -5.94c0.62,-0.76 0.4,-1.99 -0.36,-2.57zm22.23 -7.17c-0.91,-0.69 -2.1,-0.5 -2.79,0.44l-6.08 8.32 -6.12 -8.32c-0.62,-0.94 -1.88,-1.13 -2.75,-0.44 -0.91,0.62 -1.09,1.85 -0.47,2.75l6.88 9.35 -6.88 9.41c-0.62,0.87 -0.44,2.14 0.47,2.75 0.32,0.26 0.72,0.4 1.16,0.4 0.61,0 1.19,-0.33 1.59,-0.83l6.12 -8.37 6.08 8.37c0.4,0.5 0.98,0.83 1.63,0.83 0.4,0 0.8,-0.14 1.16,-0.4 0.91,-0.61 1.05,-1.88 0.43,-2.75l-6.88 -9.41 6.88 -9.35c0.62,-0.9 0.48,-2.13 -0.43,-2.75z"/>
     <path class="fil22" d="M317.15 170.92c-0.59,0.82 -1.27,1.48 -2.06,1.99 -0.78,0.5 -1.6,0.84 -2.45,1.01 -0.85,0.17 -1.71,0.18 -2.57,0.03 -0.87,-0.16 -1.68,-0.5 -2.43,-1.04 -0.73,-0.52 -1.31,-1.17 -1.75,-1.94 -0.44,-0.78 -0.71,-1.59 -0.81,-2.44 -0.11,-0.86 -0.04,-1.73 0.18,-2.64 0.22,-0.91 0.62,-1.77 1.21,-2.59 0.57,-0.8 1.25,-1.46 2.04,-1.98 0.8,-0.51 1.61,-0.86 2.45,-1.04 0.84,-0.18 1.7,-0.19 2.57,-0.03 0.88,0.16 1.68,0.51 2.41,1.03 0.75,0.53 1.34,1.18 1.77,1.95 0.43,0.77 0.7,1.58 0.81,2.44 0.12,0.86 0.06,1.75 -0.17,2.67 -0.23,0.92 -0.63,1.78 -1.2,2.58zm-2.36 -1.69c0.25,-0.35 0.4,-0.73 0.44,-1.14 0.05,-0.42 0.02,-0.83 -0.08,-1.26 -0.11,-0.43 -0.29,-0.84 -0.57,-1.23 -0.27,-0.39 -0.6,-0.72 -1,-1.01 -0.83,-0.59 -1.7,-0.84 -2.63,-0.76 -0.93,0.09 -1.63,0.47 -2.12,1.15 -0.25,0.35 -0.4,0.73 -0.45,1.15 -0.04,0.41 -0.01,0.83 0.09,1.26 0.1,0.42 0.28,0.83 0.55,1.21 0.26,0.38 0.59,0.71 0.99,1 0.82,0.58 1.7,0.84 2.64,0.76 0.94,-0.07 1.65,-0.45 2.14,-1.13zm27.12 -1.18c-0.58,0.82 -1.27,1.48 -2.06,1.99 -0.78,0.5 -1.59,0.84 -2.43,1.03 -0.84,0.18 -1.69,0.19 -2.56,0.03 -0.86,-0.15 -1.67,-0.5 -2.42,-1.03 -0.75,-0.54 -1.34,-1.19 -1.77,-1.96 -0.43,-0.76 -0.7,-1.58 -0.81,-2.44 -0.12,-0.86 -0.06,-1.74 0.16,-2.65 0.22,-0.91 0.62,-1.77 1.21,-2.59 0.59,-0.83 1.27,-1.49 2.06,-1.99 0.78,-0.51 1.6,-0.85 2.46,-1.04 0.86,-0.18 1.72,-0.19 2.58,-0.02 0.85,0.16 1.66,0.52 2.41,1.05 0.75,0.54 1.35,1.19 1.78,1.94 0.44,0.76 0.7,1.56 0.8,2.43 0.09,0.86 0.02,1.75 -0.2,2.65 -0.22,0.91 -0.62,1.78 -1.21,2.6zm-2.36 -1.69c0.25,-0.35 0.4,-0.73 0.44,-1.14 0.05,-0.41 0.02,-0.83 -0.08,-1.26 -0.1,-0.43 -0.29,-0.83 -0.55,-1.21 -0.26,-0.39 -0.59,-0.72 -0.99,-1 -0.42,-0.31 -0.86,-0.52 -1.33,-0.63 -0.46,-0.12 -0.91,-0.17 -1.34,-0.14 -0.43,0.03 -0.83,0.15 -1.2,0.34 -0.37,0.2 -0.67,0.46 -0.91,0.79 -0.25,0.35 -0.4,0.74 -0.44,1.15 -0.05,0.41 -0.02,0.83 0.08,1.26 0.11,0.42 0.29,0.83 0.57,1.22 0.27,0.39 0.6,0.73 1,1.01 0.83,0.59 1.7,0.84 2.63,0.76 0.93,-0.08 1.63,-0.47 2.12,-1.15zm-12.1 17.71l-4.5 -18.22 -5.52 -17.77 3.44 -0.79 4.52 17.75 5.5 18.23 -3.44 0.8z"/>
    </g>
   </g>
  </g>
  <polygon class="fil23" points="0,0 1370.25,0 1370.25,355.26 0,355.26 "/>
 </g>
</svg>
