<?xml version="1.0" encoding="UTF-8"?>
<!DOCTYPE svg PUBLIC "-//W3C//DTD SVG 1.1//EN" "http://www.w3.org/Graphics/SVG/1.1/DTD/svg11.dtd">
<!-- Creator: CorelDRAW 2018 (64-Bit Evaluation Version) -->
<svg xmlns="http://www.w3.org/2000/svg" xml:space="preserve" width="2244px" height="354px" version="1.1" style="shape-rendering:geometricPrecision; text-rendering:geometricPrecision; image-rendering:optimizeQuality; fill-rule:evenodd; clip-rule:evenodd"
viewBox="0 0 4060.57 641.14"
 xmlns:xlink="http://www.w3.org/1999/xlink">
 <defs>
  <style type="text/css">
   <![CDATA[
    .fil6 {fill:none}
    .fil3 {fill:#F3F4F6;fill-rule:nonzero}
    .fil4 {fill:#630063;fill-rule:nonzero}
    .fil0 {fill:purple;fill-rule:nonzero}
    .fil1 {fill:#870087;fill-rule:nonzero}
    .fil2 {fill:#870087;fill-rule:nonzero}
    .fil5 {fill:white;fill-rule:nonzero}
   ]]>
  </style>
   <clipPath id="id0">
    <path d="M0 0l4060.57 0 0 641.14 -4060.57 0 0 -641.14z"/>
   </clipPath>
 </defs>
 <g id="Layer_x0020_1">
  <metadata id="CorelCorpID_0Corel-Layer"/>
  <g>
  </g>
  <g style="clip-path:url(#id0)">
   <g>
    <path class="fil0" d="M1308.16 520.69c0,0 0,0 0,0 0,0 0,0 0,0l52.54 0c85.94,0 155.4,-69.91 155.4,-156.3 0,-85.49 -69.46,-155.4 -155.4,-155.4l-52.54 0c0,0 0,0 0,0 0,0 0,0 0,0 -13.81,0 -24.5,10.68 -24.5,24.49l0 262.72c0,13.35 10.69,24.49 24.5,24.49zm24.93 -262.28l27.61 0c58.78,0 105.98,47.65 105.98,105.98 0,59.22 -47.2,106.42 -105.98,106.87l-27.61 0 0 -212.85zm256.93 40.08c-13.36,0 -24.05,10.24 -24.05,24.49l0 173.66c0,13.36 10.69,24.05 24.05,24.05 13.81,0 24.05,-10.69 24.05,-24.05l0 -173.66c0,-14.25 -10.24,-24.49 -24.05,-24.49zm24.05 -65.46c0,-13.36 -10.24,-24.04 -24.05,-24.04 -13.36,0 -24.05,10.68 -24.05,24.04l0 9.35c0,13.36 10.69,24.49 24.05,24.49 13.81,0 24.05,-11.13 24.05,-24.49l0 -9.35zm35.62 256.93l0 0c17.81,14.25 44.53,30.28 79.26,30.73l0 0c21.82,0 41.86,-6.68 57.89,-17.81l0 0c16.03,-11.58 28.05,-29.84 28.05,-51.66l0 0c0,-10.24 -3.12,-20.48 -8.46,-29.39l0 0c-7.57,-12.46 -19.59,-20.93 -31.62,-26.27l0 0c-12.91,-6.23 -26.71,-10.24 -41.41,-12.91l-0.44 0 -0.45 -0.45 0 0c-15.14,-2.67 -26.72,-6.68 -32.5,-10.68l0 0c-3.12,-1.79 -4.46,-3.57 -4.9,-4.46l0 0c-0.89,-1.33 -0.89,-1.78 -0.89,-3.56l0 0c0,-2.22 1.33,-6.23 7.12,-10.24l0 0c5.79,-4.45 15.59,-8.02 26.72,-8.02l0 0c14.25,0 26.72,7.13 40.96,16.48l0 0c11.14,7.57 25.83,4.45 32.96,-6.23l0 0c6.68,-11.14 3.56,-25.83 -7.13,-32.95l0 0 0 0c-14.25,-9.8 -36.07,-24.5 -66.79,-24.5l0 0c-20.48,0 -39.19,5.79 -54.77,16.48l0 0c-14.7,11.13 -26.27,28.5 -26.27,48.98l0 0c0,10.24 2.67,20.04 7.57,28.05l0 0c8.01,12.03 18.7,20.04 30.72,25.83l0 0c11.58,5.34 24.94,8.91 38.74,11.58l0.45 0 0 0 0 0 0 0c16.03,3.11 29.38,8.01 35.62,12.47l0 0c3.56,2.22 5.34,4 5.79,5.34l0 0c0.89,1.34 1.33,2.23 1.33,4.45l0 0c0,3.56 -1.78,8.02 -8.01,13.36l0 0c-7.13,4.45 -18.26,8.46 -30.28,8.46l0 0c-17.37,0.45 -37.4,-9.8 -48.98,-19.59l0 0c-9.8,-8.46 -25.38,-7.12 -33.4,3.56l0 0c-8.01,9.8 -6.68,24.94 3.12,32.95zm290.77 30.73c0,0 0,0 0,0 26.72,0 51.65,-9.8 70.8,-23.6 10.24,-8.91 12.02,-23.16 4.9,-32.95 -8.91,-10.69 -23.6,-12.47 -33.4,-4.9 -11.57,8.46 -26.27,14.25 -42.3,14.25 -36.07,0 -65.9,-29.39 -65.9,-63.68 0,-34.29 29.83,-64.12 65.9,-64.12 16.47,0 30.73,5.79 42.3,14.25 10.24,8.01 24.49,6.23 33.4,-4.45 7.12,-9.8 5.34,-24.94 -4.9,-32.95 -19.15,-14.7 -44.08,-24.5 -70.8,-24.5 -61.45,0.45 -113.1,49.88 -113.1,111.77 0,61 51.65,110.88 113.1,110.88zm213.74 1.33c0,0 0,0 0,0 29.39,0 56.1,-12.91 74.36,-33.84 20.04,-19.59 31.17,-47.2 31.17,-78.37l0 0c0,-30.28 -11.13,-56.55 -31.17,-77.92 -18.26,-20.93 -44.97,-33.85 -74.36,-33.85 -30.73,0 -56.55,12.92 -76.59,33.85 -19.15,21.37 -30.73,47.64 -30.73,77.92 0,31.17 11.58,58.78 30.73,78.37 20.04,20.93 45.86,33.84 76.59,33.84zm-42.75 -158.52c11.13,-9.8 25.83,-16.92 42.75,-16.92 15.58,0 29.83,7.12 40.96,16.92 11.13,12.02 17.37,28.05 17.37,46.31l0 0c0,19.15 -6.24,34.73 -17.37,47.2 -11.13,10.69 -25.38,16.48 -40.96,16.48 -16.92,0 -31.62,-5.79 -42.75,-16.48 -10.24,-12.47 -16.03,-28.05 -16.03,-47.2 0,-18.26 5.79,-34.29 16.03,-46.31zm365.58 64.57l0 -106.43c0,-12.46 -11.58,-23.6 -24.05,-23.6 -13.35,0 -23.15,11.14 -23.15,23.6l0 0 0 106.43c-0.45,25.38 -20.93,45.42 -46.76,45.42 -25.38,0 -45.42,-20.04 -45.42,-45.42l0 -106.43c0,-12.46 -10.24,-23.6 -23.6,-23.6 -12.91,0 -23.59,11.14 -23.59,23.6l0 106.43c0,50.76 41.85,92.62 92.61,92.62 51.21,0 93.96,-41.86 93.96,-92.62zm139.37 -130.03c-17.37,0 -33.84,5.35 -47.2,13.81 -4.01,-8.46 -12.47,-13.81 -21.82,-13.81 -13.36,0 -23.6,10.69 -23.6,23.6l0 69.02c0,0 0,0 0,0l0 106.43c0,12.91 10.24,23.6 23.6,23.6 11.58,0 21.38,-8.46 23.6,-19.15 0.89,-1.78 0.89,-3.12 0.89,-4.45l0 0 0 -106.43c0,-24.93 19.6,-44.97 44.53,-44.97 25.38,0 46.31,20.04 46.31,44.97l0 106.43c0,12.91 11.13,23.6 23.6,23.6 12.91,0 23.16,-10.69 23.16,-23.6l0 -106.43c0,-50.31 -41.42,-92.62 -93.07,-92.62zm222.2 0l-11.13 0 0 -64.56c0,-13.81 -10.69,-24.49 -24.49,-24.49 -13.81,0 -24.94,10.68 -24.94,24.49l0 0 0 64.56 -12.91 0c-13.81,0 -24.49,10.69 -24.49,24.5 0,13.35 10.68,24.48 24.49,24.48l12.91 0 0 124.24c0,27.16 22.26,49.43 49.43,49.43 13.8,0 24.49,-10.69 24.49,-24.49 0,-13.81 -10.69,-24.94 -24.49,-24.94 0,0 0,0 0,0l0 -124.24 11.13 0c13.36,0 24.93,-11.13 24.93,-24.48 0,-13.81 -11.57,-24.5 -24.93,-24.5l0 0zm317.48 -89.05c0,0 0,0 0,0 0,0 0,0 0,0 -0.44,0 -0.44,0 -0.44,0 -8.02,0 -15.14,3.56 -20.04,10.24l-88.61 122.9 -88.61 -122.9c-4.45,-6.68 -12.47,-10.24 -19.59,-10.24 -0.89,0 -0.89,0 -1.34,0 -13.36,0 -24.49,11.13 -24.49,24.49l0 262.72c0,13.35 11.13,24.49 24.49,24.49 13.81,0 24.94,-11.14 24.94,-24.49l0 -187.47 63.67 89.06c4.9,6.68 12.47,10.24 20.49,10.24 0,0 0.44,0 0.44,0 0,0 0.45,0 0.45,0 8.01,0 15.14,-3.56 20.04,-10.24l64.11 -89.06 0 187.47c0,13.35 10.69,24.49 24.49,24.49 13.36,0 24.94,-11.14 24.94,-24.49l0 -262.72c0,-13.36 -11.58,-24.05 -24.94,-24.49zm118.89 89.5c-13.35,0 -24.04,10.24 -24.04,24.49l0 173.66c0,13.36 10.69,24.05 24.04,24.05 13.81,0 24.05,-10.69 24.05,-24.05l0 -173.66c0,-14.25 -10.24,-24.49 -24.05,-24.49zm24.05 -65.46c0,-13.36 -10.24,-24.04 -24.05,-24.04 -13.35,0 -24.04,10.68 -24.04,24.04l0 9.35c0,13.36 10.69,24.49 24.04,24.49 13.81,0 24.05,-11.13 24.05,-24.49l0 -9.35zm199.49 72.58c-11.14,-7.57 -25.38,-5.34 -33.84,4.9l-44.53 59.67 -44.53 -59.67c-8.02,-10.24 -21.82,-12.47 -32.51,-4.9 -10.24,7.13 -12.47,22.27 -4.9,31.62l53.44 73.03 -53.44 73.47c-7.57,9.79 -5.34,25.38 4.9,32.06 4.01,3.12 9.35,4.9 14.25,4.9 7.13,0 13.36,-4.01 18.26,-9.8l44.53 -61 44.53 61c5.78,5.79 12.46,9.8 19.59,9.8 4.9,0 9.8,-1.78 14.25,-4.9 9.35,-6.68 12.02,-22.27 4.45,-32.06l-52.99 -73.47 52.99 -73.03c7.57,-9.35 4.9,-24.49 -4.45,-31.62zm286.76 -88.16c-11.13,-8.46 -25.83,-6.24 -34.29,5.34l-74.8 102.42 -75.26 -102.42c-7.57,-11.58 -23.15,-13.8 -33.84,-5.34 -11.13,7.57 -13.36,22.71 -5.79,33.84l84.61 114.88 -84.61 115.78c-7.57,10.68 -5.34,26.27 5.79,33.84 4.01,3.12 8.91,4.9 14.25,4.9 7.57,0 14.69,-4.01 19.59,-10.24l75.26 -102.86 74.8 102.86c4.9,6.23 12.03,10.24 20.04,10.24 4.9,0 9.8,-1.78 14.25,-4.9 11.13,-7.57 12.91,-23.16 5.34,-33.84l-84.6 -115.78 84.6 -114.88c7.57,-11.13 5.79,-26.27 -5.34,-33.84z"/>
    <path class="fil0" d="M496.66 365.36c-0.01,18.79 -15.24,34.01 -34.03,34 -18.79,0 -34.01,-15.24 -34,-34.03 0,-18.79 15.24,-34.01 34.03,-34 18.79,0.01 34.01,15.24 34,34.03zm12.89 -184.77l-113.29 99.2c-11.56,10.13 -18.2,24.75 -18.21,40.13l-0.02 45.39 -0.02 45.39c0,15.38 6.62,30.01 18.19,40.15l113.2 99.29c9.72,8.53 22.23,13.24 35.17,13.24l580.74 0.25c29.48,0.01 53.39,-23.88 53.4,-53.35l0.13 -289.26c0.01,-29.48 -23.88,-53.38 -53.36,-53.4l-580.74 -0.24c-12.94,-0.01 -25.45,4.69 -35.19,13.21z"/>
    <path class="fil1" d="M544.74 167.38c-12.94,-0.01 -25.45,4.69 -35.19,13.21l-61.87 54.19 154.14 328.63 151.75 0.06 -185.78 -396.09 -23.05 0z"/>
    <polygon class="fil2" points="638.04,167.42 823.82,563.5 919.36,563.55 733.59,167.46 "/>
    <path class="fil3" d="M402.61 379.36l-0.01 16.86 -4.21 0 0.01 -16.86 4.21 0zm0.01 -33.72l0 16.86 -4.22 0 0.01 -16.86 4.21 0zm0.98 -33.08c-0.64,2.4 -0.96,4.89 -0.96,7.38l0 8.85 -4.22 0 0 -8.85c0,-2.86 0.38,-5.71 1.11,-8.46l4.07 1.08zm4.38 114.93l-3.42 2.45c-3.51,-4.9 -5.62,-10.68 -6.08,-16.71l4.21 -0.32c0.4,5.26 2.23,10.3 5.29,14.58zm16.08 -139.36l-11.6 10.15 -0.99 0.92 -2.92 -3.05 1.15 -1.04 11.59 -10.16 2.77 3.18zm8.37 161.8l-2.78 3.17 -12.67 -11.12 2.78 -3.16 12.67 11.11zm16.99 -184.01l-12.68 11.11 -2.78 -3.18 12.69 -11.1 2.77 3.17zm8.36 206.25l-2.78 3.16 -12.67 -11.11 2.77 -3.17 12.68 11.12zm17.01 -228.46l-12.68 11.1 -2.78 -3.17 12.68 -11.1 2.78 3.17zm8.33 250.69l-2.77 3.16 -12.68 -11.11 2.78 -3.17 12.67 11.12zm17.04 -272.9l-12.68 11.1 -2.78 -3.17 12.68 -11.1 2.78 3.17zm8.31 295.13l-2.77 3.17 -12.68 -11.12 2.78 -3.17 12.67 11.12zm17.05 -317.34l-12.68 11.1 -2.77 -3.17 12.68 -11.11 2.77 3.18zm8.76 337.6l-1.51 3.93c-3.65,-1.4 -7,-3.41 -9.94,-6l-4.46 -3.91 2.77 -3.16 4.46 3.9c2.58,2.26 5.49,4.01 8.68,5.24zm21.63 -349.14l0 4.22 -11.18 -0.01c-1.76,0 -3.53,0.16 -5.27,0.49l-0.76 -4.15c1.98,-0.37 4.01,-0.55 6.03,-0.55l11.18 0zm11.07 351.06l0 4.21 -16.86 0 0 -4.21 16.86 0zm22.64 -351.04l0 4.21 -16.86 -0.01 0 -4.21 16.86 0.01zm11.08 351.06l0 4.21 -16.86 -0.01 0 -4.21 16.86 0.01zm22.64 -351.05l0 4.21 -16.86 -0.01 0 -4.21 16.86 0.01zm11.07 351.06l0 4.21 -16.85 0 0 -4.22 16.85 0.01zm22.64 -351.05l0 4.22 -16.85 -0.01 0 -4.21 16.85 0zm11.08 351.06l0 4.22 -16.86 0 0 -4.22 16.86 0zm22.64 -351.04l0 4.21 -16.86 -0.01 0 -4.21 16.86 0.01zm11.07 351.06l0 4.21 -16.85 0 0 -4.22 16.85 0.01zm22.65 -351.05l0 4.22 -16.86 -0.01 0 -4.21 16.86 0zm11.07 351.06l0 4.22 -16.86 -0.01 0 -4.22 16.86 0.01zm22.64 -351.04l0 4.21 -16.86 -0.01 0 -4.21 16.86 0.01zm11.08 351.06l0 4.21 -16.86 0 0 -4.22 16.86 0.01zm22.64 -351.05l0 4.21 -16.86 0 0 -4.22 16.86 0.01zm11.07 351.06l0 4.22 -16.86 -0.01 0 -4.22 16.86 0.01zm22.64 -351.04l0 4.21 -16.86 0 0 -4.22 16.86 0.01zm11.08 351.05l0 4.22 -16.86 -0.01 0 -4.21 16.86 0zm22.64 -351.04l0 4.22 -16.86 -0.01 0 -4.22 16.86 0.01zm11.07 351.06l0 4.21 -16.86 0 0 -4.22 16.86 0.01zm22.64 -351.05l0 4.22 -16.85 -0.01 0 -4.22 16.85 0.01zm11.08 351.07l0 4.21 -16.86 -0.01 0 -4.21 16.86 0.01zm22.64 -351.06l0 4.22 -16.86 -0.01 0 -4.21 16.86 0zm11.07 351.07l0 4.21 -16.85 0 0 -4.22 16.85 0.01zm22.64 -351.05l0 4.22 -16.85 -0.01 0 -4.21 16.85 0zm11.08 351.06l0 4.21 -16.86 0 0 -4.22 16.86 0.01zm22.64 -351.04l0 4.21 -16.86 -0.01 0 -4.21 16.86 0.01zm11.07 351.06l0 4.21 -16.85 0 0 -4.22 16.85 0.01zm22.65 -351.05l0 4.21 -16.86 0 0 -4.22 16.86 0.01zm11.07 351.06l0 4.22 -16.86 -0.01 0 -4.22 16.86 0.01zm22.64 -351.04l0 4.21 -16.86 -0.01 0 -4.21 16.86 0.01zm11.08 351.05l0 4.22 -16.86 -0.01 0 -4.21 16.86 0zm22.64 -351.04l0 4.21 -16.86 0 0 -4.22 16.86 0.01zm11.07 351.06l0 4.22 -16.86 -0.02 0 -4.21 16.86 0.01zm22.88 -350.83l-0.49 4.19c-1.1,-0.13 -2.21,-0.19 -3.35,-0.19l-13.26 -0.01 0 -4.21 13.26 0.01c1.3,0 2.58,0.07 3.84,0.21zm11.25 351.32c-4.67,2.45 -9.94,3.73 -15.24,3.73l-2.03 0 0 -4.21 2.03 0c4.69,0 9.16,-1.09 13.29,-3.25l1.95 3.73zm15.76 -330.25l-3.94 1.51c-1.87,-4.91 -5.06,-9.23 -9.22,-12.48l2.6 -3.33c4.76,3.73 8.41,8.68 10.56,14.3zm2.03 287.08l-0.01 13.91c0,6.05 -1.66,11.97 -4.8,17.12l-3.61 -2.19c2.75,-4.49 4.2,-9.65 4.2,-14.93l0 -13.91 4.22 0zm0.01 -33.71l0 16.85 -4.22 0 0 -16.85 4.22 0zm0.02 -33.72l-0.01 16.86 -4.21 0 0 -16.86 4.22 0zm0.01 -33.71l-0.01 16.86 -4.21 0 0.01 -16.86 4.21 0zm0.01 -33.72l0 16.86 -4.22 0 0.01 -16.86 4.21 0zm0.02 -33.72l-0.01 16.86 -4.21 0 0.01 -16.86 4.21 0zm0.02 -33.71l-0.01 16.86 -4.22 0 0.01 -16.86 4.22 0zm0.01 -33.71l-0.01 16.85 -4.21 0 0 -16.85 4.22 0zm0.02 -33.72l-0.02 16.86 -4.21 0 0.01 -16.86 4.22 0z"/>
    <path class="fil4" d="M157.48 403.25c-33.72,-27.71 -41.42,-76.17 -17.5,-110.33 24.41,-34.86 71.95,-45.07 108.24,-39.73 78.09,11.51 149.71,52.69 196.05,85.21 1.9,1.33 2.37,3.93 1.03,5.87 -1.33,1.9 -3.97,2.36 -5.87,1.03 -64.45,-45.23 -132.79,-74.97 -192.44,-83.77 -33.72,-4.97 -77.76,4.31 -100.1,36.22 -21.39,30.6 -14.4,74.06 15.95,98.98 37.47,30.78 91.01,26.75 128.02,21.05 29.73,-4.59 58.85,-10.96 87.19,-18.13l0 8.71c-27.91,7 -56.58,13.23 -85.9,17.75 -38.61,5.95 -94.58,10.05 -134.67,-22.86z"/>
    <path class="fil5" d="M740.74 351.08c-8.02,0 -15.46,-1.38 -22.34,-4.13 -6.87,-2.75 -12.83,-6.47 -17.87,-11.17 -5.04,-4.69 -9.05,-10.19 -12.03,-16.49 -2.98,-6.3 -4.46,-13.12 -4.46,-20.45 0,-7.11 1.48,-13.86 4.46,-20.28 2.98,-6.41 6.99,-11.91 12.03,-16.49 5.04,-4.59 11,-8.25 17.87,-11 6.88,-2.75 14.32,-4.13 22.34,-4.13 7.79,0 15.18,1.38 22.17,4.13 6.99,2.75 13,6.41 18.04,11 5.04,4.58 9.05,10.08 12.03,16.49 2.98,6.42 4.47,13.17 4.47,20.28 0,7.33 -1.49,14.15 -4.47,20.45 -2.98,6.3 -6.99,11.8 -12.03,16.49 -5.04,4.7 -11.05,8.42 -18.04,11.17 -6.99,2.75 -14.38,4.13 -22.17,4.13zm0 -23.03c3.44,0 6.59,-0.8 9.45,-2.4 2.87,-1.61 5.44,-3.73 7.73,-6.36 2.3,-2.64 4.07,-5.73 5.33,-9.28 1.26,-3.55 1.89,-7.28 1.89,-11.17 0,-8.02 -2.4,-14.84 -7.22,-20.45 -4.81,-5.61 -10.53,-8.42 -17.18,-8.42 -3.43,0 -6.58,0.8 -9.45,2.4 -2.86,1.61 -5.44,3.73 -7.73,6.36 -2.29,2.64 -4.07,5.67 -5.33,9.11 -1.26,3.44 -1.89,7.1 -1.89,11 0,8.02 2.41,14.89 7.22,20.62 4.81,5.73 10.54,8.59 17.18,8.59zm132.66 169.77c-8.02,0 -15.47,-1.37 -22.34,-4.12 -6.87,-2.75 -12.83,-6.41 -17.87,-11 -5.04,-4.58 -9.05,-10.02 -12.03,-16.32 -2.98,-6.3 -4.47,-13.12 -4.47,-20.45 0,-7.33 1.49,-14.15 4.47,-20.45 2.98,-6.3 6.99,-11.8 12.03,-16.49 5.04,-4.7 11,-8.43 17.87,-11.17 6.87,-2.75 14.32,-4.13 22.34,-4.13 8.02,0 15.46,1.38 22.34,4.13 6.87,2.74 12.89,6.47 18.04,11.17 5.16,4.69 9.16,10.19 12.03,16.49 2.86,6.3 4.3,13.12 4.3,20.45 0,7.33 -1.44,14.15 -4.3,20.45 -2.87,6.3 -6.87,11.74 -12.03,16.32 -5.15,4.59 -11.17,8.25 -18.04,11 -6.88,2.75 -14.32,4.12 -22.34,4.12zm0 -23.02c3.44,0 6.59,-0.8 9.45,-2.41 2.86,-1.6 5.44,-3.72 7.73,-6.36 2.29,-2.63 4.07,-5.67 5.33,-9.1 1.26,-3.44 1.89,-7.11 1.89,-11 0,-4.12 -0.69,-7.96 -2.06,-11.51 -1.38,-3.55 -3.15,-6.65 -5.33,-9.28 -2.17,-2.64 -4.75,-4.7 -7.73,-6.19 -2.98,-1.49 -6.07,-2.23 -9.28,-2.23 -3.44,0 -6.59,0.8 -9.45,2.4 -2.87,1.61 -5.44,3.73 -7.73,6.36 -2.29,2.64 -4.07,5.73 -5.33,9.28 -1.26,3.55 -1.89,7.27 -1.89,11.17 0,8.02 2.4,14.84 7.22,20.45 4.81,5.61 10.53,8.42 17.18,8.42zm-170.12 3.43l96.92 -113.06 89.35 -117.54 20.96 18.56 -93.82 111.01 -92.44 119.59 -20.97 -18.56z"/>
   </g>
  </g>
  <polygon class="fil6" points="0,0 4060.57,0 4060.57,641.14 0,641.14 "/>
 </g>
</svg>
