<?xml version="1.0" encoding="UTF-8"?>
<!DOCTYPE svg PUBLIC "-//W3C//DTD SVG 1.1//EN" "http://www.w3.org/Graphics/SVG/1.1/DTD/svg11.dtd">
<!-- Creator: CorelDRAW 2018 (64-Bit Evaluation Version) -->
<svg xmlns="http://www.w3.org/2000/svg" xml:space="preserve" width="1950px" height="481px" version="1.1" style="shape-rendering:geometricPrecision; text-rendering:geometricPrecision; image-rendering:optimizeQuality; fill-rule:evenodd; clip-rule:evenodd"
viewBox="0 0 2869.74 708.24"
 xmlns:xlink="http://www.w3.org/1999/xlink">
 <defs>
  <style type="text/css">
   <![CDATA[
    .fil7 {fill:none}
    .fil3 {fill:#F3F4F6;fill-rule:nonzero}
    .fil4 {fill:#630063;fill-rule:nonzero}
    .fil6 {fill:purple;fill-rule:nonzero}
    .fil0 {fill:purple;fill-rule:nonzero}
    .fil1 {fill:#870087;fill-rule:nonzero}
    .fil2 {fill:#870087;fill-rule:nonzero}
    .fil5 {fill:white;fill-rule:nonzero}
   ]]>
  </style>
   <clipPath id="id0">
    <path d="M0 0l2869.74 0 0 708.24 -2869.74 0 0 -708.24z"/>
   </clipPath>
 </defs>
 <g id="Layer_x0020_1">
  <metadata id="CorelCorpID_0Corel-Layer"/>
  <g>
  </g>
  <g style="clip-path:url(#id0)">
   <g>
    <g id="_2418425724656">
     <path class="fil0" d="M218.55 262.8c-10.72,-0.01 -19.41,-8.7 -19.41,-19.42 0.01,-10.72 8.7,-19.41 19.42,-19.41 10.73,0.01 19.41,8.7 19.41,19.42 -0.01,10.73 -8.7,19.41 -19.42,19.41zm105.44 7.36l-56.61 -64.65c-5.78,-6.6 -14.12,-10.4 -22.9,-10.4l-25.9 -0.01 -25.91 -0.01c-8.77,0 -17.12,3.78 -22.91,10.38l-56.66 64.6c-4.87,5.55 -7.56,12.68 -7.56,20.07l-0.14 331.42c-0.01,16.82 13.62,30.47 30.45,30.47l165.07 0.07c16.82,0.01 30.47,-13.62 30.48,-30.44l0.13 -331.42c0.01,-7.39 -2.67,-14.53 -7.54,-20.08z"/>
     <path class="fil1" d="M331.53 290.24c0.01,-7.39 -2.67,-14.53 -7.54,-20.08l-30.92 -35.31 -187.55 87.96 -0.03 86.6 226.04 -106.02 0 -13.15z"/>
     <polygon class="fil2" points="331.51,343.48 105.47,449.51 105.45,504.03 331.49,398.01 "/>
     <path class="fil3" d="M210.56 209.13l-9.62 -0.01 0 -2.4 9.62 0 0 2.41zm19.24 0l-9.62 0 0 -2.4 9.62 0 0 2.4zm18.88 0.56c-1.37,-0.36 -2.79,-0.55 -4.21,-0.55l-5.05 0 0 -2.4 5.05 0c1.63,0 3.26,0.21 4.83,0.63l-0.62 2.32zm-65.59 2.5l-1.4 -1.95c2.8,-2.01 6.1,-3.2 9.54,-3.47l0.18 2.4c-3,0.23 -5.87,1.27 -8.32,3.02zm79.53 9.18l-5.79 -6.62 -0.52 -0.57 1.73 -1.66 0.6 0.65 5.79 6.61 -1.81 1.59zm-92.34 4.77l-1.8 -1.58 6.34 -7.23 1.81 1.58 -6.35 7.23zm105.02 9.7l-6.34 -7.23 1.81 -1.59 6.34 7.24 -1.81 1.58zm-117.7 4.77l-1.81 -1.58 6.34 -7.24 1.81 1.59 -6.34 7.23zm130.37 9.71l-6.34 -7.24 1.81 -1.58 6.34 7.23 -1.81 1.59zm-143.06 4.76l-1.81 -1.59 6.35 -7.23 1.8 1.58 -6.34 7.24zm155.74 9.72l-6.34 -7.24 1.81 -1.59 6.34 7.24 -1.81 1.59zm-168.43 4.74l-1.81 -1.58 6.35 -7.24 1.81 1.59 -6.35 7.23zm181.1 9.73l-6.34 -7.24 1.82 -1.58 6.33 7.24 -1.81 1.58zm-192.66 5l-2.24 -0.87c0.79,-2.08 1.94,-3.99 3.42,-5.67l2.23 -2.54 1.81 1.58 -2.23 2.55c-1.29,1.46 -2.29,3.13 -2.99,4.95zm199.24 12.34l-2.4 0 0 -6.38c0,-1 -0.09,-2.01 -0.27,-3l2.36 -0.44c0.21,1.13 0.32,2.29 0.32,3.44l-0.01 6.38zm-200.34 6.32l-2.4 0 0 -9.62 2.41 0 -0.01 9.62zm200.34 12.92l-2.41 0 0.01 -9.62 2.4 0 0 9.62zm-200.35 6.32l-2.4 0 0 -9.62 2.41 0 -0.01 9.62zm200.34 12.92l-2.4 0 0 -9.62 2.41 0 -0.01 9.62zm-200.34 6.32l-2.41 0 0 -9.62 2.41 0 0 9.62zm200.33 12.92l-2.4 0 0 -9.62 2.41 0 -0.01 9.62zm-200.34 6.32l-2.41 0 0 -9.62 2.41 0 0 9.62zm200.33 12.92l-2.4 0 0 -9.62 2.41 0 -0.01 9.62zm-200.34 6.32l-2.4 0 0 -9.61 2.4 0 0 9.61zm200.34 12.93l-2.41 0 0 -9.62 2.41 0 0 9.62zm-200.35 6.32l-2.4 0 0 -9.62 2.41 0 -0.01 9.62zm200.34 12.92l-2.41 0 0.01 -9.63 2.4 0 0 9.63zm-200.35 6.32l-2.4 0 0 -9.62 2.41 0 -0.01 9.62zm200.34 12.92l-2.41 0 0.01 -9.62 2.4 0 0 9.62zm-200.34 6.32l-2.41 0 0 -9.62 2.41 0 0 9.62zm200.33 12.92l-2.4 0 0 -9.62 2.4 0 0 9.62zm-200.34 6.32l-2.41 0 0.01 -9.62 2.4 0 0 9.62zm200.33 12.92l-2.4 0 0 -9.62 2.41 0 -0.01 9.62zm-200.34 6.32l-2.41 0 0.01 -9.62 2.4 0 0 9.62zm200.33 12.92l-2.4 0 0.01 -9.62 2.4 0 -0.01 9.62zm-200.34 6.32l-2.41 0 0.01 -9.62 2.41 0 -0.01 9.62zm200.34 12.92l-2.41 0 0.01 -9.62 2.4 0 0 9.62zm-200.35 6.32l-2.4 0 0 -9.62 2.41 0 -0.01 9.62zm200.34 12.92l-2.41 0 0.01 -9.62 2.4 0 0 9.62zm-200.34 6.32l-2.41 0 0.01 -9.62 2.4 0 0 9.62zm200.33 12.92l-2.41 0 0.01 -9.62 2.41 0 -0.01 9.62zm-200.34 6.32l-2.41 0 0 -9.62 2.41 0 0 9.62zm200.33 12.92l-2.4 0 0 -9.62 2.41 0 -0.01 9.62zm-200.34 6.32l-2.41 0 0.01 -9.62 2.4 0 0 9.62zm200.33 12.92l-2.4 0 0 -9.62 2.41 0 -0.01 9.62zm-200.34 6.32l-2.4 0 0 -9.62 2.4 0 0 9.62zm200.34 12.92l-2.41 0 0.01 -9.61 2.4 0 0 9.61zm-200.35 6.32l-2.4 0 0 -9.61 2.41 0 -0.01 9.61zm200.21 13.06l-2.39 -0.28c0.08,-0.62 0.11,-1.26 0.11,-1.91l0 -7.56 2.41 0 0 7.56c0,0.74 -0.04,1.47 -0.13,2.19zm-200.49 6.42c-1.39,-2.66 -2.13,-5.67 -2.13,-8.69l0 -1.16 2.41 0 0 1.16c0,2.67 0.62,5.22 1.85,7.58l-2.13 1.11zm188.47 9l-0.86 -2.25c2.8,-1.07 5.27,-2.89 7.12,-5.26l1.9 1.48c-2.13,2.72 -4.95,4.8 -8.16,6.03zm-163.83 1.15l-7.94 0c-3.45,0 -6.83,-0.95 -9.77,-2.74l1.25 -2.06c2.56,1.57 5.51,2.39 8.52,2.39l7.94 0.01 0 2.4zm19.24 0.01l-9.62 0 0 -2.41 9.62 0 0 2.41zm19.24 0.01l-9.62 0 0 -2.41 9.62 0 0 2.41zm19.24 0.01l-9.62 -0.01 0 -2.4 9.62 0 0 2.41zm19.24 0l-9.62 0 0 -2.4 9.62 0 0 2.4zm19.24 0.02l-9.62 -0.01 0 -2.4 9.62 0 0 2.41zm19.24 0l-9.62 0 0 -2.41 9.62 0.01 0 2.4zm19.24 0.01l-9.62 0 0 -2.41 9.62 0.01 0 2.4zm19.24 0.01l-9.62 -0.01 0 -2.4 9.62 0.01 0 2.4z"/>
     <path class="fil4" d="M196.93 69.24c15.81,-19.25 43.46,-23.64 62.96,-9.99 19.9,13.93 25.72,41.06 22.67,61.77 -6.57,44.56 -30.07,85.44 -48.62,111.88 -0.77,1.09 -2.25,1.35 -3.35,0.59 -1.09,-0.76 -1.35,-2.26 -0.59,-3.35 25.81,-36.78 42.78,-75.78 47.8,-109.82 2.84,-19.25 -2.46,-44.38 -20.67,-57.13 -17.46,-12.21 -42.26,-8.22 -56.49,9.1 -17.56,21.39 -15.26,51.94 -12.01,73.07 2.62,16.96 6.26,33.58 10.35,49.75l-4.97 0c-3.99,-15.93 -7.55,-32.29 -10.13,-49.02 -3.4,-22.04 -5.74,-53.98 13.05,-76.85z"/>
     <path class="fil5" d="M195.85 551.08c-2.73,0 -5.27,-0.47 -7.62,-1.41 -2.34,-0.93 -4.37,-2.2 -6.09,-3.81 -1.72,-1.6 -3.09,-3.47 -4.1,-5.62 -1.02,-2.15 -1.53,-4.47 -1.53,-6.97 0,-2.42 0.51,-4.73 1.53,-6.91 1.01,-2.19 2.38,-4.07 4.1,-5.63 1.72,-1.56 3.75,-2.81 6.09,-3.75 2.35,-0.94 4.89,-1.4 7.62,-1.4 2.66,0 5.17,0.46 7.56,1.4 2.38,0.94 4.43,2.19 6.15,3.75 1.72,1.56 3.08,3.44 4.1,5.63 1.02,2.18 1.52,4.49 1.52,6.91 0,2.5 -0.5,4.82 -1.52,6.97 -1.02,2.15 -2.38,4.02 -4.1,5.62 -1.72,1.61 -3.77,2.88 -6.15,3.81 -2.39,0.94 -4.9,1.41 -7.56,1.41zm0 -7.85c1.17,0 2.25,-0.27 3.22,-0.82 0.98,-0.55 1.86,-1.27 2.64,-2.17 0.78,-0.9 1.38,-1.95 1.81,-3.16 0.43,-1.22 0.65,-2.48 0.65,-3.81 0,-2.74 -0.82,-5.06 -2.46,-6.97 -1.64,-1.92 -3.6,-2.88 -5.86,-2.88 -1.17,0 -2.25,0.28 -3.22,0.83 -0.98,0.54 -1.86,1.27 -2.64,2.16 -0.78,0.9 -1.39,1.94 -1.82,3.11 -0.43,1.17 -0.64,2.42 -0.64,3.75 0,2.73 0.82,5.08 2.46,7.03 1.64,1.95 3.59,2.93 5.86,2.93zm45.23 57.88c-2.73,0 -5.27,-0.47 -7.62,-1.4 -2.34,-0.94 -4.37,-2.19 -6.09,-3.75 -1.72,-1.57 -3.09,-3.42 -4.1,-5.57 -1.02,-2.15 -1.52,-4.47 -1.52,-6.97 0,-2.5 0.5,-4.82 1.52,-6.97 1.01,-2.15 2.38,-4.03 4.1,-5.63 1.72,-1.6 3.75,-2.87 6.09,-3.8 2.35,-0.94 4.89,-1.41 7.62,-1.41 2.73,0 5.27,0.47 7.62,1.41 2.34,0.93 4.39,2.2 6.15,3.8 1.75,1.6 3.12,3.48 4.1,5.63 0.97,2.15 1.46,4.47 1.46,6.97 0,2.5 -0.49,4.82 -1.46,6.97 -0.98,2.15 -2.35,4 -4.1,5.57 -1.76,1.56 -3.81,2.81 -6.15,3.75 -2.35,0.93 -4.89,1.4 -7.62,1.4zm0 -7.85c1.17,0 2.25,-0.27 3.22,-0.82 0.98,-0.54 1.86,-1.27 2.64,-2.17 0.78,-0.89 1.38,-1.93 1.82,-3.1 0.42,-1.17 0.64,-2.42 0.64,-3.75 0,-1.41 -0.23,-2.72 -0.7,-3.93 -0.47,-1.21 -1.08,-2.26 -1.82,-3.16 -0.74,-0.9 -1.62,-1.6 -2.64,-2.11 -1.01,-0.51 -2.07,-0.76 -3.16,-0.76 -1.17,0 -2.25,0.27 -3.22,0.82 -0.98,0.55 -1.86,1.27 -2.64,2.17 -0.78,0.9 -1.39,1.95 -1.82,3.16 -0.43,1.21 -0.64,2.48 -0.64,3.81 0,2.73 0.82,5.06 2.46,6.97 1.64,1.92 3.59,2.87 5.86,2.87zm-58 1.17l33.04 -38.55 30.47 -40.07 7.15 6.33 -31.99 37.84 -31.52 40.78 -7.15 -6.33z"/>
     <path class="fil6" d="M444.11 559.81c0,0 0,0 0,0 0,0 0,0 0,0l42.73 0c69.9,0 126.4,-56.86 126.4,-127.12 0,-69.54 -56.5,-126.4 -126.4,-126.4l-42.73 0c0,0 0,0 0,0 0,0 0,0 0,0 -11.23,0 -19.92,8.7 -19.92,19.92l0 213.68c0,10.86 8.69,19.92 19.92,19.92zm20.28 -213.32l22.45 0c47.81,0 86.2,38.75 86.2,86.2 0,48.16 -38.39,86.55 -86.2,86.92l-22.45 0 0 -173.12zm208.97 32.6c-10.87,0 -19.56,8.33 -19.56,19.92l0 141.24c0,10.86 8.69,19.56 19.56,19.56 11.22,0 19.55,-8.7 19.55,-19.56l0 -141.24c0,-11.59 -8.33,-19.92 -19.55,-19.92zm19.55 -53.24c0,-10.86 -8.33,-19.56 -19.55,-19.56 -10.87,0 -19.56,8.7 -19.56,19.56l0 7.61c0,10.86 8.69,19.91 19.56,19.91 11.22,0 19.55,-9.05 19.55,-19.91l0 -7.61zm28.97 208.97l0 0c14.49,11.59 36.22,24.63 64.47,24.99l0 0c17.74,0 34.04,-5.44 47.08,-14.49l0 0c13.04,-9.42 22.82,-24.26 22.82,-42.01l0 0c0,-8.33 -2.54,-16.66 -6.89,-23.9l0 0c-6.15,-10.14 -15.93,-17.03 -25.71,-21.37l0 0c-10.5,-5.07 -21.73,-8.33 -33.68,-10.5l-0.36 0 -0.36 -0.37 0 0c-12.32,-2.17 -21.73,-5.43 -26.44,-8.69l0 0c-2.54,-1.45 -3.62,-2.89 -3.99,-3.62l0 0c-0.72,-1.09 -0.72,-1.45 -0.72,-2.9l0 0c0,-1.81 1.09,-5.07 5.79,-8.33l0 0c4.71,-3.62 12.68,-6.51 21.73,-6.51l0 0c11.59,0 21.73,5.79 33.32,13.4l0 0c9.06,6.15 21.01,3.62 26.8,-5.07l0 0c5.44,-9.06 2.9,-21.01 -5.79,-26.8l0 0 0 0c-11.59,-7.97 -29.34,-19.92 -54.33,-19.92l0 0c-16.66,0 -31.87,4.7 -44.54,13.4l0 0c-11.95,9.05 -21.37,23.17 -21.37,39.83l0 0c0,8.33 2.17,16.3 6.16,22.82l0 0c6.52,9.78 15.21,16.3 24.99,21l0 0c9.41,4.35 20.28,7.25 31.51,9.42l0.36 0 0 0 0 0 0 0c13.04,2.54 23.9,6.52 28.97,10.14l0 0c2.9,1.81 4.35,3.26 4.71,4.35l0 0c0.72,1.08 1.08,1.81 1.08,3.62l0 0c0,2.9 -1.44,6.52 -6.51,10.86l0 0c-5.8,3.63 -14.85,6.89 -24.63,6.89l0 0c-14.12,0.36 -30.42,-7.97 -39.84,-15.94l0 0c-7.97,-6.88 -20.64,-5.79 -27.16,2.9l0 0c-6.52,7.97 -5.43,20.28 2.53,26.8zm236.49 24.99c0,0 0,0 0,0 21.73,0 42.01,-7.97 57.59,-19.2 8.33,-7.24 9.78,-18.83 3.98,-26.8 -7.24,-8.69 -19.19,-10.14 -27.16,-3.98 -9.42,6.88 -21.37,11.59 -34.41,11.59 -29.33,0 -53.6,-23.9 -53.6,-51.79 0,-27.89 24.27,-52.15 53.6,-52.15 13.4,0 24.99,4.71 34.41,11.59 8.33,6.52 19.92,5.07 27.16,-3.62 5.8,-7.97 4.35,-20.29 -3.98,-26.8 -15.58,-11.96 -35.86,-19.92 -57.59,-19.92 -49.97,0.36 -91.98,40.56 -91.98,90.9 0,49.61 42.01,90.18 91.98,90.18zm173.84 1.08c0,0 0,0 0,0 23.9,0 45.63,-10.5 60.48,-27.52 16.3,-15.94 25.35,-38.39 25.35,-63.74l0 0c0,-24.63 -9.05,-46 -25.35,-63.38 -14.85,-17.02 -36.58,-27.52 -60.48,-27.52 -24.99,0 -45.99,10.5 -62.29,27.52 -15.57,17.38 -24.99,38.75 -24.99,63.38 0,25.35 9.42,47.8 24.99,63.74 16.3,17.02 37.3,27.52 62.29,27.52zm-34.77 -128.93c9.06,-7.96 21.01,-13.76 34.77,-13.76 12.68,0 24.27,5.8 33.32,13.76 9.05,9.78 14.12,22.82 14.12,37.67l0 0c0,15.57 -5.07,28.25 -14.12,38.39 -9.05,8.69 -20.64,13.4 -33.32,13.4 -13.76,0 -25.71,-4.71 -34.77,-13.4 -8.33,-10.14 -13.03,-22.82 -13.03,-38.39 0,-14.85 4.7,-27.89 13.03,-37.67zm297.34 52.52l0 -86.56c0,-10.14 -9.42,-19.19 -19.56,-19.19 -10.86,0 -18.83,9.05 -18.83,19.19l0 0 0 86.56c-0.36,20.64 -17.02,36.94 -38.03,36.94 -20.64,0 -36.94,-16.3 -36.94,-36.94l0 -86.56c0,-10.14 -8.33,-19.19 -19.19,-19.19 -10.51,0 -19.2,9.05 -19.2,19.19l0 86.56c0,41.28 34.05,75.33 75.33,75.33 41.65,0 76.42,-34.05 76.42,-75.33zm113.35 -105.75c-14.12,0 -27.52,4.34 -38.39,11.22 -3.26,-6.88 -10.14,-11.22 -17.74,-11.22 -10.87,0 -19.2,8.69 -19.2,19.19l0 56.14c0,0 0,0 0,0l0 86.55c0,10.5 8.33,19.2 19.2,19.2 9.41,0 17.38,-6.88 19.19,-15.58 0.73,-1.45 0.73,-2.53 0.73,-3.62l0 0 0 -86.55c0,-20.29 15.93,-36.58 36.21,-36.58 20.65,0 37.67,16.29 37.67,36.58l0 86.55c0,10.5 9.05,19.2 19.19,19.2 10.5,0 18.84,-8.7 18.84,-19.2l0 -86.55c0,-40.93 -33.69,-75.33 -75.7,-75.33zm180.72 0l-9.05 0 0 -52.52c0,-11.22 -8.7,-19.92 -19.92,-19.92 -11.23,0 -20.28,8.7 -20.28,19.92l0 0 0 52.52 -10.51 0c-11.22,0 -19.92,8.69 -19.92,19.92 0,10.86 8.7,19.91 19.92,19.91l10.51 0 0 101.05c0,22.09 18.11,40.2 40.2,40.2 11.22,0 19.92,-8.7 19.92,-19.92 0,-11.23 -8.7,-20.28 -19.92,-20.28 0,0 0,0 0,0l0 -101.05 9.05 0c10.87,0 20.28,-9.05 20.28,-19.91 0,-11.23 -9.41,-19.92 -20.28,-19.92l0 0zm258.22 -72.44c0,0 0,0 0,0 0,0 0,0 0,0 -0.36,0 -0.36,0 -0.36,0 -6.52,0 -12.32,2.9 -16.3,8.33l-72.07 99.96 -72.07 -99.96c-3.62,-5.43 -10.14,-8.33 -15.93,-8.33 -0.73,0 -0.73,0 -1.09,0 -10.87,0 -19.92,9.06 -19.92,19.92l0 213.68c0,10.86 9.05,19.92 19.92,19.92 11.23,0 20.28,-9.06 20.28,-19.92l0 -152.47 51.79 72.43c3.98,5.43 10.14,8.33 16.66,8.33 0,0 0.36,0 0.36,0 0,0 0.36,0 0.36,0 6.52,0 12.32,-2.9 16.3,-8.33l52.15 -72.43 0 152.47c0,10.86 8.69,19.92 19.92,19.92 10.86,0 20.28,-9.06 20.28,-19.92l0 -213.68c0,-10.86 -9.42,-19.55 -20.28,-19.92zm96.69 72.8c-10.86,0 -19.55,8.33 -19.55,19.92l0 141.24c0,10.86 8.69,19.56 19.55,19.56 11.23,0 19.56,-8.7 19.56,-19.56l0 -141.24c0,-11.59 -8.33,-19.92 -19.56,-19.92zm19.56 -53.24c0,-10.86 -8.33,-19.56 -19.56,-19.56 -10.86,0 -19.55,8.7 -19.55,19.56l0 7.61c0,10.86 8.69,19.91 19.55,19.91 11.23,0 19.56,-9.05 19.56,-19.91l0 -7.61zm162.25 59.03c-9.06,-6.15 -20.64,-4.34 -27.53,3.99l-36.21 48.53 -36.22 -48.53c-6.52,-8.33 -17.74,-10.14 -26.44,-3.99 -8.32,5.8 -10.14,18.11 -3.98,25.72l43.46 59.39 -43.46 59.76c-6.16,7.96 -4.34,20.64 3.98,26.07 3.26,2.54 7.61,3.99 11.59,3.99 5.8,0 10.87,-3.26 14.85,-7.97l36.22 -49.62 36.21 49.62c4.71,4.71 10.14,7.97 15.94,7.97 3.98,0 7.97,-1.45 11.59,-3.99 7.6,-5.43 9.78,-18.11 3.62,-26.07l-43.1 -59.76 43.1 -59.39c6.16,-7.61 3.98,-19.92 -3.62,-25.72zm233.23 -71.7c-9.05,-6.89 -21.01,-5.07 -27.89,4.34l-60.84 83.3 -61.2 -83.3c-6.16,-9.41 -18.84,-11.23 -27.53,-4.34 -9.05,6.15 -10.86,18.47 -4.71,27.52l68.81 93.44 -68.81 94.16c-6.15,8.69 -4.34,21.37 4.71,27.52 3.26,2.54 7.24,3.99 11.59,3.99 6.16,0 11.95,-3.26 15.94,-8.33l61.2 -83.66 60.84 83.66c3.99,5.07 9.78,8.33 16.3,8.33 3.99,0 7.97,-1.45 11.59,-3.99 9.05,-6.15 10.5,-18.83 4.35,-27.52l-68.81 -94.16 68.81 -93.44c6.15,-9.05 4.7,-21.37 -4.35,-27.52z"/>
    </g>
   </g>
  </g>
  <polygon class="fil7" points="0,0 2869.74,0 2869.74,708.24 0,708.24 "/>
 </g>
</svg>
