<?xml version="1.0" encoding="UTF-8"?>
<!DOCTYPE svg PUBLIC "-//W3C//DTD SVG 1.1//EN" "http://www.w3.org/Graphics/SVG/1.1/DTD/svg11.dtd">
<!-- Creator: CorelDRAW 2018 (64-Bit Evaluation Version) -->
<svg xmlns="http://www.w3.org/2000/svg" xml:space="preserve" width="1080px" height="1202px" version="1.1" style="shape-rendering:geometricPrecision; text-rendering:geometricPrecision; image-rendering:optimizeQuality; fill-rule:evenodd; clip-rule:evenodd"
viewBox="0 0 140.87 156.52"
 xmlns:xlink="http://www.w3.org/1999/xlink">
 <defs>
  <style type="text/css">
   <![CDATA[
    .fil22 {fill:none}
    .fil20 {fill:black}
    .fil0 {fill:purple}
    .fil1 {fill:white}
    .fil5 {fill:#F3F4F6;fill-rule:nonzero}
    .fil10 {fill:black;fill-rule:nonzero}
    .fil9 {fill:#008C2F;fill-rule:nonzero}
    .fil8 {fill:#009933;fill-rule:nonzero}
    .fil7 {fill:#00EBEB;fill-rule:nonzero}
    .fil6 {fill:aqua;fill-rule:nonzero}
    .fil12 {fill:#212121;fill-rule:nonzero}
    .fil11 {fill:#212121;fill-rule:nonzero}
    .fil19 {fill:#630063;fill-rule:nonzero}
    .fil16 {fill:purple;fill-rule:nonzero}
    .fil17 {fill:#870087;fill-rule:nonzero}
    .fil18 {fill:#870087;fill-rule:nonzero}
    .fil3 {fill:#D60000;fill-rule:nonzero}
    .fil4 {fill:#D60000;fill-rule:nonzero}
    .fil15 {fill:#E35B00;fill-rule:nonzero}
    .fil14 {fill:#E35B00;fill-rule:nonzero}
    .fil2 {fill:red;fill-rule:nonzero}
    .fil13 {fill:#FF6600;fill-rule:nonzero}
    .fil21 {fill:white;fill-rule:nonzero}
   ]]>
  </style>
   <clipPath id="id0">
    <path d="M0 0l140.87 0 0 156.52 -140.87 0 0 -156.52z"/>
   </clipPath>
     <clipPath id="id1">
      <path d="M3.89 32.07l130.29 0 0 123.03 -130.29 0 0 -123.03z"/>
     </clipPath>
     <clipPath id="id2">
      <path d="M0 0l140.87 0 0 156.52 -140.87 0 0 -156.52z"/>
     </clipPath>
 </defs>
 <g id="Layer_x0020_1">
  <metadata id="CorelCorpID_0Corel-Layer"/>
  <g>
  </g>
  <g style="clip-path:url(#id0)">
   <g>
    <g id="_2588734983088">
    </g>
    <g style="clip-path:url(#id1)">
     <image x="3.89" y="32.07" width="130.29" height="123.03" xlink:href="LogoFix_Images\LogoFix_ImgID1.png"/>
    </g>
    <g style="clip-path:url(#id2)">
    </g>
    <path class="fil0" d="M27.94 39.58l79.58 0c3.44,0 6,2.83 6.26,6.26l6.41 84.17c0.26,3.43 -0.24,5.68 -3.68,5.68l-95.7 0c-3.44,0 -4.1,-2.75 -3.9,-6.18l4.77 -83.67c0.19,-3.44 2.81,-6.26 6.26,-6.26z"/>
    <circle class="fil1" cx="45.48" cy="49.01" r="4.44"/>
    <circle class="fil1" cx="91.53" cy="49.01" r="4.44"/>
    <g id="_2588734982384">
     <path class="fil2" d="M102.37 60.01c-0.95,0.1 -1.8,-0.58 -1.9,-1.53 -0.11,-0.95 0.58,-1.8 1.53,-1.91 0.95,-0.1 1.8,0.59 1.9,1.54 0.1,0.95 -0.58,1.8 -1.53,1.9zm9.4 -0.36l-5.63 -5.18c-0.57,-0.53 -1.35,-0.78 -2.12,-0.7l-2.3 0.25 -2.29 0.24c-0.78,0.09 -1.48,0.5 -1.93,1.14l-4.39 6.26c-0.38,0.54 -0.55,1.2 -0.48,1.85l3.16 29.34c0.16,1.49 1.5,2.56 2.99,2.4l14.61 -1.57c1.49,-0.16 2.56,-1.5 2.4,-2.99l-3.16 -29.33c-0.07,-0.66 -0.37,-1.26 -0.86,-1.71z"/>
     <path class="fil3" d="M112.63 61.36c-0.07,-0.66 -0.37,-1.26 -0.86,-1.71l-3.07 -2.83 -15.76 9.58 0.83 7.67 18.99 -11.55 -0.13 -1.16z"/>
     <polygon class="fil4" points="113.14,66.07 94.15,77.62 94.67,82.44 113.66,70.9 "/>
     <path class="fil5" d="M101.15 55.34l-0.85 0.09 -0.03 -0.22 0.86 -0.09 0.02 0.22zm1.7 -0.19l-0.85 0.09 -0.02 -0.21 0.85 -0.09 0.02 0.21zm1.68 -0.13c-0.13,-0.02 -0.25,-0.02 -0.38,-0.01l-0.45 0.05 -0.02 -0.21 0.45 -0.05c0.14,-0.02 0.29,-0.01 0.43,0.01l-0.03 0.21zm-5.78 0.85l-0.15 -0.16c0.23,-0.2 0.51,-0.34 0.81,-0.4l0.04 0.21c-0.26,0.05 -0.5,0.17 -0.7,0.35zm7.12 0.05l-0.57 -0.53 -0.05 -0.04 0.13 -0.17 0.06 0.05 0.58 0.53 -0.15 0.16zm-8.12 1.31l-0.18 -0.12 0.49 -0.71 0.18 0.13 -0.49 0.7zm9.38 -0.15l-0.63 -0.58 0.15 -0.16 0.63 0.58 -0.15 0.16zm-10.37 1.55l-0.17 -0.12 0.49 -0.7 0.17 0.12 -0.49 0.7zm11.63 -0.39l-0.63 -0.58 0.15 -0.16 0.63 0.58 -0.15 0.16zm-12.61 1.79l-0.18 -0.12 0.49 -0.7 0.18 0.12 -0.49 0.7zm13.87 -0.63l-0.63 -0.58 0.15 -0.16 0.63 0.58 -0.15 0.16zm-14.86 2.03l-0.17 -0.12 0.49 -0.7 0.18 0.12 -0.5 0.7zm16.13 -0.87l-0.64 -0.58 0.15 -0.16 0.63 0.58 -0.14 0.16zm-17.01 2.29l-0.21 -0.06c0.05,-0.19 0.14,-0.37 0.25,-0.53l0.18 -0.25 0.17 0.12 -0.17 0.25c-0.1,0.14 -0.18,0.3 -0.22,0.47zm17.75 -0.82l-0.21 0.03 -0.06 -0.57c-0.01,-0.09 -0.03,-0.18 -0.05,-0.26l0.2 -0.06c0.03,0.09 0.05,0.2 0.06,0.3l0.06 0.56zm-17.67 2.48l-0.21 0.02 -0.09 -0.85 0.21 -0.02 0.09 0.85zm17.86 -0.77l-0.22 0.02 -0.09 -0.85 0.22 -0.03 0.09 0.86zm-17.67 2.47l-0.22 0.03 -0.09 -0.86 0.21 -0.02 0.1 0.85zm17.85 -0.77l-0.21 0.02 -0.09 -0.85 0.21 -0.02 0.09 0.85zm-17.67 2.48l-0.21 0.02 -0.1 -0.85 0.22 -0.03 0.09 0.86zm17.85 -0.78l-0.21 0.02 -0.09 -0.85 0.21 -0.02 0.09 0.85zm-17.67 2.48l-0.21 0.02 -0.09 -0.85 0.21 -0.02 0.09 0.85zm17.86 -0.78l-0.22 0.03 -0.09 -0.85 0.22 -0.03 0.09 0.85zm-17.67 2.48l-0.22 0.02 -0.09 -0.85 0.21 -0.02 0.1 0.85zm17.85 -0.77l-0.21 0.02 -0.09 -0.85 0.21 -0.02 0.09 0.85zm-17.67 2.47l-0.21 0.03 -0.09 -0.85 0.21 -0.03 0.09 0.85zm17.85 -0.77l-0.21 0.02 -0.09 -0.85 0.21 -0.02 0.09 0.85zm-17.67 2.48l-0.21 0.02 -0.09 -0.85 0.21 -0.02 0.09 0.85zm17.86 -0.78l-0.21 0.03 -0.1 -0.85 0.22 -0.03 0.09 0.85zm-17.67 2.48l-0.22 0.02 -0.09 -0.85 0.21 -0.02 0.1 0.85zm17.85 -0.77l-0.21 0.02 -0.09 -0.85 0.21 -0.02 0.09 0.85zm-17.67 2.47l-0.21 0.03 -0.09 -0.85 0.21 -0.03 0.09 0.85zm17.85 -0.77l-0.21 0.02 -0.09 -0.85 0.21 -0.02 0.09 0.85zm-17.67 2.48l-0.21 0.02 -0.09 -0.85 0.21 -0.02 0.09 0.85zm17.86 -0.78l-0.21 0.03 -0.1 -0.86 0.22 -0.02 0.09 0.85zm-17.67 2.48l-0.22 0.02 -0.09 -0.85 0.22 -0.02 0.09 0.85zm17.85 -0.77l-0.21 0.02 -0.09 -0.85 0.21 -0.03 0.09 0.86zm-17.67 2.47l-0.21 0.03 -0.09 -0.86 0.21 -0.02 0.09 0.85zm17.86 -0.77l-0.22 0.02 -0.09 -0.85 0.21 -0.02 0.1 0.85zm-17.68 2.48l-0.21 0.02 -0.09 -0.85 0.21 -0.03 0.09 0.86zm17.86 -0.78l-0.21 0.02 -0.1 -0.85 0.22 -0.02 0.09 0.85zm-17.67 2.48l-0.22 0.02 -0.09 -0.85 0.22 -0.02 0.09 0.85zm17.85 -0.77l-0.21 0.02 -0.09 -0.85 0.21 -0.03 0.09 0.86zm-17.67 2.47l-0.21 0.03 -0.09 -0.86 0.21 -0.02 0.09 0.85zm17.86 -0.77l-0.22 0.02 -0.09 -0.85 0.21 -0.02 0.1 0.85zm-17.68 2.48l-0.21 0.02 -0.09 -0.85 0.21 -0.03 0.09 0.86zm17.86 -0.78l-0.21 0.02 -0.1 -0.85 0.22 -0.02 0.09 0.85zm-17.67 2.48l-0.22 0.02 -0.09 -0.85 0.22 -0.02 0.09 0.85zm17.84 -0.76l-0.21 0c0,-0.06 0,-0.12 -0.01,-0.17l-0.07 -0.67 0.21 -0.03 0.07 0.67c0.01,0.07 0.01,0.13 0.01,0.2zm-17.68 2.48c-0.15,-0.22 -0.24,-0.48 -0.27,-0.74l-0.01 -0.11 0.21 -0.02 0.01 0.1c0.03,0.24 0.11,0.46 0.24,0.66l-0.18 0.11zm16.77 -1l-0.1 -0.19c0.24,-0.13 0.44,-0.31 0.58,-0.54l0.18 0.12c-0.16,0.26 -0.39,0.47 -0.66,0.61zm-14.49 1.67l-0.71 0.07c-0.3,0.04 -0.61,-0.02 -0.89,-0.15l0.09 -0.19c0.25,0.11 0.51,0.16 0.78,0.13l0.7 -0.08 0.03 0.22zm1.7 -0.19l-0.85 0.1 -0.02 -0.22 0.85 -0.09 0.02 0.21zm1.7 -0.18l-0.85 0.09 -0.02 -0.21 0.85 -0.09 0.02 0.21zm1.71 -0.18l-0.86 0.09 -0.02 -0.21 0.85 -0.1 0.03 0.22zm1.7 -0.19l-0.85 0.1 -0.03 -0.22 0.86 -0.09 0.02 0.21zm1.7 -0.18l-0.85 0.09 -0.02 -0.21 0.85 -0.09 0.02 0.21zm1.71 -0.18l-0.86 0.09 -0.02 -0.21 0.85 -0.1 0.03 0.22zm1.7 -0.19l-0.85 0.1 -0.03 -0.22 0.86 -0.09 0.02 0.21zm1.7 -0.18l-0.85 0.09 -0.02 -0.21 0.85 -0.09 0.02 0.21z"/>
    </g>
    <g id="_2588734979600">
     <path class="fil6" d="M102.46 59.92c-0.93,0.24 -1.87,-0.31 -2.11,-1.24 -0.24,-0.92 0.31,-1.86 1.24,-2.1 0.92,-0.24 1.86,0.31 2.1,1.23 0.24,0.93 -0.31,1.87 -1.23,2.11zm9.24 -1.73l-6.32 -4.3c-0.65,-0.44 -1.45,-0.58 -2.21,-0.38l-2.23 0.58 -2.23 0.58c-0.76,0.2 -1.39,0.71 -1.74,1.41l-3.44 6.83c-0.29,0.59 -0.36,1.27 -0.2,1.9l7.43 28.56c0.37,1.45 1.85,2.32 3.3,1.94l14.23 -3.7c1.45,-0.37 2.32,-1.85 1.94,-3.3l-7.43 -28.56c-0.16,-0.64 -0.55,-1.19 -1.1,-1.56z"/>
     <path class="fil7" d="M112.8 59.75c-0.16,-0.64 -0.55,-1.19 -1.1,-1.56l-3.45 -2.35 -14.19 11.79 1.94 7.46 17.1 -14.21 -0.3 -1.13z"/>
     <polygon class="fil7" points="114,64.34 96.9,78.54 98.12,83.24 115.22,69.04 "/>
     <path class="fil5" d="M100.56 55.48l-0.83 0.21 -0.05 -0.2 0.83 -0.22 0.05 0.21zm1.66 -0.43l-0.83 0.21 -0.05 -0.21 0.83 -0.21 0.05 0.21zm1.64 -0.38c-0.13,0 -0.25,0.02 -0.38,0.05l-0.43 0.11 -0.05 -0.21 0.43 -0.11c0.14,-0.04 0.29,-0.05 0.43,-0.05l0 0.21zm-5.6 1.69l-0.16 -0.14c0.2,-0.23 0.45,-0.41 0.74,-0.51l0.07 0.2c-0.25,0.09 -0.47,0.24 -0.65,0.45zm7.06 -1l-0.65 -0.44 -0.05 -0.03 0.11 -0.19 0.07 0.05 0.64 0.44 -0.12 0.17zm-7.85 2.49l-0.19 -0.1 0.39 -0.76 0.19 0.09 -0.39 0.77zm9.27 -1.52l-0.71 -0.48 0.12 -0.18 0.71 0.48 -0.12 0.18zm-10.03 3.05l-0.19 -0.1 0.38 -0.76 0.19 0.09 -0.38 0.77zm11.45 -2.09l-0.71 -0.48 0.12 -0.18 0.71 0.48 -0.12 0.18zm-12.22 3.62l-0.19 -0.1 0.38 -0.76 0.19 0.09 -0.38 0.77zm13.63 -2.66l-0.71 -0.48 0.12 -0.18 0.71 0.49 -0.12 0.17zm-14.4 4.19l-0.19 -0.1 0.38 -0.76 0.19 0.09 -0.38 0.77zm15.82 -3.23l-0.71 -0.48 0.12 -0.17 0.71 0.48 -0.12 0.17zm-16.49 4.76l-0.21 -0.03c0.02,-0.19 0.08,-0.38 0.17,-0.56l0.13 -0.27 0.2 0.1 -0.14 0.26c-0.08,0.16 -0.13,0.33 -0.15,0.5zm17.45 -3.41l-0.21 0.05 -0.14 -0.54c-0.03,-0.09 -0.06,-0.18 -0.1,-0.26l0.2 -0.09c0.04,0.09 0.08,0.19 0.1,0.29l0.15 0.55zm-17.12 5.04l-0.21 0.05 -0.21 -0.82 0.2 -0.06 0.22 0.83zm17.55 -3.38l-0.21 0.05 -0.22 -0.83 0.21 -0.05 0.22 0.83zm-17.12 5.04l-0.21 0.05 -0.21 -0.83 0.2 -0.05 0.22 0.83zm17.55 -3.38l-0.21 0.05 -0.21 -0.83 0.2 -0.05 0.22 0.83zm-17.12 5.04l-0.21 0.05 -0.21 -0.83 0.2 -0.05 0.22 0.83zm17.55 -3.39l-0.21 0.06 -0.21 -0.83 0.2 -0.05 0.22 0.82zm-17.12 5.04l-0.21 0.06 -0.21 -0.83 0.21 -0.06 0.21 0.83zm17.55 -3.38l-0.21 0.06 -0.21 -0.83 0.2 -0.06 0.22 0.83zm-17.12 5.04l-0.21 0.06 -0.21 -0.83 0.21 -0.06 0.21 0.83zm17.55 -3.38l-0.21 0.05 -0.21 -0.82 0.21 -0.06 0.21 0.83zm-17.12 5.04l-0.2 0.05 -0.22 -0.83 0.21 -0.05 0.21 0.83zm17.55 -3.38l-0.21 0.05 -0.21 -0.83 0.21 -0.05 0.21 0.83zm-17.12 5.04l-0.2 0.05 -0.22 -0.83 0.21 -0.05 0.21 0.83zm17.55 -3.38l-0.2 0.05 -0.22 -0.83 0.21 -0.05 0.21 0.83zm-17.12 5.03l-0.2 0.06 -0.22 -0.83 0.21 -0.05 0.21 0.82zm17.55 -3.38l-0.2 0.06 -0.22 -0.83 0.21 -0.06 0.21 0.83zm-17.11 5.04l-0.21 0.06 -0.22 -0.83 0.21 -0.06 0.22 0.83zm17.54 -3.38l-0.2 0.06 -0.22 -0.83 0.21 -0.06 0.21 0.83zm-17.11 5.04l-0.21 0.05 -0.22 -0.82 0.21 -0.06 0.22 0.83zm17.55 -3.38l-0.21 0.05 -0.22 -0.83 0.21 -0.05 0.22 0.83zm-17.12 5.04l-0.21 0.05 -0.21 -0.83 0.2 -0.05 0.22 0.83zm17.55 -3.38l-0.21 0.05 -0.22 -0.83 0.21 -0.05 0.22 0.83zm-17.12 5.04l-0.21 0.05 -0.21 -0.83 0.2 -0.05 0.22 0.83zm17.55 -3.39l-0.21 0.06 -0.22 -0.83 0.21 -0.05 0.22 0.82zm-17.12 5.04l-0.21 0.06 -0.21 -0.83 0.2 -0.06 0.22 0.83zm17.55 -3.38l-0.21 0.06 -0.21 -0.83 0.2 -0.06 0.22 0.83zm-17.12 5.04l-0.21 0.06 -0.21 -0.83 0.21 -0.06 0.21 0.83zm17.55 -3.38l-0.21 0.05 -0.21 -0.82 0.2 -0.06 0.22 0.83zm-17.12 5.04l-0.21 0.05 -0.21 -0.83 0.21 -0.05 0.21 0.83zm17.55 -3.38l-0.21 0.05 -0.21 -0.83 0.21 -0.05 0.21 0.83zm-17.12 5.04l-0.2 0.05 -0.22 -0.83 0.21 -0.05 0.21 0.83zm17.55 -3.38l-0.21 0.05 -0.21 -0.83 0.21 -0.05 0.21 0.83zm-17.12 5.03l-0.2 0.06 -0.22 -0.83 0.21 -0.05 0.21 0.82zm17.54 -3.36l-0.21 0.03c0,-0.06 -0.02,-0.11 -0.03,-0.17l-0.17 -0.65 0.21 -0.06 0.17 0.66c0.01,0.06 0.03,0.12 0.03,0.19zm-17.12 5.05c-0.18,-0.2 -0.31,-0.44 -0.38,-0.7l-0.03 -0.1 0.21 -0.06 0.03 0.1c0.06,0.23 0.17,0.44 0.33,0.62l-0.16 0.14zm16.43 -3.45l-0.12 -0.18c0.22,-0.15 0.39,-0.37 0.5,-0.61l0.19 0.08c-0.12,0.29 -0.32,0.53 -0.57,0.71zm-14.08 3.77l-0.69 0.18c-0.29,0.08 -0.61,0.07 -0.9,-0.02l0.06 -0.2c0.26,0.07 0.53,0.08 0.79,0.01l0.68 -0.18 0.06 0.21zm1.65 -0.43l-0.82 0.22 -0.06 -0.21 0.83 -0.22 0.05 0.21zm1.66 -0.43l-0.83 0.21 -0.05 -0.2 0.83 -0.22 0.05 0.21zm1.66 -0.43l-0.83 0.21 -0.05 -0.2 0.83 -0.22 0.05 0.21zm1.66 -0.43l-0.83 0.21 -0.06 -0.2 0.83 -0.22 0.06 0.21zm1.66 -0.43l-0.83 0.21 -0.06 -0.21 0.83 -0.21 0.06 0.21zm1.65 -0.43l-0.83 0.21 -0.05 -0.21 0.83 -0.21 0.05 0.21zm1.66 -0.44l-0.83 0.22 -0.05 -0.21 0.83 -0.21 0.05 0.2zm1.66 -0.43l-0.83 0.22 -0.05 -0.21 0.82 -0.21 0.06 0.2z"/>
    </g>
    <path class="fil8" d="M102.73 60.09c-0.87,0.39 -1.9,0.01 -2.29,-0.86 -0.39,-0.87 -0.01,-1.9 0.86,-2.29 0.87,-0.39 1.9,-0.01 2.29,0.86 0.39,0.87 0.01,1.9 -0.86,2.29zm8.82 -3.27l-6.96 -3.17c-0.72,-0.32 -1.53,-0.32 -2.24,0l-2.11 0.95 -2.1 0.95c-0.71,0.32 -1.25,0.93 -1.47,1.68l-2.23 7.32c-0.19,0.63 -0.15,1.31 0.13,1.91l12.15 26.88c0.61,1.37 2.22,1.97 3.59,1.36l13.39 -6.06c1.36,-0.61 1.97,-2.22 1.35,-3.59l-12.15 -26.88c-0.27,-0.6 -0.75,-1.08 -1.35,-1.35z"/>
    <path class="fil9" d="M112.9 57.86c-0.27,-0.6 -0.75,-1.08 -1.35,-1.36l-3.8 -1.72 -11.99 14.01 3.18 7.03 14.44 -16.9 -0.48 -1.06z"/>
    <polygon class="fil9" points="114.85,62.18 100.41,79.07 102.41,83.49 116.85,66.6 "/>
    <path class="fil5" d="M100.11 55.72l-0.78 0.35 -0.09 -0.19 0.78 -0.36 0.09 0.2zm1.56 -0.71l-0.78 0.36 -0.09 -0.2 0.78 -0.35 0.09 0.19zm1.55 -0.65c-0.12,0.03 -0.24,0.06 -0.36,0.11l-0.41 0.19 -0.09 -0.2 0.41 -0.18c0.13,-0.06 0.27,-0.1 0.42,-0.13l0.03 0.21zm-5.23 2.62l-0.18 -0.11c0.15,-0.27 0.38,-0.49 0.64,-0.63l0.11 0.18c-0.24,0.13 -0.43,0.32 -0.57,0.56zm6.79 -2.18l-0.71 -0.32 -0.06 -0.03 0.07 -0.2 0.08 0.03 0.71 0.33 -0.09 0.19zm-7.31 3.78l-0.21 -0.07 0.25 -0.82 0.21 0.07 -0.25 0.82zm8.87 -3.07l-0.78 -0.36 0.09 -0.19 0.78 0.35 -0.09 0.2zm-9.37 4.71l-0.21 -0.07 0.25 -0.82 0.21 0.07 -0.25 0.82zm10.93 -4l-0.78 -0.36 0.09 -0.19 0.78 0.35 -0.09 0.2zm-11.43 5.63l-0.2 -0.06 0.25 -0.82 0.2 0.07 -0.25 0.81zm12.99 -4.92l-0.78 -0.36 0.09 -0.19 0.78 0.35 -0.09 0.2zm-13.49 6.56l-0.2 -0.06 0.25 -0.82 0.2 0.06 -0.25 0.82zm15.05 -5.85l-0.78 -0.36 0.09 -0.19 0.78 0.35 -0.09 0.2zm-15.44 7.47l-0.22 0.01c-0.01,-0.19 0.01,-0.39 0.07,-0.58l0.09 -0.29 0.2 0.06 -0.08 0.29c-0.05,0.17 -0.07,0.34 -0.06,0.51zm16.61 -6.31l-0.2 0.09 -0.23 -0.52c-0.04,-0.08 -0.08,-0.16 -0.13,-0.23l0.17 -0.12c0.06,0.08 0.11,0.17 0.15,0.26l0.24 0.52zm-16.02 7.87l-0.19 0.08 -0.36 -0.78 0.2 -0.08 0.35 0.78zm16.72 -6.31l-0.19 0.09 -0.35 -0.78 0.19 -0.09 0.35 0.78zm-16.01 7.87l-0.2 0.09 -0.35 -0.79 0.19 -0.08 0.36 0.78zm16.72 -6.31l-0.19 0.09 -0.36 -0.78 0.2 -0.09 0.35 0.78zm-16.02 7.87l-0.19 0.09 -0.35 -0.78 0.19 -0.09 0.35 0.78zm16.73 -6.31l-0.2 0.09 -0.35 -0.78 0.19 -0.09 0.36 0.78zm-16.02 7.87l-0.2 0.09 -0.35 -0.78 0.2 -0.09 0.35 0.78zm16.72 -6.31l-0.19 0.09 -0.36 -0.78 0.2 -0.09 0.35 0.78zm-16.02 7.87l-0.19 0.09 -0.35 -0.78 0.19 -0.09 0.35 0.78zm16.73 -6.31l-0.2 0.09 -0.35 -0.78 0.19 -0.09 0.36 0.78zm-16.02 7.87l-0.2 0.09 -0.35 -0.78 0.2 -0.09 0.35 0.78zm16.72 -6.3l-0.19 0.08 -0.36 -0.78 0.2 -0.09 0.35 0.79zm-16.01 7.86l-0.2 0.09 -0.35 -0.78 0.19 -0.09 0.36 0.78zm16.72 -6.3l-0.2 0.08 -0.35 -0.78 0.19 -0.08 0.36 0.78zm-16.02 7.86l-0.19 0.09 -0.36 -0.78 0.2 -0.09 0.35 0.78zm16.72 -6.3l-0.19 0.09 -0.35 -0.79 0.19 -0.08 0.35 0.78zm-16.01 7.86l-0.2 0.09 -0.35 -0.78 0.19 -0.09 0.36 0.78zm16.72 -6.3l-0.2 0.09 -0.35 -0.78 0.2 -0.09 0.35 0.78zm-16.02 7.86l-0.19 0.09 -0.36 -0.78 0.2 -0.09 0.35 0.78zm16.72 -6.3l-0.19 0.09 -0.35 -0.78 0.19 -0.09 0.35 0.78zm-16.01 7.86l-0.2 0.09 -0.35 -0.78 0.19 -0.09 0.36 0.78zm16.72 -6.3l-0.19 0.09 -0.36 -0.78 0.2 -0.09 0.35 0.78zm-16.02 7.87l-0.19 0.08 -0.36 -0.78 0.2 -0.09 0.35 0.79zm16.73 -6.31l-0.2 0.09 -0.35 -0.78 0.19 -0.09 0.36 0.78zm-16.02 7.87l-0.2 0.08 -0.35 -0.78 0.2 -0.08 0.35 0.78zm16.72 -6.31l-0.19 0.09 -0.36 -0.78 0.2 -0.09 0.35 0.78zm-16.02 7.87l-0.19 0.09 -0.35 -0.79 0.19 -0.08 0.35 0.78zm16.73 -6.31l-0.2 0.09 -0.35 -0.78 0.19 -0.09 0.36 0.78zm-16.02 7.87l-0.2 0.09 -0.35 -0.78 0.2 -0.09 0.35 0.78zm16.72 -6.31l-0.19 0.09 -0.36 -0.78 0.2 -0.09 0.35 0.78zm-16.01 7.87l-0.2 0.09 -0.35 -0.78 0.19 -0.09 0.36 0.78zm16.72 -6.31l-0.2 0.09 -0.35 -0.78 0.19 -0.09 0.36 0.78zm-16.02 7.87l-0.19 0.09 -0.36 -0.78 0.2 -0.09 0.35 0.78zm16.72 -6.29l-0.21 0.07c-0.01,-0.06 -0.03,-0.11 -0.06,-0.16l-0.28 -0.62 0.2 -0.09 0.28 0.62c0.02,0.06 0.05,0.12 0.07,0.18zm-16.03 7.88c-0.21,-0.17 -0.38,-0.38 -0.49,-0.63l-0.04 -0.09 0.19 -0.09 0.05 0.09c0.09,0.22 0.24,0.4 0.42,0.55l-0.13 0.17zm15.62 -6.19l-0.15 -0.15c0.18,-0.19 0.32,-0.43 0.38,-0.69l0.21 0.05c-0.07,0.3 -0.23,0.57 -0.44,0.79zm-13.25 6.11l-0.64 0.29c-0.28,0.13 -0.59,0.17 -0.89,0.14l0.02 -0.22c0.27,0.04 0.54,0 0.78,-0.12l0.64 -0.29 0.09 0.2zm1.56 -0.71l-0.78 0.36 -0.08 -0.2 0.78 -0.35 0.08 0.19zm1.56 -0.7l-0.78 0.35 -0.08 -0.19 0.78 -0.36 0.08 0.2zm1.57 -0.71l-0.78 0.35 -0.09 -0.19 0.78 -0.35 0.09 0.19zm1.56 -0.7l-0.78 0.35 -0.09 -0.2 0.78 -0.35 0.09 0.2zm1.56 -0.71l-0.78 0.35 -0.09 -0.19 0.78 -0.35 0.09 0.19zm1.56 -0.7l-0.78 0.35 -0.09 -0.2 0.78 -0.35 0.09 0.2zm1.56 -0.71l-0.78 0.35 -0.09 -0.19 0.78 -0.36 0.09 0.2zm1.56 -0.71l-0.78 0.36 -0.09 -0.2 0.78 -0.35 0.09 0.19z"/>
    <g id="_2588734976816">
     <path class="fil10" d="M103.34 59.93c-0.79,0.54 -1.87,0.33 -2.41,-0.46 -0.53,-0.79 -0.32,-1.86 0.47,-2.4 0.78,-0.54 1.86,-0.33 2.4,0.46 0.53,0.79 0.33,1.86 -0.46,2.4zm8.13 -4.73l-7.4 -1.93c-0.76,-0.2 -1.56,-0.06 -2.21,0.38l-1.91 1.29 -1.91 1.3c-0.64,0.43 -1.07,1.13 -1.16,1.91l-0.95 7.59c-0.08,0.65 0.08,1.31 0.45,1.85l16.56 24.42c0.84,1.24 2.53,1.56 3.77,0.72l12.16 -8.25c1.24,-0.84 1.56,-2.52 0.72,-3.76l-16.56 -24.42c-0.37,-0.54 -0.92,-0.94 -1.56,-1.1z"/>
     <path class="fil11" d="M113.03 56.3c-0.37,-0.54 -0.92,-0.94 -1.56,-1.1l-4.04 -1.06 -9.42 15.86 4.33 6.38 11.35 -19.11 -0.66 -0.97z"/>
     <polygon class="fil12" points="115.69,60.22 104.34,79.34 107.07,83.35 118.42,64.24 "/>
     <path class="fil5" d="M100.06 56.38l-0.71 0.48 -0.12 -0.18 0.71 -0.48 0.12 0.18zm1.42 -0.97l-0.71 0.49 -0.12 -0.18 0.71 -0.48 0.12 0.17zm1.42 -0.9c-0.12,0.04 -0.23,0.1 -0.34,0.17l-0.37 0.25 -0.12 -0.17 0.37 -0.26c0.12,-0.08 0.25,-0.14 0.39,-0.19l0.07 0.2zm-4.71 3.47l-0.2 -0.08c0.11,-0.29 0.29,-0.54 0.53,-0.73l0.14 0.17c-0.21,0.16 -0.37,0.38 -0.47,0.64zm6.32 -3.31l-0.76 -0.19 -0.06 -0.02 0.04 -0.21 0.08 0.02 0.75 0.2 -0.05 0.2zm-6.56 4.97l-0.21 -0.02 0.1 -0.85 0.21 0.02 -0.1 0.85zm8.22 -4.53l-0.83 -0.22 0.05 -0.21 0.83 0.22 -0.05 0.21zm-8.43 6.23l-0.22 -0.02 0.11 -0.85 0.21 0.02 -0.1 0.85zm10.08 -5.8l-0.82 -0.22 0.05 -0.2 0.83 0.21 -0.06 0.21zm-10.29 7.5l-0.22 -0.02 0.11 -0.85 0.21 0.02 -0.1 0.85zm11.95 -7.07l-0.83 -0.22 0.06 -0.2 0.83 0.21 -0.06 0.21zm-12.17 8.77l-0.21 -0.02 0.11 -0.85 0.21 0.02 -0.11 0.85zm13.83 -8.34l-0.83 -0.21 0.06 -0.21 0.82 0.22 -0.05 0.2zm-13.94 10.01l-0.21 0.04c-0.04,-0.19 -0.06,-0.39 -0.03,-0.58l0.04 -0.3 0.21 0.02 -0.04 0.3c-0.02,0.17 -0.01,0.35 0.03,0.52zm15.29 -9.06l-0.18 0.12 -0.31 -0.47c-0.05,-0.07 -0.11,-0.14 -0.18,-0.21l0.16 -0.15c0.07,0.08 0.13,0.16 0.19,0.24l0.32 0.47zm-14.44 10.49l-0.18 0.12 -0.48 -0.71 0.18 -0.12 0.48 0.71zm15.4 -9.07l-0.17 0.12 -0.48 -0.71 0.17 -0.12 0.48 0.71zm-14.44 10.48l-0.17 0.12 -0.48 -0.71 0.17 -0.12 0.48 0.71zm15.4 -9.06l-0.17 0.12 -0.48 -0.71 0.17 -0.12 0.48 0.71zm-14.44 10.48l-0.17 0.12 -0.48 -0.71 0.17 -0.12 0.48 0.71zm15.41 -9.07l-0.18 0.12 -0.48 -0.7 0.18 -0.12 0.48 0.7zm-14.44 10.49l-0.18 0.12 -0.48 -0.71 0.18 -0.12 0.48 0.71zm15.4 -9.07l-0.18 0.12 -0.48 -0.71 0.18 -0.12 0.48 0.71zm-14.44 10.49l-0.18 0.12 -0.48 -0.71 0.18 -0.12 0.48 0.71zm15.4 -9.07l-0.18 0.12 -0.48 -0.71 0.18 -0.12 0.48 0.71zm-14.44 10.48l-0.18 0.12 -0.48 -0.71 0.18 -0.12 0.48 0.71zm15.4 -9.06l-0.18 0.12 -0.48 -0.71 0.18 -0.12 0.48 0.71zm-14.44 10.48l-0.18 0.12 -0.48 -0.71 0.18 -0.12 0.48 0.71zm15.4 -9.07l-0.17 0.12 -0.49 -0.7 0.18 -0.12 0.48 0.7zm-14.44 10.49l-0.17 0.12 -0.49 -0.71 0.18 -0.12 0.48 0.71zm15.4 -9.07l-0.17 0.12 -0.48 -0.71 0.17 -0.12 0.48 0.71zm-14.44 10.49l-0.17 0.12 -0.48 -0.71 0.17 -0.12 0.48 0.71zm15.41 -9.07l-0.18 0.12 -0.48 -0.71 0.17 -0.12 0.49 0.71zm-14.44 10.48l-0.18 0.12 -0.48 -0.71 0.17 -0.12 0.49 0.71zm15.4 -9.06l-0.18 0.12 -0.48 -0.71 0.18 -0.12 0.48 0.71zm-14.44 10.48l-0.18 0.12 -0.48 -0.71 0.18 -0.12 0.48 0.71zm15.4 -9.07l-0.18 0.12 -0.48 -0.7 0.18 -0.12 0.48 0.7zm-14.44 10.49l-0.18 0.12 -0.48 -0.71 0.18 -0.12 0.48 0.71zm15.4 -9.07l-0.18 0.12 -0.48 -0.71 0.18 -0.12 0.48 0.71zm-14.44 10.49l-0.18 0.12 -0.48 -0.71 0.18 -0.12 0.48 0.71zm15.4 -9.07l-0.18 0.12 -0.48 -0.71 0.18 -0.12 0.48 0.71zm-14.44 10.48l-0.18 0.12 -0.48 -0.71 0.18 -0.12 0.48 0.71zm15.4 -9.06l-0.17 0.12 -0.48 -0.71 0.17 -0.12 0.48 0.71zm-14.44 10.48l-0.17 0.12 -0.48 -0.71 0.17 -0.12 0.48 0.71zm15.4 -9.07l-0.17 0.12 -0.48 -0.7 0.17 -0.12 0.48 0.7zm-14.44 10.49l-0.17 0.12 -0.48 -0.71 0.17 -0.12 0.48 0.71zm15.41 -9.07l-0.18 0.12 -0.48 -0.71 0.18 -0.12 0.48 0.71zm-14.44 10.49l-0.18 0.12 -0.48 -0.71 0.18 -0.12 0.48 0.71zm15.4 -9.05l-0.19 0.09c-0.03,-0.05 -0.06,-0.09 -0.09,-0.14l-0.38 -0.56 0.18 -0.12 0.38 0.56c0.03,0.05 0.07,0.11 0.1,0.17zm-14.45 10.49c-0.24,-0.12 -0.44,-0.31 -0.59,-0.53l-0.06 -0.09 0.18 -0.12 0.06 0.09c0.13,0.2 0.3,0.35 0.51,0.47l-0.1 0.18zm14.33 -8.76l-0.17 -0.12c0.15,-0.22 0.24,-0.48 0.26,-0.74l0.21 0.01c-0.02,0.31 -0.12,0.6 -0.3,0.85zm-12.01 8.28l-0.58 0.4c-0.26,0.17 -0.55,0.27 -0.86,0.28l-0.01 -0.21c0.27,-0.01 0.53,-0.1 0.75,-0.25l0.58 -0.4 0.12 0.18zm1.42 -0.96l-0.71 0.48 -0.12 -0.18 0.71 -0.48 0.12 0.18zm1.42 -0.96l-0.71 0.48 -0.12 -0.18 0.71 -0.48 0.12 0.18zm1.41 -0.96l-0.7 0.48 -0.12 -0.18 0.7 -0.48 0.12 0.18zm1.42 -0.97l-0.71 0.48 -0.12 -0.17 0.71 -0.48 0.12 0.17zm1.42 -0.96l-0.71 0.48 -0.12 -0.17 0.71 -0.48 0.12 0.17zm1.42 -0.96l-0.71 0.48 -0.12 -0.18 0.71 -0.48 0.12 0.18zm1.41 -0.96l-0.7 0.48 -0.12 -0.18 0.7 -0.48 0.12 0.18zm1.42 -0.96l-0.71 0.48 -0.12 -0.18 0.71 -0.48 0.12 0.18z"/>
    </g>
    <path class="fil13" d="M103.39 59.73c-0.7,0.66 -1.79,0.62 -2.45,-0.07 -0.65,-0.7 -0.62,-1.79 0.08,-2.45 0.7,-0.65 1.79,-0.62 2.44,0.08 0.66,0.7 0.62,1.79 -0.07,2.44zm7.28 -5.95l-7.61 -0.74c-0.78,-0.08 -1.55,0.19 -2.12,0.72l-1.68 1.58 -1.68 1.58c-0.57,0.53 -0.88,1.29 -0.85,2.07l0.26 7.64c0.02,0.66 0.28,1.29 0.73,1.77l20.2 21.5c1.03,1.1 2.74,1.15 3.83,0.13l10.72 -10.06c1.09,-1.03 1.14,-2.75 0.12,-3.84l-20.2 -21.51c-0.45,-0.47 -1.06,-0.77 -1.72,-0.84z"/>
    <path class="fil14" d="M112.39 54.62c-0.45,-0.47 -1.06,-0.77 -1.72,-0.84l-4.15 -0.4 -6.81 17.14 5.28 5.62 8.2 -20.66 -0.8 -0.86z"/>
    <polygon class="fil15" points="115.63,58.08 107.43,78.74 110.76,82.28 118.96,61.62 "/>
    <path class="fil5" d="M99.6 56.74l-0.63 0.59 -0.14 -0.16 0.62 -0.59 0.15 0.16zm1.24 -1.17l-0.62 0.58 -0.15 -0.15 0.63 -0.59 0.14 0.16zm1.26 -1.12c-0.11,0.06 -0.21,0.14 -0.3,0.22l-0.33 0.31 -0.15 -0.16 0.33 -0.3c0.11,-0.1 0.22,-0.19 0.35,-0.26l0.1 0.19zm-4.1 4.16l-0.21 -0.04c0.06,-0.3 0.2,-0.58 0.41,-0.81l0.16 0.15c-0.18,0.2 -0.31,0.44 -0.36,0.7zm5.72 -4.25l-0.78 -0.08 -0.07 0 0.01 -0.22 0.08 0.01 0.78 0.08 -0.02 0.21zm-5.7 5.94l-0.21 0.01 -0.03 -0.86 0.21 -0.01 0.03 0.86zm7.4 -5.78l-0.85 -0.08 0.02 -0.21 0.85 0.08 -0.02 0.21zm-7.34 7.49l-0.21 0.01 -0.03 -0.86 0.21 -0.01 0.03 0.86zm9.05 -7.32l-0.85 -0.08 0.02 -0.21 0.85 0.08 -0.02 0.21zm-8.99 9.03l-0.21 0.01 -0.03 -0.86 0.21 0 0.03 0.85zm10.69 -8.86l-0.85 -0.09 0.02 -0.21 0.85 0.08 -0.02 0.22zm-10.63 10.57l-0.22 0.01 -0.03 -0.85 0.22 -0.01 0.03 0.85zm12.34 -10.41l-0.85 -0.08 0.02 -0.21 0.85 0.08 -0.02 0.21zm-12.19 12.07l-0.2 0.09c-0.08,-0.19 -0.12,-0.38 -0.13,-0.58l-0.01 -0.3 0.22 -0.01 0.01 0.3c0,0.17 0.04,0.34 0.11,0.5zm13.67 -11.34l-0.15 0.14 -0.39 -0.41c-0.06,-0.07 -0.13,-0.13 -0.2,-0.18l0.12 -0.17c0.09,0.06 0.16,0.13 0.23,0.2l0.39 0.42zm-12.61 12.62l-0.15 0.15 -0.59 -0.63 0.16 -0.14 0.58 0.62zm13.79 -11.37l-0.16 0.14 -0.59 -0.62 0.16 -0.15 0.59 0.63zm-12.62 12.62l-0.15 0.15 -0.59 -0.63 0.16 -0.14 0.58 0.62zm13.79 -11.38l-0.16 0.15 -0.58 -0.62 0.15 -0.15 0.59 0.62zm-12.61 12.63l-0.16 0.15 -0.58 -0.63 0.15 -0.15 0.59 0.63zm13.78 -11.38l-0.16 0.15 -0.58 -0.62 0.15 -0.15 0.59 0.62zm-12.61 12.63l-0.16 0.14 -0.58 -0.62 0.15 -0.15 0.59 0.63zm13.78 -11.38l-0.15 0.15 -0.59 -0.63 0.16 -0.14 0.58 0.62zm-12.61 12.63l-0.15 0.14 -0.59 -0.62 0.16 -0.15 0.58 0.63zm13.79 -11.38l-0.16 0.15 -0.59 -0.63 0.16 -0.14 0.59 0.62zm-12.62 12.63l-0.15 0.14 -0.59 -0.62 0.16 -0.15 0.58 0.63zm13.79 -11.38l-0.16 0.15 -0.58 -0.63 0.15 -0.15 0.59 0.63zm-12.61 12.62l-0.16 0.15 -0.58 -0.62 0.15 -0.15 0.59 0.62zm13.78 -11.37l-0.15 0.14 -0.59 -0.62 0.15 -0.15 0.59 0.63zm-12.61 12.62l-0.16 0.15 -0.58 -0.63 0.15 -0.14 0.59 0.62zm13.78 -11.37l-0.15 0.14 -0.59 -0.62 0.16 -0.15 0.58 0.63zm-12.61 12.62l-0.15 0.15 -0.59 -0.63 0.16 -0.14 0.58 0.62zm13.79 -11.37l-0.16 0.14 -0.59 -0.62 0.16 -0.15 0.59 0.63zm-12.61 12.62l-0.16 0.15 -0.59 -0.63 0.16 -0.14 0.59 0.62zm13.78 -11.38l-0.16 0.15 -0.58 -0.62 0.15 -0.15 0.59 0.62zm-12.61 12.63l-0.16 0.15 -0.58 -0.63 0.15 -0.15 0.59 0.63zm13.78 -11.38l-0.15 0.15 -0.59 -0.63 0.15 -0.14 0.59 0.62zm-12.61 12.63l-0.16 0.14 -0.58 -0.62 0.15 -0.15 0.59 0.63zm13.78 -11.38l-0.15 0.15 -0.59 -0.63 0.16 -0.14 0.58 0.62zm-12.61 12.63l-0.15 0.14 -0.59 -0.62 0.16 -0.15 0.58 0.63zm13.79 -11.38l-0.16 0.15 -0.59 -0.63 0.16 -0.14 0.59 0.62zm-12.61 12.62l-0.16 0.15 -0.59 -0.62 0.16 -0.15 0.59 0.62zm13.78 -11.37l-0.16 0.14 -0.58 -0.62 0.15 -0.15 0.59 0.63zm-12.61 12.62l-0.16 0.15 -0.58 -0.62 0.15 -0.15 0.59 0.62zm13.78 -11.37l-0.15 0.14 -0.59 -0.62 0.16 -0.15 0.58 0.63zm-12.61 12.62l-0.16 0.15 -0.58 -0.63 0.15 -0.14 0.59 0.62zm13.78 -11.37l-0.15 0.14 -0.59 -0.62 0.16 -0.15 0.58 0.63zm-12.61 12.62l-0.15 0.15 -0.59 -0.63 0.16 -0.14 0.58 0.62zm13.79 -11.36l-0.18 0.13c-0.03,-0.05 -0.07,-0.09 -0.1,-0.13l-0.47 -0.49 0.16 -0.15 0.46 0.49c0.05,0.05 0.09,0.1 0.13,0.15zm-12.62 12.64c-0.25,-0.09 -0.48,-0.24 -0.67,-0.43l-0.07 -0.08 0.16 -0.15 0.07 0.08c0.16,0.17 0.36,0.3 0.58,0.38l-0.07 0.2zm12.78 -10.91l-0.2 -0.09c0.12,-0.24 0.17,-0.51 0.15,-0.78l0.21 -0.02c0.03,0.31 -0.03,0.62 -0.16,0.89zm-10.56 10.07l-0.52 0.48c-0.22,0.21 -0.5,0.36 -0.8,0.42l-0.04 -0.21c0.26,-0.06 0.5,-0.18 0.7,-0.36l0.51 -0.49 0.15 0.16zm1.25 -1.18l-0.63 0.59 -0.14 -0.15 0.62 -0.59 0.15 0.15zm1.25 -1.17l-0.63 0.59 -0.14 -0.16 0.62 -0.58 0.15 0.15zm1.25 -1.17l-0.63 0.59 -0.15 -0.16 0.63 -0.59 0.15 0.16zm1.24 -1.17l-0.62 0.58 -0.15 -0.15 0.63 -0.59 0.14 0.16zm1.25 -1.18l-0.62 0.59 -0.15 -0.16 0.63 -0.58 0.14 0.15zm1.25 -1.17l-0.62 0.59 -0.15 -0.16 0.63 -0.58 0.14 0.15zm1.25 -1.17l-0.62 0.59 -0.15 -0.16 0.62 -0.59 0.15 0.16zm1.25 -1.17l-0.63 0.58 -0.14 -0.15 0.62 -0.59 0.15 0.16z"/>
    <g id="_2588734957456">
     <path class="fil16" d="M103.6 59.47c-0.59,0.74 -1.66,0.86 -2.4,0.27 -0.74,-0.59 -0.86,-1.66 -0.27,-2.4 0.58,-0.74 1.66,-0.86 2.4,-0.27 0.74,0.58 0.86,1.66 0.27,2.4zm6.29 -6.86l-7.56 0.35c-0.77,0.04 -1.49,0.41 -1.97,1.01l-1.42 1.78 -1.42 1.79c-0.48,0.6 -0.68,1.38 -0.54,2.14l1.34 7.45c0.11,0.64 0.46,1.21 0.96,1.62l22.82 18.18c1.16,0.93 2.84,0.74 3.77,-0.42l9.06 -11.36c0.92,-1.16 0.73,-2.85 -0.43,-3.77l-22.81 -18.19c-0.51,-0.4 -1.15,-0.61 -1.8,-0.58z"/>
     <path class="fil17" d="M111.69 53.19c-0.51,-0.4 -1.15,-0.61 -1.8,-0.58l-4.13 0.19 -4.23 17.74 5.97 4.75 5.09 -21.38 -0.9 -0.72z"/>
     <polygon class="fil18" points="115.35,56.11 110.26,77.49 114.01,80.49 119.1,59.11 "/>
     <path class="fil5" d="M99.47 57.07l-0.53 0.67 -0.17 -0.14 0.53 -0.66 0.17 0.13zm1.05 -1.32l-0.53 0.66 -0.16 -0.13 0.53 -0.66 0.16 0.13zm1.07 -1.27c-0.1,0.07 -0.19,0.16 -0.26,0.26l-0.28 0.35 -0.17 -0.13 0.28 -0.35c0.09,-0.11 0.19,-0.21 0.31,-0.3l0.12 0.17zm-3.42 4.65l-0.21 -0.01c0.01,-0.3 0.11,-0.59 0.28,-0.84l0.18 0.12c-0.15,0.21 -0.24,0.47 -0.25,0.73zm4.99 -4.97l-0.77 0.04 -0.07 0 -0.02 -0.21 0.08 0 0.77 -0.04 0.01 0.21zm-4.73 6.62l-0.21 0.04 -0.15 -0.83 0.21 -0.04 0.15 0.83zm6.43 -6.7l-0.85 0.04 -0.01 -0.21 0.85 -0.04 0.01 0.21zm-6.13 8.37l-0.21 0.04 -0.15 -0.84 0.21 -0.04 0.15 0.84zm7.82 -8.45l-0.85 0.04 -0.01 -0.21 0.85 -0.04 0.01 0.21zm-7.52 10.12l-0.21 0.03 -0.15 -0.83 0.21 -0.04 0.15 0.84zm9.21 -10.2l-0.85 0.04 -0.01 -0.21 0.85 -0.04 0.01 0.21zm-8.91 11.86l-0.21 0.04 -0.15 -0.83 0.21 -0.04 0.15 0.83zm10.6 -11.94l-0.84 0.04 -0.01 -0.21 0.84 -0.04 0.01 0.21zm-10.22 13.55l-0.18 0.1c-0.1,-0.17 -0.17,-0.35 -0.21,-0.54l-0.05 -0.3 0.21 -0.03 0.05 0.29c0.03,0.17 0.09,0.33 0.18,0.48zm11.78 -13.05l-0.14 0.17 -0.43 -0.35c-0.07,-0.06 -0.15,-0.11 -0.23,-0.15l0.1 -0.18c0.09,0.04 0.18,0.1 0.26,0.16l0.44 0.35zm-10.56 14.14l-0.13 0.17 -0.66 -0.53 0.13 -0.16 0.66 0.52zm11.88 -13.08l-0.13 0.16 -0.66 -0.52 0.13 -0.17 0.66 0.53zm-10.55 14.14l-0.13 0.17 -0.67 -0.53 0.14 -0.17 0.66 0.53zm11.88 -13.09l-0.14 0.17 -0.66 -0.53 0.13 -0.16 0.67 0.52zm-10.56 14.15l-0.13 0.16 -0.66 -0.53 0.13 -0.16 0.66 0.53zm11.88 -13.09l-0.13 0.17 -0.66 -0.53 0.13 -0.17 0.66 0.53zm-10.55 14.14l-0.13 0.17 -0.67 -0.53 0.14 -0.17 0.66 0.53zm11.87 -13.08l-0.13 0.16 -0.66 -0.53 0.13 -0.16 0.66 0.53zm-10.55 14.14l-0.13 0.16 -0.66 -0.52 0.13 -0.17 0.66 0.53zm11.88 -13.09l-0.13 0.17 -0.67 -0.53 0.14 -0.17 0.66 0.53zm-10.55 14.14l-0.13 0.17 -0.67 -0.53 0.13 -0.16 0.67 0.52zm11.87 -13.08l-0.13 0.16 -0.66 -0.53 0.13 -0.16 0.66 0.53zm-10.55 14.14l-0.13 0.16 -0.66 -0.52 0.13 -0.17 0.66 0.53zm11.88 -13.09l-0.13 0.17 -0.67 -0.53 0.14 -0.17 0.66 0.53zm-10.55 14.15l-0.14 0.16 -0.66 -0.53 0.13 -0.16 0.67 0.53zm11.87 -13.09l-0.13 0.16 -0.66 -0.52 0.13 -0.17 0.66 0.53zm-10.55 14.14l-0.13 0.17 -0.66 -0.53 0.13 -0.17 0.66 0.53zm11.88 -13.09l-0.14 0.17 -0.66 -0.53 0.13 -0.16 0.67 0.52zm-10.55 14.15l-0.14 0.16 -0.66 -0.53 0.13 -0.16 0.67 0.53zm11.87 -13.09l-0.13 0.17 -0.66 -0.53 0.13 -0.17 0.66 0.53zm-10.55 14.14l-0.13 0.17 -0.66 -0.53 0.13 -0.17 0.66 0.53zm11.88 -13.08l-0.14 0.16 -0.66 -0.53 0.13 -0.16 0.67 0.53zm-10.56 14.14l-0.13 0.16 -0.66 -0.52 0.13 -0.17 0.66 0.53zm11.88 -13.09l-0.13 0.17 -0.66 -0.53 0.13 -0.17 0.66 0.53zm-10.55 14.14l-0.13 0.17 -0.67 -0.53 0.14 -0.16 0.66 0.52zm11.88 -13.08l-0.14 0.16 -0.66 -0.53 0.13 -0.16 0.67 0.53zm-10.56 14.14l-0.13 0.17 -0.66 -0.53 0.13 -0.17 0.66 0.53zm11.88 -13.09l-0.13 0.17 -0.66 -0.53 0.13 -0.16 0.66 0.52zm-10.55 14.15l-0.13 0.16 -0.67 -0.53 0.14 -0.16 0.66 0.53zm11.87 -13.09l-0.13 0.16 -0.66 -0.52 0.13 -0.17 0.66 0.53zm-10.55 14.14l-0.13 0.17 -0.66 -0.53 0.13 -0.17 0.66 0.53zm11.88 -13.09l-0.13 0.17 -0.67 -0.53 0.14 -0.16 0.66 0.52zm-10.55 14.15l-0.14 0.16 -0.66 -0.53 0.13 -0.16 0.67 0.53zm11.88 -13.07l-0.15 0.15c-0.04,-0.04 -0.09,-0.08 -0.13,-0.12l-0.52 -0.41 0.13 -0.17 0.52 0.42c0.05,0.04 0.1,0.08 0.15,0.13zm-10.56 14.15c-0.26,-0.05 -0.5,-0.16 -0.71,-0.33l-0.08 -0.06 0.13 -0.17 0.08 0.07c0.18,0.15 0.39,0.24 0.62,0.29l-0.04 0.2zm10.96 -12.48l-0.2 -0.06c0.08,-0.26 0.09,-0.53 0.02,-0.78l0.21 -0.05c0.07,0.29 0.06,0.6 -0.03,0.89zm-8.91 11.34l-0.43 0.55c-0.19,0.24 -0.44,0.42 -0.73,0.52l-0.07 -0.2c0.25,-0.09 0.47,-0.24 0.63,-0.45l0.44 -0.55 0.16 0.13zm1.06 -1.32l-0.53 0.66 -0.16 -0.13 0.52 -0.66 0.17 0.13zm1.05 -1.32l-0.52 0.66 -0.17 -0.13 0.53 -0.67 0.16 0.14zm1.06 -1.33l-0.53 0.66 -0.16 -0.13 0.52 -0.66 0.17 0.13zm1.06 -1.32l-0.53 0.66 -0.17 -0.13 0.53 -0.67 0.17 0.14zm1.05 -1.33l-0.53 0.66 -0.16 -0.13 0.53 -0.66 0.16 0.13zm1.06 -1.32l-0.53 0.66 -0.17 -0.13 0.53 -0.66 0.17 0.13zm1.05 -1.33l-0.52 0.67 -0.17 -0.14 0.53 -0.66 0.16 0.13zm1.06 -1.32l-0.53 0.66 -0.16 -0.13 0.52 -0.66 0.17 0.13z"/>
    </g>
    <path class="fil19" d="M89.01 50.34c-0.47,-2.17 0.76,-4.34 2.79,-4.94 2.08,-0.61 4.29,0.48 5.56,1.85 2.74,2.92 4.28,6.83 5.1,9.59 0.03,0.11 -0.04,0.23 -0.15,0.26 -0.11,0.04 -0.23,-0.03 -0.27,-0.14 -1.13,-3.84 -2.9,-7.18 -4.99,-9.42 -1.18,-1.27 -3.23,-2.29 -5.13,-1.73 -1.82,0.54 -2.91,2.49 -2.5,4.44 0.52,2.41 2.78,3.94 4.43,4.89 1.32,0.75 1.56,0.9 2.91,1.51l-0.14 0.41c-1.33,-0.6 -1.68,-0.8 -2.99,-1.55 -1.72,-0.99 -4.07,-2.6 -4.62,-5.17z"/>
    <path class="fil20" d="M43.3 49.91c1.48,1.54 2.89,1.16 4.2,0.01 0.32,-15.27 -0.85,-34.21 20.04,-36.22 24.11,-0.21 22.45,20.02 22.29,36.72 1.32,0.9 2.91,1.1 4.13,-0.09 -0.42,-12.99 2.15,-27.09 -10.49,-36.79 -4.56,-4.07 -18.14,-6.03 -25.13,-2.53 -17.5,9.36 -15.08,21.98 -15.04,38.9z"/>
    <path class="fil21" d="M28.72 125.3c0,0 0,0 0,0 0,0 0,0 0,0l1.8 0c2.96,0 5.34,-2.41 5.34,-5.38 0,-2.93 -2.38,-5.34 -5.34,-5.34l-1.8 0c0,0 0,0 0,0 0,0 0,0 0,0 -0.48,0 -0.84,0.37 -0.84,0.85l0 9.02c0,0.46 0.36,0.85 0.84,0.85zm0.85 -9.02l0.95 0c2.02,0 3.65,1.64 3.65,3.64 0,2.04 -1.63,3.66 -3.65,3.68l-0.95 0 0 -7.32zm8.38 1.38c-0.46,0 -0.83,0.35 -0.83,0.84l0 5.97c0,0.46 0.37,0.83 0.83,0.83 0.47,0 0.82,-0.37 0.82,-0.83l0 -5.97c0,-0.49 -0.35,-0.84 -0.82,-0.84zm0.82 -2.25c0,-0.46 -0.35,-0.83 -0.82,-0.83 -0.46,0 -0.83,0.37 -0.83,0.83l0 0.32c0,0.46 0.37,0.84 0.83,0.84 0.47,0 0.82,-0.38 0.82,-0.84l0 -0.32zm0.77 8.83l0 0c0.61,0.49 1.53,1.04 2.72,1.06l0 0c0.75,0 1.44,-0.23 1.99,-0.62l0 0c0.55,-0.39 0.96,-1.02 0.96,-1.77l0 0c0,-0.35 -0.1,-0.71 -0.29,-1.01l0 0c-0.26,-0.43 -0.67,-0.72 -1.08,-0.9l0 0c-0.45,-0.22 -0.92,-0.36 -1.43,-0.45l-0.01 0 -0.02 -0.01 0 0c-0.52,-0.1 -0.91,-0.23 -1.11,-0.37l0 0c-0.11,-0.06 -0.16,-0.12 -0.17,-0.15l0 0c-0.03,-0.05 -0.03,-0.07 -0.03,-0.13l0 0c0,-0.07 0.04,-0.21 0.24,-0.35l0 0c0.2,-0.15 0.54,-0.27 0.92,-0.27l0 0c0.49,0 0.92,0.24 1.41,0.56l0 0c0.38,0.26 0.89,0.16 1.13,-0.21l0 0c0.23,-0.38 0.12,-0.89 -0.24,-1.13l0 0 0 0c-0.49,-0.34 -1.24,-0.85 -2.3,-0.85l0 0c-0.7,0 -1.35,0.2 -1.88,0.57l0 0c-0.51,0.38 -0.9,0.98 -0.9,1.68l0 0c0,0.36 0.09,0.69 0.26,0.97l0 0c0.27,0.41 0.64,0.69 1.05,0.89l0 0c0.4,0.18 0.86,0.3 1.33,0.39l0.02 0 0 0 0 0 0 0c0.55,0.11 1.01,0.28 1.22,0.43l0 0c0.12,0.08 0.19,0.14 0.2,0.19l0 0c0.03,0.04 0.05,0.07 0.05,0.15l0 0c0,0.12 -0.06,0.27 -0.28,0.46l0 0c-0.24,0.15 -0.63,0.29 -1.04,0.29l0 0c-0.6,0.01 -1.28,-0.34 -1.68,-0.68l0 0c-0.34,-0.29 -0.87,-0.24 -1.15,0.13l0 0c-0.28,0.33 -0.23,0.85 0.11,1.13zm9.53 1.06c0,0 0,0 0,0 0.92,0 1.78,-0.34 2.43,-0.82 0.36,-0.3 0.42,-0.79 0.17,-1.13 -0.3,-0.37 -0.81,-0.43 -1.15,-0.17 -0.39,0.29 -0.9,0.49 -1.45,0.49 -1.24,0 -2.26,-1.01 -2.26,-2.18 0,-1.18 1.02,-2.21 2.26,-2.21 0.57,0 1.06,0.2 1.45,0.49 0.36,0.28 0.85,0.22 1.15,-0.15 0.25,-0.34 0.19,-0.86 -0.17,-1.13 -0.65,-0.51 -1.51,-0.85 -2.43,-0.85 -2.11,0.02 -3.89,1.72 -3.89,3.85 0,2.09 1.78,3.81 3.89,3.81zm6.89 0.04c0,0 0,0 0,0 1.01,0 1.93,-0.44 2.55,-1.16 0.69,-0.67 1.07,-1.62 1.07,-2.69l0 0c0,-1.05 -0.38,-1.95 -1.07,-2.68 -0.62,-0.72 -1.54,-1.17 -2.55,-1.17 -1.06,0 -1.95,0.45 -2.63,1.17 -0.66,0.73 -1.06,1.63 -1.06,2.68 0,1.07 0.4,2.02 1.06,2.69 0.68,0.72 1.57,1.16 2.63,1.16zm-1.47 -5.45c0.38,-0.33 0.89,-0.58 1.47,-0.58 0.53,0 1.02,0.25 1.41,0.58 0.38,0.42 0.59,0.97 0.59,1.6l0 0c0,0.65 -0.21,1.19 -0.59,1.62 -0.39,0.36 -0.88,0.56 -1.41,0.56 -0.58,0 -1.09,-0.2 -1.47,-0.56 -0.35,-0.43 -0.55,-0.97 -0.55,-1.62 0,-0.63 0.2,-1.18 0.55,-1.6zm12.1 2.22l0 -3.65c0,-0.43 -0.4,-0.82 -0.82,-0.82 -0.46,0 -0.8,0.39 -0.8,0.82l0 0 0 3.65c-0.01,0.87 -0.72,1.56 -1.61,1.56 -0.87,0 -1.56,-0.69 -1.56,-1.56l0 -3.65c0,-0.43 -0.35,-0.82 -0.81,-0.82 -0.44,0 -0.81,0.39 -0.81,0.82l0 3.65c0,1.75 1.44,3.19 3.18,3.19 1.76,0 3.23,-1.44 3.23,-3.19zm4.33 -4.47c-0.59,0 -1.16,0.19 -1.62,0.48 -0.14,-0.29 -0.43,-0.48 -0.75,-0.48 -0.46,0 -0.81,0.37 -0.81,0.82l0 2.37c0,0 0,0 0,0l0 3.65c0,0.45 0.35,0.82 0.81,0.82 0.4,0 0.74,-0.3 0.81,-0.66 0.03,-0.06 0.03,-0.11 0.03,-0.16l0 0 0 -3.65c0,-0.86 0.68,-1.55 1.53,-1.55 0.88,0 1.6,0.69 1.6,1.55l0 3.65c0,0.45 0.38,0.82 0.81,0.82 0.44,0 0.79,-0.37 0.79,-0.82l0 -3.65c0,-1.73 -1.42,-3.19 -3.2,-3.19zm7.18 0l-0.38 0 0 -2.21c0,-0.48 -0.37,-0.85 -0.84,-0.85 -0.48,0 -0.86,0.37 -0.86,0.85l0 0 0 2.21 -0.44 0c-0.48,0 -0.85,0.37 -0.85,0.85 0,0.45 0.37,0.84 0.85,0.84l0.44 0 0 4.27c0,0.93 0.77,1.7 1.7,1.7 0.47,0 0.84,-0.37 0.84,-0.85 0,-0.47 -0.37,-0.85 -0.84,-0.85 0,0 0,0 0,0l0 -4.27 0.38 0c0.46,0 0.86,-0.39 0.86,-0.84 0,-0.48 -0.4,-0.85 -0.86,-0.85l0 0zm10.45 -3.06c0,0 0,0 0,0 0,0 0,0 0,0 -0.01,0 -0.01,0 -0.01,0 -0.28,0 -0.52,0.13 -0.69,0.36l-3.05 4.22 -3.04 -4.22c-0.15,-0.23 -0.43,-0.36 -0.67,-0.36 -0.04,0 -0.04,0 -0.05,0 -0.46,0 -0.84,0.39 -0.84,0.85l0 9.02c0,0.46 0.38,0.85 0.84,0.85 0.47,0 0.86,-0.39 0.86,-0.85l0 -6.44 2.18 3.06c0.17,0.23 0.43,0.35 0.71,0.35 0,0 0.01,0 0.01,0 0,0 0.02,0 0.02,0 0.27,0 0.52,-0.12 0.69,-0.35l2.2 -3.06 0 6.44c0,0.46 0.37,0.85 0.84,0.85 0.46,0 0.86,-0.39 0.86,-0.85l0 -9.02c0,-0.46 -0.4,-0.83 -0.86,-0.85zm3.63 3.08c-0.46,0 -0.83,0.35 -0.83,0.84l0 5.97c0,0.46 0.37,0.83 0.83,0.83 0.47,0 0.83,-0.37 0.83,-0.83l0 -5.97c0,-0.49 -0.36,-0.84 -0.83,-0.84zm0.83 -2.25c0,-0.46 -0.36,-0.83 -0.83,-0.83 -0.46,0 -0.83,0.37 -0.83,0.83l0 0.32c0,0.46 0.37,0.84 0.83,0.84 0.47,0 0.83,-0.38 0.83,-0.84l0 -0.32zm6.39 2.49c-0.38,-0.26 -0.87,-0.18 -1.16,0.17l-1.53 2.05 -1.53 -2.05c-0.28,-0.35 -0.75,-0.43 -1.12,-0.17 -0.35,0.25 -0.43,0.77 -0.17,1.09l1.84 2.51 -1.84 2.53c-0.26,0.33 -0.18,0.87 0.17,1.1 0.14,0.1 0.32,0.17 0.49,0.17 0.25,0 0.46,-0.14 0.63,-0.34l1.53 -2.1 1.53 2.1c0.2,0.2 0.43,0.34 0.67,0.34 0.17,0 0.34,-0.07 0.49,-0.17 0.32,-0.23 0.42,-0.77 0.16,-1.1l-1.83 -2.53 1.83 -2.51c0.26,-0.32 0.16,-0.84 -0.16,-1.09zm9.4 -3.03c-0.38,-0.29 -0.89,-0.21 -1.18,0.19l-2.57 3.52 -2.59 -3.52c-0.26,-0.4 -0.79,-0.48 -1.16,-0.19 -0.38,0.26 -0.46,0.78 -0.2,1.17l2.91 3.95 -2.91 3.97c-0.26,0.37 -0.18,0.91 0.2,1.17 0.14,0.1 0.31,0.17 0.49,0.17 0.26,0 0.51,-0.14 0.67,-0.36l2.59 -3.53 2.57 3.53c0.17,0.22 0.41,0.36 0.69,0.36 0.17,0 0.34,-0.07 0.49,-0.17 0.38,-0.26 0.44,-0.8 0.18,-1.17l-2.9 -3.97 2.9 -3.95c0.26,-0.39 0.2,-0.91 -0.18,-1.17z"/>
    <path class="fil21" d="M113.03 72.15c-0.25,0.35 -0.54,0.63 -0.87,0.85 -0.33,0.21 -0.68,0.35 -1.04,0.43 -0.36,0.07 -0.72,0.07 -1.08,0.01 -0.37,-0.07 -0.71,-0.22 -1.03,-0.44 -0.31,-0.22 -0.55,-0.5 -0.74,-0.82 -0.19,-0.33 -0.3,-0.67 -0.34,-1.04 -0.05,-0.36 -0.02,-0.73 0.07,-1.11 0.1,-0.38 0.27,-0.75 0.52,-1.1 0.24,-0.33 0.52,-0.61 0.86,-0.83 0.34,-0.22 0.68,-0.36 1.03,-0.44 0.36,-0.08 0.72,-0.08 1.09,-0.01 0.37,0.07 0.71,0.21 1.02,0.43 0.32,0.23 0.57,0.5 0.75,0.83 0.18,0.32 0.29,0.66 0.34,1.03 0.05,0.36 0.02,0.74 -0.07,1.13 -0.1,0.38 -0.27,0.75 -0.51,1.08zm-1 -0.71c0.11,-0.15 0.17,-0.31 0.19,-0.48 0.02,-0.18 0.01,-0.35 -0.04,-0.53 -0.04,-0.18 -0.12,-0.36 -0.23,-0.52 -0.12,-0.17 -0.26,-0.31 -0.43,-0.43 -0.35,-0.25 -0.72,-0.35 -1.11,-0.32 -0.39,0.04 -0.69,0.2 -0.9,0.49 -0.1,0.15 -0.17,0.31 -0.18,0.48 -0.02,0.17 -0.01,0.35 0.03,0.53 0.05,0.18 0.12,0.35 0.23,0.51 0.11,0.17 0.25,0.31 0.42,0.43 0.35,0.24 0.72,0.35 1.12,0.32 0.39,-0.03 0.7,-0.19 0.9,-0.48zm11.47 -0.5c-0.25,0.35 -0.54,0.63 -0.87,0.84 -0.34,0.22 -0.68,0.36 -1.03,0.44 -0.36,0.07 -0.72,0.08 -1.08,0.01 -0.37,-0.06 -0.71,-0.21 -1.03,-0.43 -0.32,-0.23 -0.57,-0.51 -0.75,-0.83 -0.18,-0.32 -0.29,-0.67 -0.34,-1.03 -0.05,-0.37 -0.02,-0.74 0.07,-1.12 0.09,-0.39 0.26,-0.75 0.51,-1.1 0.25,-0.35 0.54,-0.63 0.87,-0.84 0.33,-0.21 0.68,-0.36 1.04,-0.44 0.37,-0.07 0.73,-0.08 1.09,-0.01 0.36,0.07 0.7,0.22 1.02,0.45 0.32,0.23 0.57,0.5 0.75,0.82 0.19,0.32 0.3,0.66 0.34,1.02 0.04,0.37 0.01,0.74 -0.08,1.13 -0.1,0.38 -0.27,0.75 -0.51,1.09zm-1 -0.71c0.1,-0.15 0.17,-0.31 0.19,-0.48 0.01,-0.18 0,-0.35 -0.04,-0.54 -0.04,-0.18 -0.12,-0.35 -0.23,-0.51 -0.11,-0.16 -0.25,-0.3 -0.42,-0.42 -0.18,-0.13 -0.37,-0.22 -0.56,-0.27 -0.2,-0.05 -0.39,-0.07 -0.57,-0.05 -0.18,0.01 -0.35,0.06 -0.51,0.14 -0.15,0.08 -0.28,0.19 -0.38,0.33 -0.11,0.15 -0.17,0.31 -0.19,0.49 -0.02,0.17 -0.01,0.35 0.04,0.53 0.04,0.18 0.12,0.35 0.24,0.52 0.11,0.16 0.25,0.3 0.42,0.43 0.35,0.24 0.72,0.35 1.11,0.31 0.39,-0.03 0.69,-0.19 0.9,-0.48zm-5.12 7.48l-1.9 -7.7 -2.33 -7.51 1.45 -0.33 1.91 7.5 2.33 7.71 -1.46 0.33z"/>
   </g>
  </g>
  <polygon class="fil22" points="0,0 140.87,0 140.87,156.52 0,156.52 "/>
 </g>
</svg>
